G04 #@! TF.GenerationSoftware,KiCad,Pcbnew,(5.1.7)-1*
G04 #@! TF.CreationDate,2021-05-12T14:55:54+08:00*
G04 #@! TF.ProjectId,pi4-breakout,7069342d-6272-4656-916b-6f75742e6b69,rev?*
G04 #@! TF.SameCoordinates,Original*
G04 #@! TF.FileFunction,Soldermask,Bot*
G04 #@! TF.FilePolarity,Negative*
%FSLAX46Y46*%
G04 Gerber Fmt 4.6, Leading zero omitted, Abs format (unit mm)*
G04 Created by KiCad (PCBNEW (5.1.7)-1) date 2021-05-12 14:55:54*
%MOMM*%
%LPD*%
G01*
G04 APERTURE LIST*
%ADD10C,2.000000*%
%ADD11O,1.700000X1.700000*%
%ADD12R,1.700000X1.700000*%
%ADD13O,2.190000X1.740000*%
%ADD14R,1.727200X1.727200*%
%ADD15O,1.727200X1.727200*%
%ADD16C,6.200000*%
G04 APERTURE END LIST*
D10*
X138280000Y-91440000D03*
X138280000Y-86940000D03*
X144780000Y-91440000D03*
X144780000Y-86940000D03*
D11*
X121920000Y-106680000D03*
X121920000Y-104140000D03*
D12*
X121920000Y-101600000D03*
D11*
X129540000Y-91440000D03*
X127000000Y-91440000D03*
D12*
X124460000Y-91440000D03*
D13*
X167640000Y-99060000D03*
X167640000Y-101600000D03*
X167640000Y-104140000D03*
G36*
G01*
X168485001Y-107550000D02*
X166794999Y-107550000D01*
G75*
G02*
X166545000Y-107300001I0J249999D01*
G01*
X166545000Y-106059999D01*
G75*
G02*
X166794999Y-105810000I249999J0D01*
G01*
X168485001Y-105810000D01*
G75*
G02*
X168735000Y-106059999I0J-249999D01*
G01*
X168735000Y-107300001D01*
G75*
G02*
X168485001Y-107550000I-249999J0D01*
G01*
G37*
X154940000Y-99060000D03*
X154940000Y-101600000D03*
X154940000Y-104140000D03*
G36*
G01*
X155785001Y-107550000D02*
X154094999Y-107550000D01*
G75*
G02*
X153845000Y-107300001I0J249999D01*
G01*
X153845000Y-106059999D01*
G75*
G02*
X154094999Y-105810000I249999J0D01*
G01*
X155785001Y-105810000D01*
G75*
G02*
X156035000Y-106059999I0J-249999D01*
G01*
X156035000Y-107300001D01*
G75*
G02*
X155785001Y-107550000I-249999J0D01*
G01*
G37*
X142240000Y-99060000D03*
X142240000Y-101600000D03*
X142240000Y-104140000D03*
G36*
G01*
X143085001Y-107550000D02*
X141394999Y-107550000D01*
G75*
G02*
X141145000Y-107300001I0J249999D01*
G01*
X141145000Y-106059999D01*
G75*
G02*
X141394999Y-105810000I249999J0D01*
G01*
X143085001Y-105810000D01*
G75*
G02*
X143335000Y-106059999I0J-249999D01*
G01*
X143335000Y-107300001D01*
G75*
G02*
X143085001Y-107550000I-249999J0D01*
G01*
G37*
X129540000Y-99060000D03*
X129540000Y-101600000D03*
X129540000Y-104140000D03*
G36*
G01*
X130385001Y-107550000D02*
X128694999Y-107550000D01*
G75*
G02*
X128445000Y-107300001I0J249999D01*
G01*
X128445000Y-106059999D01*
G75*
G02*
X128694999Y-105810000I249999J0D01*
G01*
X130385001Y-105810000D01*
G75*
G02*
X130635000Y-106059999I0J-249999D01*
G01*
X130635000Y-107300001D01*
G75*
G02*
X130385001Y-107550000I-249999J0D01*
G01*
G37*
D14*
X120130000Y-81470000D03*
D15*
X120130000Y-78930000D03*
X122670000Y-81470000D03*
X122670000Y-78930000D03*
X125210000Y-81470000D03*
X125210000Y-78930000D03*
X127750000Y-81470000D03*
X127750000Y-78930000D03*
X130290000Y-81470000D03*
X130290000Y-78930000D03*
X132830000Y-81470000D03*
X132830000Y-78930000D03*
X135370000Y-81470000D03*
X135370000Y-78930000D03*
X137910000Y-81470000D03*
X137910000Y-78930000D03*
X140450000Y-81470000D03*
X140450000Y-78930000D03*
X142990000Y-81470000D03*
X142990000Y-78930000D03*
X145530000Y-81470000D03*
X145530000Y-78930000D03*
X148070000Y-81470000D03*
X148070000Y-78930000D03*
X150610000Y-81470000D03*
X150610000Y-78930000D03*
X153150000Y-81470000D03*
X153150000Y-78930000D03*
X155690000Y-81470000D03*
X155690000Y-78930000D03*
X158230000Y-81470000D03*
X158230000Y-78930000D03*
X160770000Y-81470000D03*
X160770000Y-78930000D03*
X163310000Y-81470000D03*
X163310000Y-78930000D03*
X165850000Y-81470000D03*
X165850000Y-78930000D03*
X168390000Y-81470000D03*
X168390000Y-78930000D03*
D16*
X173260000Y-80200000D03*
X173260000Y-129200000D03*
X115260000Y-129200000D03*
X115260000Y-80200000D03*
M02*
