G04 #@! TF.GenerationSoftware,KiCad,Pcbnew,(5.1.7)-1*
G04 #@! TF.CreationDate,2021-05-12T14:55:54+08:00*
G04 #@! TF.ProjectId,pi4-breakout,7069342d-6272-4656-916b-6f75742e6b69,rev?*
G04 #@! TF.SameCoordinates,Original*
G04 #@! TF.FileFunction,Copper,L1,Top*
G04 #@! TF.FilePolarity,Positive*
%FSLAX46Y46*%
G04 Gerber Fmt 4.6, Leading zero omitted, Abs format (unit mm)*
G04 Created by KiCad (PCBNEW (5.1.7)-1) date 2021-05-12 14:55:54*
%MOMM*%
%LPD*%
G01*
G04 APERTURE LIST*
G04 #@! TA.AperFunction,ComponentPad*
%ADD10C,2.000000*%
G04 #@! TD*
G04 #@! TA.AperFunction,ComponentPad*
%ADD11O,1.700000X1.700000*%
G04 #@! TD*
G04 #@! TA.AperFunction,ComponentPad*
%ADD12R,1.700000X1.700000*%
G04 #@! TD*
G04 #@! TA.AperFunction,ComponentPad*
%ADD13O,2.190000X1.740000*%
G04 #@! TD*
G04 #@! TA.AperFunction,ComponentPad*
%ADD14R,1.727200X1.727200*%
G04 #@! TD*
G04 #@! TA.AperFunction,ComponentPad*
%ADD15O,1.727200X1.727200*%
G04 #@! TD*
G04 #@! TA.AperFunction,ViaPad*
%ADD16C,0.600000*%
G04 #@! TD*
G04 #@! TA.AperFunction,Conductor*
%ADD17C,0.400000*%
G04 #@! TD*
G04 #@! TA.AperFunction,Conductor*
%ADD18C,0.250000*%
G04 #@! TD*
G04 #@! TA.AperFunction,Conductor*
%ADD19C,0.254000*%
G04 #@! TD*
G04 #@! TA.AperFunction,Conductor*
%ADD20C,0.100000*%
G04 #@! TD*
G04 APERTURE END LIST*
D10*
X138280000Y-91440000D03*
X138280000Y-86940000D03*
X144780000Y-91440000D03*
X144780000Y-86940000D03*
G04 #@! TA.AperFunction,SMDPad,CuDef*
G36*
G01*
X154515000Y-85831000D02*
X154515000Y-86381000D01*
G75*
G02*
X154315000Y-86581000I-200000J0D01*
G01*
X153915000Y-86581000D01*
G75*
G02*
X153715000Y-86381000I0J200000D01*
G01*
X153715000Y-85831000D01*
G75*
G02*
X153915000Y-85631000I200000J0D01*
G01*
X154315000Y-85631000D01*
G75*
G02*
X154515000Y-85831000I0J-200000D01*
G01*
G37*
G04 #@! TD.AperFunction*
G04 #@! TA.AperFunction,SMDPad,CuDef*
G36*
G01*
X156165000Y-85831000D02*
X156165000Y-86381000D01*
G75*
G02*
X155965000Y-86581000I-200000J0D01*
G01*
X155565000Y-86581000D01*
G75*
G02*
X155365000Y-86381000I0J200000D01*
G01*
X155365000Y-85831000D01*
G75*
G02*
X155565000Y-85631000I200000J0D01*
G01*
X155965000Y-85631000D01*
G75*
G02*
X156165000Y-85831000I0J-200000D01*
G01*
G37*
G04 #@! TD.AperFunction*
G04 #@! TA.AperFunction,SMDPad,CuDef*
G36*
G01*
X122345000Y-96033000D02*
X122345000Y-95483000D01*
G75*
G02*
X122545000Y-95283000I200000J0D01*
G01*
X122945000Y-95283000D01*
G75*
G02*
X123145000Y-95483000I0J-200000D01*
G01*
X123145000Y-96033000D01*
G75*
G02*
X122945000Y-96233000I-200000J0D01*
G01*
X122545000Y-96233000D01*
G75*
G02*
X122345000Y-96033000I0J200000D01*
G01*
G37*
G04 #@! TD.AperFunction*
G04 #@! TA.AperFunction,SMDPad,CuDef*
G36*
G01*
X120695000Y-96033000D02*
X120695000Y-95483000D01*
G75*
G02*
X120895000Y-95283000I200000J0D01*
G01*
X121295000Y-95283000D01*
G75*
G02*
X121495000Y-95483000I0J-200000D01*
G01*
X121495000Y-96033000D01*
G75*
G02*
X121295000Y-96233000I-200000J0D01*
G01*
X120895000Y-96233000D01*
G75*
G02*
X120695000Y-96033000I0J200000D01*
G01*
G37*
G04 #@! TD.AperFunction*
G04 #@! TA.AperFunction,SMDPad,CuDef*
G36*
G01*
X122345000Y-97811000D02*
X122345000Y-97261000D01*
G75*
G02*
X122545000Y-97061000I200000J0D01*
G01*
X122945000Y-97061000D01*
G75*
G02*
X123145000Y-97261000I0J-200000D01*
G01*
X123145000Y-97811000D01*
G75*
G02*
X122945000Y-98011000I-200000J0D01*
G01*
X122545000Y-98011000D01*
G75*
G02*
X122345000Y-97811000I0J200000D01*
G01*
G37*
G04 #@! TD.AperFunction*
G04 #@! TA.AperFunction,SMDPad,CuDef*
G36*
G01*
X120695000Y-97811000D02*
X120695000Y-97261000D01*
G75*
G02*
X120895000Y-97061000I200000J0D01*
G01*
X121295000Y-97061000D01*
G75*
G02*
X121495000Y-97261000I0J-200000D01*
G01*
X121495000Y-97811000D01*
G75*
G02*
X121295000Y-98011000I-200000J0D01*
G01*
X120895000Y-98011000D01*
G75*
G02*
X120695000Y-97811000I0J200000D01*
G01*
G37*
G04 #@! TD.AperFunction*
D11*
X121920000Y-106680000D03*
X121920000Y-104140000D03*
D12*
X121920000Y-101600000D03*
D11*
X129540000Y-91440000D03*
X127000000Y-91440000D03*
D12*
X124460000Y-91440000D03*
D13*
X167640000Y-99060000D03*
X167640000Y-101600000D03*
X167640000Y-104140000D03*
G04 #@! TA.AperFunction,ComponentPad*
G36*
G01*
X168485001Y-107550000D02*
X166794999Y-107550000D01*
G75*
G02*
X166545000Y-107300001I0J249999D01*
G01*
X166545000Y-106059999D01*
G75*
G02*
X166794999Y-105810000I249999J0D01*
G01*
X168485001Y-105810000D01*
G75*
G02*
X168735000Y-106059999I0J-249999D01*
G01*
X168735000Y-107300001D01*
G75*
G02*
X168485001Y-107550000I-249999J0D01*
G01*
G37*
G04 #@! TD.AperFunction*
X154940000Y-99060000D03*
X154940000Y-101600000D03*
X154940000Y-104140000D03*
G04 #@! TA.AperFunction,ComponentPad*
G36*
G01*
X155785001Y-107550000D02*
X154094999Y-107550000D01*
G75*
G02*
X153845000Y-107300001I0J249999D01*
G01*
X153845000Y-106059999D01*
G75*
G02*
X154094999Y-105810000I249999J0D01*
G01*
X155785001Y-105810000D01*
G75*
G02*
X156035000Y-106059999I0J-249999D01*
G01*
X156035000Y-107300001D01*
G75*
G02*
X155785001Y-107550000I-249999J0D01*
G01*
G37*
G04 #@! TD.AperFunction*
X142240000Y-99060000D03*
X142240000Y-101600000D03*
X142240000Y-104140000D03*
G04 #@! TA.AperFunction,ComponentPad*
G36*
G01*
X143085001Y-107550000D02*
X141394999Y-107550000D01*
G75*
G02*
X141145000Y-107300001I0J249999D01*
G01*
X141145000Y-106059999D01*
G75*
G02*
X141394999Y-105810000I249999J0D01*
G01*
X143085001Y-105810000D01*
G75*
G02*
X143335000Y-106059999I0J-249999D01*
G01*
X143335000Y-107300001D01*
G75*
G02*
X143085001Y-107550000I-249999J0D01*
G01*
G37*
G04 #@! TD.AperFunction*
X129540000Y-99060000D03*
X129540000Y-101600000D03*
X129540000Y-104140000D03*
G04 #@! TA.AperFunction,ComponentPad*
G36*
G01*
X130385001Y-107550000D02*
X128694999Y-107550000D01*
G75*
G02*
X128445000Y-107300001I0J249999D01*
G01*
X128445000Y-106059999D01*
G75*
G02*
X128694999Y-105810000I249999J0D01*
G01*
X130385001Y-105810000D01*
G75*
G02*
X130635000Y-106059999I0J-249999D01*
G01*
X130635000Y-107300001D01*
G75*
G02*
X130385001Y-107550000I-249999J0D01*
G01*
G37*
G04 #@! TD.AperFunction*
G04 #@! TA.AperFunction,SMDPad,CuDef*
G36*
G01*
X154590000Y-87627750D02*
X154590000Y-88140250D01*
G75*
G02*
X154371250Y-88359000I-218750J0D01*
G01*
X153933750Y-88359000D01*
G75*
G02*
X153715000Y-88140250I0J218750D01*
G01*
X153715000Y-87627750D01*
G75*
G02*
X153933750Y-87409000I218750J0D01*
G01*
X154371250Y-87409000D01*
G75*
G02*
X154590000Y-87627750I0J-218750D01*
G01*
G37*
G04 #@! TD.AperFunction*
G04 #@! TA.AperFunction,SMDPad,CuDef*
G36*
G01*
X156165000Y-87627750D02*
X156165000Y-88140250D01*
G75*
G02*
X155946250Y-88359000I-218750J0D01*
G01*
X155508750Y-88359000D01*
G75*
G02*
X155290000Y-88140250I0J218750D01*
G01*
X155290000Y-87627750D01*
G75*
G02*
X155508750Y-87409000I218750J0D01*
G01*
X155946250Y-87409000D01*
G75*
G02*
X156165000Y-87627750I0J-218750D01*
G01*
G37*
G04 #@! TD.AperFunction*
D14*
X120130000Y-81470000D03*
D15*
X120130000Y-78930000D03*
X122670000Y-81470000D03*
X122670000Y-78930000D03*
X125210000Y-81470000D03*
X125210000Y-78930000D03*
X127750000Y-81470000D03*
X127750000Y-78930000D03*
X130290000Y-81470000D03*
X130290000Y-78930000D03*
X132830000Y-81470000D03*
X132830000Y-78930000D03*
X135370000Y-81470000D03*
X135370000Y-78930000D03*
X137910000Y-81470000D03*
X137910000Y-78930000D03*
X140450000Y-81470000D03*
X140450000Y-78930000D03*
X142990000Y-81470000D03*
X142990000Y-78930000D03*
X145530000Y-81470000D03*
X145530000Y-78930000D03*
X148070000Y-81470000D03*
X148070000Y-78930000D03*
X150610000Y-81470000D03*
X150610000Y-78930000D03*
X153150000Y-81470000D03*
X153150000Y-78930000D03*
X155690000Y-81470000D03*
X155690000Y-78930000D03*
X158230000Y-81470000D03*
X158230000Y-78930000D03*
X160770000Y-81470000D03*
X160770000Y-78930000D03*
X163310000Y-81470000D03*
X163310000Y-78930000D03*
X165850000Y-81470000D03*
X165850000Y-78930000D03*
X168390000Y-81470000D03*
X168390000Y-78930000D03*
D16*
X125209990Y-87109990D03*
D17*
X154115000Y-87846500D02*
X154152500Y-87884000D01*
X154115000Y-86106000D02*
X154115000Y-87846500D01*
X155765000Y-81545000D02*
X155690000Y-81470000D01*
X155765000Y-86106000D02*
X155765000Y-81545000D01*
X120130000Y-94793000D02*
X121095000Y-95758000D01*
X120130000Y-81470000D02*
X120130000Y-94793000D01*
X121095000Y-100775000D02*
X121920000Y-101600000D01*
X121095000Y-95758000D02*
X121095000Y-100775000D01*
X138280000Y-86920000D02*
X138280000Y-86940000D01*
X132830000Y-81470000D02*
X138280000Y-86920000D01*
X138280000Y-86940000D02*
X144780000Y-86940000D01*
X126238000Y-95758000D02*
X129540000Y-99060000D01*
X122745000Y-95758000D02*
X126238000Y-95758000D01*
D18*
X122745000Y-89574980D02*
X125209990Y-87109990D01*
X125210000Y-87109980D02*
X125209990Y-87109990D01*
X125210000Y-81470000D02*
X125210000Y-87109980D01*
X122745000Y-95758000D02*
X122745000Y-89574980D01*
X126492000Y-90932000D02*
X127000000Y-91440000D01*
X126492000Y-80188000D02*
X126492000Y-90932000D01*
X127750000Y-78930000D02*
X126492000Y-80188000D01*
X121920000Y-96711000D02*
X122745000Y-97536000D01*
X121920000Y-82220000D02*
X121920000Y-96711000D01*
X122670000Y-81470000D02*
X121920000Y-82220000D01*
D17*
X125476000Y-97536000D02*
X129540000Y-101600000D01*
X122745000Y-97536000D02*
X125476000Y-97536000D01*
D19*
X171202907Y-77693425D02*
X170753425Y-78142907D01*
X170400270Y-78671442D01*
X170157012Y-79258719D01*
X170033000Y-79882168D01*
X170033000Y-80517832D01*
X170157012Y-81141281D01*
X170400270Y-81728558D01*
X170753425Y-82257093D01*
X171202907Y-82706575D01*
X171731442Y-83059730D01*
X172318719Y-83302988D01*
X172942168Y-83427000D01*
X173577832Y-83427000D01*
X174201281Y-83302988D01*
X174788558Y-83059730D01*
X175317093Y-82706575D01*
X175766575Y-82257093D01*
X176075000Y-81795501D01*
X176075001Y-127604500D01*
X175766575Y-127142907D01*
X175317093Y-126693425D01*
X174788558Y-126340270D01*
X174201281Y-126097012D01*
X173577832Y-125973000D01*
X172942168Y-125973000D01*
X172318719Y-126097012D01*
X171731442Y-126340270D01*
X171202907Y-126693425D01*
X170753425Y-127142907D01*
X170400270Y-127671442D01*
X170157012Y-128258719D01*
X170033000Y-128882168D01*
X170033000Y-129517832D01*
X170157012Y-130141281D01*
X170400270Y-130728558D01*
X170753425Y-131257093D01*
X171202907Y-131706575D01*
X171664499Y-132015000D01*
X116855501Y-132015000D01*
X117317093Y-131706575D01*
X117766575Y-131257093D01*
X118119730Y-130728558D01*
X118362988Y-130141281D01*
X118487000Y-129517832D01*
X118487000Y-128882168D01*
X118362988Y-128258719D01*
X118119730Y-127671442D01*
X117766575Y-127142907D01*
X117317093Y-126693425D01*
X116788558Y-126340270D01*
X116201281Y-126097012D01*
X115577832Y-125973000D01*
X114942168Y-125973000D01*
X114318719Y-126097012D01*
X113731442Y-126340270D01*
X113202907Y-126693425D01*
X112753425Y-127142907D01*
X112445000Y-127604499D01*
X112445000Y-114233505D01*
X112454222Y-114139453D01*
X112471805Y-114081214D01*
X112500366Y-114027499D01*
X112538816Y-113980354D01*
X112585691Y-113941576D01*
X112639204Y-113912642D01*
X112697323Y-113894651D01*
X112789145Y-113885000D01*
X115793647Y-113885000D01*
X115822955Y-113882113D01*
X115829066Y-113882156D01*
X115838585Y-113881223D01*
X116032682Y-113860822D01*
X116093496Y-113848339D01*
X116154481Y-113836705D01*
X116163637Y-113833941D01*
X116350075Y-113776229D01*
X116407279Y-113752182D01*
X116464873Y-113728913D01*
X116473317Y-113724423D01*
X116580713Y-113666354D01*
X155075000Y-113666354D01*
X155075001Y-128733647D01*
X155078366Y-128767812D01*
X155078366Y-128780806D01*
X155079366Y-128790318D01*
X155101121Y-128984268D01*
X155114025Y-129044976D01*
X155126089Y-129105901D01*
X155128917Y-129115038D01*
X155187930Y-129301068D01*
X155212377Y-129358105D01*
X155236046Y-129415531D01*
X155240595Y-129423944D01*
X155334617Y-129594969D01*
X155369692Y-129646194D01*
X155404050Y-129697906D01*
X155410146Y-129705276D01*
X155535596Y-129854782D01*
X155579974Y-129898240D01*
X155623703Y-129942275D01*
X155631109Y-129948315D01*
X155631113Y-129948319D01*
X155631115Y-129948320D01*
X155783214Y-130070611D01*
X155835139Y-130104589D01*
X155886632Y-130139322D01*
X155895077Y-130143812D01*
X156068033Y-130234232D01*
X156125590Y-130257487D01*
X156182835Y-130281550D01*
X156191991Y-130284315D01*
X156379217Y-130339418D01*
X156440218Y-130351054D01*
X156501015Y-130363534D01*
X156510533Y-130364468D01*
X156704895Y-130382157D01*
X156766986Y-130381723D01*
X156829066Y-130382156D01*
X156838585Y-130381223D01*
X157032682Y-130360822D01*
X157093496Y-130348339D01*
X157154481Y-130336705D01*
X157163637Y-130333941D01*
X157350075Y-130276229D01*
X157407279Y-130252182D01*
X157464873Y-130228913D01*
X157473317Y-130224423D01*
X157644994Y-130131598D01*
X157696468Y-130096878D01*
X157748418Y-130062883D01*
X157755829Y-130056839D01*
X157906207Y-129932435D01*
X157949973Y-129888362D01*
X157994311Y-129844943D01*
X158000408Y-129837574D01*
X158123758Y-129686332D01*
X158158126Y-129634603D01*
X158193191Y-129583392D01*
X158197739Y-129574981D01*
X158197740Y-129574980D01*
X158197742Y-129574976D01*
X158289366Y-129402657D01*
X158313022Y-129345261D01*
X158337482Y-129288193D01*
X158340310Y-129279056D01*
X158396719Y-129092220D01*
X158408780Y-129031310D01*
X158421686Y-128970591D01*
X158422686Y-128961079D01*
X158441731Y-128766845D01*
X158441731Y-128766837D01*
X158445000Y-128733647D01*
X158445000Y-113666353D01*
X158441633Y-113632169D01*
X158441633Y-113619193D01*
X158440634Y-113609681D01*
X158418879Y-113415732D01*
X158405975Y-113355024D01*
X158393911Y-113294099D01*
X158391083Y-113284962D01*
X158332070Y-113098932D01*
X158307618Y-113041882D01*
X158283954Y-112984470D01*
X158279405Y-112976056D01*
X158185383Y-112805031D01*
X158150310Y-112753809D01*
X158115951Y-112702094D01*
X158109854Y-112694724D01*
X157984404Y-112545218D01*
X157940046Y-112501779D01*
X157896297Y-112457724D01*
X157888885Y-112451679D01*
X157736785Y-112329389D01*
X157684845Y-112295401D01*
X157633367Y-112260678D01*
X157624923Y-112256187D01*
X157451967Y-112165768D01*
X157394410Y-112142513D01*
X157337165Y-112118450D01*
X157328009Y-112115685D01*
X157140783Y-112060582D01*
X157079775Y-112048945D01*
X157018985Y-112036466D01*
X157009466Y-112035532D01*
X156815105Y-112017843D01*
X156752981Y-112018277D01*
X156690933Y-112017844D01*
X156681426Y-112018776D01*
X156681419Y-112018776D01*
X156681413Y-112018777D01*
X156487318Y-112039178D01*
X156426504Y-112051661D01*
X156365519Y-112063295D01*
X156356363Y-112066059D01*
X156169925Y-112123771D01*
X156112692Y-112147830D01*
X156055127Y-112171087D01*
X156046682Y-112175577D01*
X155875006Y-112268402D01*
X155823532Y-112303122D01*
X155771582Y-112337117D01*
X155764170Y-112343162D01*
X155613793Y-112467565D01*
X155570027Y-112511638D01*
X155525689Y-112555057D01*
X155519592Y-112562426D01*
X155396242Y-112713668D01*
X155361881Y-112765386D01*
X155326809Y-112816607D01*
X155322260Y-112825020D01*
X155230635Y-112997343D01*
X155206978Y-113054739D01*
X155182519Y-113111807D01*
X155179690Y-113120943D01*
X155123281Y-113307780D01*
X155111219Y-113368698D01*
X155098314Y-113429410D01*
X155097314Y-113438922D01*
X155078269Y-113633155D01*
X155078269Y-113633164D01*
X155075000Y-113666354D01*
X116580713Y-113666354D01*
X116644994Y-113631598D01*
X116696468Y-113596878D01*
X116748418Y-113562883D01*
X116755829Y-113556839D01*
X116906207Y-113432435D01*
X116949973Y-113388362D01*
X116994311Y-113344943D01*
X117000408Y-113337574D01*
X117123758Y-113186332D01*
X117158126Y-113134603D01*
X117193191Y-113083392D01*
X117197739Y-113074981D01*
X117197740Y-113074980D01*
X117197742Y-113074976D01*
X117289366Y-112902657D01*
X117313022Y-112845261D01*
X117337482Y-112788193D01*
X117340310Y-112779056D01*
X117396719Y-112592220D01*
X117408780Y-112531310D01*
X117421686Y-112470591D01*
X117422686Y-112461079D01*
X117441731Y-112266845D01*
X117441731Y-112266837D01*
X117445000Y-112233647D01*
X117445000Y-97166353D01*
X117442113Y-97137045D01*
X117442156Y-97130933D01*
X117441223Y-97121415D01*
X117420822Y-96927318D01*
X117408339Y-96866504D01*
X117396705Y-96805519D01*
X117393941Y-96796363D01*
X117336229Y-96609925D01*
X117312170Y-96552692D01*
X117288913Y-96495127D01*
X117284423Y-96486682D01*
X117191598Y-96315006D01*
X117156878Y-96263532D01*
X117122883Y-96211582D01*
X117116838Y-96204170D01*
X116992435Y-96053793D01*
X116948362Y-96010027D01*
X116904943Y-95965689D01*
X116897574Y-95959592D01*
X116746332Y-95836242D01*
X116694614Y-95801881D01*
X116643393Y-95766809D01*
X116634980Y-95762260D01*
X116462657Y-95670635D01*
X116405261Y-95646978D01*
X116348193Y-95622519D01*
X116339057Y-95619690D01*
X116152220Y-95563281D01*
X116091302Y-95551219D01*
X116030590Y-95538314D01*
X116021078Y-95537314D01*
X115826845Y-95518269D01*
X115826837Y-95518269D01*
X115793647Y-95515000D01*
X112793505Y-95515000D01*
X112699454Y-95505778D01*
X112641213Y-95488194D01*
X112587500Y-95459635D01*
X112540354Y-95421183D01*
X112501577Y-95374310D01*
X112472642Y-95320796D01*
X112454651Y-95262677D01*
X112445000Y-95170855D01*
X112445000Y-81795501D01*
X112753425Y-82257093D01*
X113202907Y-82706575D01*
X113731442Y-83059730D01*
X114318719Y-83302988D01*
X114942168Y-83427000D01*
X115577832Y-83427000D01*
X116201281Y-83302988D01*
X116788558Y-83059730D01*
X117317093Y-82706575D01*
X117766575Y-82257093D01*
X118119730Y-81728558D01*
X118362988Y-81141281D01*
X118469382Y-80606400D01*
X118628328Y-80606400D01*
X118628328Y-82333600D01*
X118640588Y-82458082D01*
X118676898Y-82577780D01*
X118735863Y-82688094D01*
X118815215Y-82784785D01*
X118911906Y-82864137D01*
X119022220Y-82923102D01*
X119141918Y-82959412D01*
X119266400Y-82971672D01*
X119295000Y-82971672D01*
X119295001Y-94751971D01*
X119290960Y-94793000D01*
X119307082Y-94956688D01*
X119354828Y-95114086D01*
X119418735Y-95233647D01*
X119432365Y-95259146D01*
X119536710Y-95386291D01*
X119568574Y-95412441D01*
X120056928Y-95900796D01*
X120056928Y-96033000D01*
X120073031Y-96196500D01*
X120120722Y-96353716D01*
X120198169Y-96498608D01*
X120260000Y-96573949D01*
X120260000Y-96720051D01*
X120198169Y-96795392D01*
X120120722Y-96940284D01*
X120073031Y-97097500D01*
X120056928Y-97261000D01*
X120056928Y-97811000D01*
X120073031Y-97974500D01*
X120120722Y-98131716D01*
X120198169Y-98276608D01*
X120260001Y-98351950D01*
X120260001Y-100733972D01*
X120255960Y-100775000D01*
X120272082Y-100938688D01*
X120319828Y-101096086D01*
X120319829Y-101096087D01*
X120397365Y-101241146D01*
X120431928Y-101283261D01*
X120431928Y-102450000D01*
X120444188Y-102574482D01*
X120480498Y-102694180D01*
X120539463Y-102804494D01*
X120618815Y-102901185D01*
X120715506Y-102980537D01*
X120825820Y-103039502D01*
X120898380Y-103061513D01*
X120766525Y-103193368D01*
X120604010Y-103436589D01*
X120492068Y-103706842D01*
X120435000Y-103993740D01*
X120435000Y-104286260D01*
X120492068Y-104573158D01*
X120604010Y-104843411D01*
X120766525Y-105086632D01*
X120973368Y-105293475D01*
X121147760Y-105410000D01*
X120973368Y-105526525D01*
X120766525Y-105733368D01*
X120604010Y-105976589D01*
X120492068Y-106246842D01*
X120435000Y-106533740D01*
X120435000Y-106826260D01*
X120492068Y-107113158D01*
X120604010Y-107383411D01*
X120766525Y-107626632D01*
X120973368Y-107833475D01*
X121216589Y-107995990D01*
X121486842Y-108107932D01*
X121773740Y-108165000D01*
X122066260Y-108165000D01*
X122353158Y-108107932D01*
X122623411Y-107995990D01*
X122866632Y-107833475D01*
X123073475Y-107626632D01*
X123124678Y-107550000D01*
X127806928Y-107550000D01*
X127819188Y-107674482D01*
X127855498Y-107794180D01*
X127914463Y-107904494D01*
X127993815Y-108001185D01*
X128090506Y-108080537D01*
X128200820Y-108139502D01*
X128320518Y-108175812D01*
X128445000Y-108188072D01*
X129254250Y-108185000D01*
X129413000Y-108026250D01*
X129413000Y-106807000D01*
X129667000Y-106807000D01*
X129667000Y-108026250D01*
X129825750Y-108185000D01*
X130635000Y-108188072D01*
X130759482Y-108175812D01*
X130879180Y-108139502D01*
X130989494Y-108080537D01*
X131086185Y-108001185D01*
X131165537Y-107904494D01*
X131224502Y-107794180D01*
X131260812Y-107674482D01*
X131273072Y-107550000D01*
X140506928Y-107550000D01*
X140519188Y-107674482D01*
X140555498Y-107794180D01*
X140614463Y-107904494D01*
X140693815Y-108001185D01*
X140790506Y-108080537D01*
X140900820Y-108139502D01*
X141020518Y-108175812D01*
X141145000Y-108188072D01*
X141954250Y-108185000D01*
X142113000Y-108026250D01*
X142113000Y-106807000D01*
X142367000Y-106807000D01*
X142367000Y-108026250D01*
X142525750Y-108185000D01*
X143335000Y-108188072D01*
X143459482Y-108175812D01*
X143579180Y-108139502D01*
X143689494Y-108080537D01*
X143786185Y-108001185D01*
X143865537Y-107904494D01*
X143924502Y-107794180D01*
X143960812Y-107674482D01*
X143973072Y-107550000D01*
X153206928Y-107550000D01*
X153219188Y-107674482D01*
X153255498Y-107794180D01*
X153314463Y-107904494D01*
X153393815Y-108001185D01*
X153490506Y-108080537D01*
X153600820Y-108139502D01*
X153720518Y-108175812D01*
X153845000Y-108188072D01*
X154654250Y-108185000D01*
X154813000Y-108026250D01*
X154813000Y-106807000D01*
X155067000Y-106807000D01*
X155067000Y-108026250D01*
X155225750Y-108185000D01*
X156035000Y-108188072D01*
X156159482Y-108175812D01*
X156279180Y-108139502D01*
X156389494Y-108080537D01*
X156486185Y-108001185D01*
X156565537Y-107904494D01*
X156624502Y-107794180D01*
X156660812Y-107674482D01*
X156673072Y-107550000D01*
X165906928Y-107550000D01*
X165919188Y-107674482D01*
X165955498Y-107794180D01*
X166014463Y-107904494D01*
X166093815Y-108001185D01*
X166190506Y-108080537D01*
X166300820Y-108139502D01*
X166420518Y-108175812D01*
X166545000Y-108188072D01*
X167354250Y-108185000D01*
X167513000Y-108026250D01*
X167513000Y-106807000D01*
X167767000Y-106807000D01*
X167767000Y-108026250D01*
X167925750Y-108185000D01*
X168735000Y-108188072D01*
X168859482Y-108175812D01*
X168979180Y-108139502D01*
X169089494Y-108080537D01*
X169186185Y-108001185D01*
X169265537Y-107904494D01*
X169324502Y-107794180D01*
X169360812Y-107674482D01*
X169373072Y-107550000D01*
X169370000Y-106965750D01*
X169211250Y-106807000D01*
X167767000Y-106807000D01*
X167513000Y-106807000D01*
X166068750Y-106807000D01*
X165910000Y-106965750D01*
X165906928Y-107550000D01*
X156673072Y-107550000D01*
X156670000Y-106965750D01*
X156511250Y-106807000D01*
X155067000Y-106807000D01*
X154813000Y-106807000D01*
X153368750Y-106807000D01*
X153210000Y-106965750D01*
X153206928Y-107550000D01*
X143973072Y-107550000D01*
X143970000Y-106965750D01*
X143811250Y-106807000D01*
X142367000Y-106807000D01*
X142113000Y-106807000D01*
X140668750Y-106807000D01*
X140510000Y-106965750D01*
X140506928Y-107550000D01*
X131273072Y-107550000D01*
X131270000Y-106965750D01*
X131111250Y-106807000D01*
X129667000Y-106807000D01*
X129413000Y-106807000D01*
X127968750Y-106807000D01*
X127810000Y-106965750D01*
X127806928Y-107550000D01*
X123124678Y-107550000D01*
X123235990Y-107383411D01*
X123347932Y-107113158D01*
X123405000Y-106826260D01*
X123405000Y-106533740D01*
X123347932Y-106246842D01*
X123235990Y-105976589D01*
X123073475Y-105733368D01*
X122866632Y-105526525D01*
X122692240Y-105410000D01*
X122866632Y-105293475D01*
X123073475Y-105086632D01*
X123235990Y-104843411D01*
X123347932Y-104573158D01*
X123405000Y-104286260D01*
X123405000Y-103993740D01*
X123347932Y-103706842D01*
X123235990Y-103436589D01*
X123073475Y-103193368D01*
X122941620Y-103061513D01*
X123014180Y-103039502D01*
X123124494Y-102980537D01*
X123221185Y-102901185D01*
X123300537Y-102804494D01*
X123359502Y-102694180D01*
X123395812Y-102574482D01*
X123408072Y-102450000D01*
X123408072Y-100750000D01*
X123395812Y-100625518D01*
X123359502Y-100505820D01*
X123300537Y-100395506D01*
X123221185Y-100298815D01*
X123124494Y-100219463D01*
X123014180Y-100160498D01*
X122894482Y-100124188D01*
X122770000Y-100111928D01*
X121930000Y-100111928D01*
X121930000Y-98376319D01*
X121952394Y-98403606D01*
X122079392Y-98507831D01*
X122224284Y-98585278D01*
X122381500Y-98632969D01*
X122545000Y-98649072D01*
X122945000Y-98649072D01*
X123108500Y-98632969D01*
X123265716Y-98585278D01*
X123410608Y-98507831D01*
X123537606Y-98403606D01*
X123564365Y-98371000D01*
X125130133Y-98371000D01*
X127885848Y-101126717D01*
X127831776Y-101304968D01*
X127802718Y-101600000D01*
X127831776Y-101895032D01*
X127917834Y-102178725D01*
X128057583Y-102440179D01*
X128245655Y-102669345D01*
X128474821Y-102857417D01*
X128498362Y-102870000D01*
X128474821Y-102882583D01*
X128245655Y-103070655D01*
X128057583Y-103299821D01*
X127917834Y-103561275D01*
X127831776Y-103844968D01*
X127802718Y-104140000D01*
X127831776Y-104435032D01*
X127917834Y-104718725D01*
X128057583Y-104980179D01*
X128244047Y-105207385D01*
X128200820Y-105220498D01*
X128090506Y-105279463D01*
X127993815Y-105358815D01*
X127914463Y-105455506D01*
X127855498Y-105565820D01*
X127819188Y-105685518D01*
X127806928Y-105810000D01*
X127810000Y-106394250D01*
X127968750Y-106553000D01*
X129413000Y-106553000D01*
X129413000Y-106533000D01*
X129667000Y-106533000D01*
X129667000Y-106553000D01*
X131111250Y-106553000D01*
X131270000Y-106394250D01*
X131273072Y-105810000D01*
X131260812Y-105685518D01*
X131224502Y-105565820D01*
X131165537Y-105455506D01*
X131086185Y-105358815D01*
X130989494Y-105279463D01*
X130879180Y-105220498D01*
X130835953Y-105207385D01*
X131022417Y-104980179D01*
X131162166Y-104718725D01*
X131248224Y-104435032D01*
X131277282Y-104140000D01*
X131248224Y-103844968D01*
X131162166Y-103561275D01*
X131022417Y-103299821D01*
X130834345Y-103070655D01*
X130605179Y-102882583D01*
X130581638Y-102870000D01*
X130605179Y-102857417D01*
X130834345Y-102669345D01*
X131022417Y-102440179D01*
X131162166Y-102178725D01*
X131248224Y-101895032D01*
X131277282Y-101600000D01*
X131248224Y-101304968D01*
X131162166Y-101021275D01*
X131022417Y-100759821D01*
X130834345Y-100530655D01*
X130605179Y-100342583D01*
X130581638Y-100330000D01*
X130605179Y-100317417D01*
X130834345Y-100129345D01*
X131022417Y-99900179D01*
X131162166Y-99638725D01*
X131248224Y-99355032D01*
X131277282Y-99060000D01*
X140502718Y-99060000D01*
X140531776Y-99355032D01*
X140617834Y-99638725D01*
X140757583Y-99900179D01*
X140945655Y-100129345D01*
X141174821Y-100317417D01*
X141198362Y-100330000D01*
X141174821Y-100342583D01*
X140945655Y-100530655D01*
X140757583Y-100759821D01*
X140617834Y-101021275D01*
X140531776Y-101304968D01*
X140502718Y-101600000D01*
X140531776Y-101895032D01*
X140617834Y-102178725D01*
X140757583Y-102440179D01*
X140945655Y-102669345D01*
X141174821Y-102857417D01*
X141198362Y-102870000D01*
X141174821Y-102882583D01*
X140945655Y-103070655D01*
X140757583Y-103299821D01*
X140617834Y-103561275D01*
X140531776Y-103844968D01*
X140502718Y-104140000D01*
X140531776Y-104435032D01*
X140617834Y-104718725D01*
X140757583Y-104980179D01*
X140944047Y-105207385D01*
X140900820Y-105220498D01*
X140790506Y-105279463D01*
X140693815Y-105358815D01*
X140614463Y-105455506D01*
X140555498Y-105565820D01*
X140519188Y-105685518D01*
X140506928Y-105810000D01*
X140510000Y-106394250D01*
X140668750Y-106553000D01*
X142113000Y-106553000D01*
X142113000Y-106533000D01*
X142367000Y-106533000D01*
X142367000Y-106553000D01*
X143811250Y-106553000D01*
X143970000Y-106394250D01*
X143973072Y-105810000D01*
X143960812Y-105685518D01*
X143924502Y-105565820D01*
X143865537Y-105455506D01*
X143786185Y-105358815D01*
X143689494Y-105279463D01*
X143579180Y-105220498D01*
X143535953Y-105207385D01*
X143722417Y-104980179D01*
X143862166Y-104718725D01*
X143948224Y-104435032D01*
X143977282Y-104140000D01*
X143948224Y-103844968D01*
X143862166Y-103561275D01*
X143722417Y-103299821D01*
X143534345Y-103070655D01*
X143305179Y-102882583D01*
X143281638Y-102870000D01*
X143305179Y-102857417D01*
X143534345Y-102669345D01*
X143722417Y-102440179D01*
X143862166Y-102178725D01*
X143948224Y-101895032D01*
X143977282Y-101600000D01*
X143948224Y-101304968D01*
X143862166Y-101021275D01*
X143722417Y-100759821D01*
X143534345Y-100530655D01*
X143305179Y-100342583D01*
X143281638Y-100330000D01*
X143305179Y-100317417D01*
X143534345Y-100129345D01*
X143722417Y-99900179D01*
X143862166Y-99638725D01*
X143948224Y-99355032D01*
X143977282Y-99060000D01*
X153202718Y-99060000D01*
X153231776Y-99355032D01*
X153317834Y-99638725D01*
X153457583Y-99900179D01*
X153645655Y-100129345D01*
X153874821Y-100317417D01*
X153898362Y-100330000D01*
X153874821Y-100342583D01*
X153645655Y-100530655D01*
X153457583Y-100759821D01*
X153317834Y-101021275D01*
X153231776Y-101304968D01*
X153202718Y-101600000D01*
X153231776Y-101895032D01*
X153317834Y-102178725D01*
X153457583Y-102440179D01*
X153645655Y-102669345D01*
X153874821Y-102857417D01*
X153898362Y-102870000D01*
X153874821Y-102882583D01*
X153645655Y-103070655D01*
X153457583Y-103299821D01*
X153317834Y-103561275D01*
X153231776Y-103844968D01*
X153202718Y-104140000D01*
X153231776Y-104435032D01*
X153317834Y-104718725D01*
X153457583Y-104980179D01*
X153644047Y-105207385D01*
X153600820Y-105220498D01*
X153490506Y-105279463D01*
X153393815Y-105358815D01*
X153314463Y-105455506D01*
X153255498Y-105565820D01*
X153219188Y-105685518D01*
X153206928Y-105810000D01*
X153210000Y-106394250D01*
X153368750Y-106553000D01*
X154813000Y-106553000D01*
X154813000Y-106533000D01*
X155067000Y-106533000D01*
X155067000Y-106553000D01*
X156511250Y-106553000D01*
X156670000Y-106394250D01*
X156673072Y-105810000D01*
X156660812Y-105685518D01*
X156624502Y-105565820D01*
X156565537Y-105455506D01*
X156486185Y-105358815D01*
X156389494Y-105279463D01*
X156279180Y-105220498D01*
X156235953Y-105207385D01*
X156422417Y-104980179D01*
X156562166Y-104718725D01*
X156648224Y-104435032D01*
X156677282Y-104140000D01*
X156648224Y-103844968D01*
X156562166Y-103561275D01*
X156422417Y-103299821D01*
X156234345Y-103070655D01*
X156005179Y-102882583D01*
X155981638Y-102870000D01*
X156005179Y-102857417D01*
X156234345Y-102669345D01*
X156422417Y-102440179D01*
X156562166Y-102178725D01*
X156648224Y-101895032D01*
X156677282Y-101600000D01*
X156648224Y-101304968D01*
X156562166Y-101021275D01*
X156422417Y-100759821D01*
X156234345Y-100530655D01*
X156005179Y-100342583D01*
X155981638Y-100330000D01*
X156005179Y-100317417D01*
X156234345Y-100129345D01*
X156422417Y-99900179D01*
X156562166Y-99638725D01*
X156648224Y-99355032D01*
X156677282Y-99060000D01*
X165902718Y-99060000D01*
X165931776Y-99355032D01*
X166017834Y-99638725D01*
X166157583Y-99900179D01*
X166345655Y-100129345D01*
X166574821Y-100317417D01*
X166598362Y-100330000D01*
X166574821Y-100342583D01*
X166345655Y-100530655D01*
X166157583Y-100759821D01*
X166017834Y-101021275D01*
X165931776Y-101304968D01*
X165902718Y-101600000D01*
X165931776Y-101895032D01*
X166017834Y-102178725D01*
X166157583Y-102440179D01*
X166345655Y-102669345D01*
X166574821Y-102857417D01*
X166598362Y-102870000D01*
X166574821Y-102882583D01*
X166345655Y-103070655D01*
X166157583Y-103299821D01*
X166017834Y-103561275D01*
X165931776Y-103844968D01*
X165902718Y-104140000D01*
X165931776Y-104435032D01*
X166017834Y-104718725D01*
X166157583Y-104980179D01*
X166344047Y-105207385D01*
X166300820Y-105220498D01*
X166190506Y-105279463D01*
X166093815Y-105358815D01*
X166014463Y-105455506D01*
X165955498Y-105565820D01*
X165919188Y-105685518D01*
X165906928Y-105810000D01*
X165910000Y-106394250D01*
X166068750Y-106553000D01*
X167513000Y-106553000D01*
X167513000Y-106533000D01*
X167767000Y-106533000D01*
X167767000Y-106553000D01*
X169211250Y-106553000D01*
X169370000Y-106394250D01*
X169373072Y-105810000D01*
X169360812Y-105685518D01*
X169324502Y-105565820D01*
X169265537Y-105455506D01*
X169186185Y-105358815D01*
X169089494Y-105279463D01*
X168979180Y-105220498D01*
X168935953Y-105207385D01*
X169122417Y-104980179D01*
X169262166Y-104718725D01*
X169348224Y-104435032D01*
X169377282Y-104140000D01*
X169348224Y-103844968D01*
X169262166Y-103561275D01*
X169122417Y-103299821D01*
X168934345Y-103070655D01*
X168705179Y-102882583D01*
X168681638Y-102870000D01*
X168705179Y-102857417D01*
X168934345Y-102669345D01*
X169122417Y-102440179D01*
X169262166Y-102178725D01*
X169348224Y-101895032D01*
X169377282Y-101600000D01*
X169348224Y-101304968D01*
X169262166Y-101021275D01*
X169122417Y-100759821D01*
X168934345Y-100530655D01*
X168705179Y-100342583D01*
X168681638Y-100330000D01*
X168705179Y-100317417D01*
X168934345Y-100129345D01*
X169122417Y-99900179D01*
X169262166Y-99638725D01*
X169348224Y-99355032D01*
X169377282Y-99060000D01*
X169348224Y-98764968D01*
X169262166Y-98481275D01*
X169122417Y-98219821D01*
X168934345Y-97990655D01*
X168705179Y-97802583D01*
X168443725Y-97662834D01*
X168160032Y-97576776D01*
X167938936Y-97555000D01*
X167341064Y-97555000D01*
X167119968Y-97576776D01*
X166836275Y-97662834D01*
X166574821Y-97802583D01*
X166345655Y-97990655D01*
X166157583Y-98219821D01*
X166017834Y-98481275D01*
X165931776Y-98764968D01*
X165902718Y-99060000D01*
X156677282Y-99060000D01*
X156648224Y-98764968D01*
X156562166Y-98481275D01*
X156422417Y-98219821D01*
X156234345Y-97990655D01*
X156005179Y-97802583D01*
X155743725Y-97662834D01*
X155460032Y-97576776D01*
X155238936Y-97555000D01*
X154641064Y-97555000D01*
X154419968Y-97576776D01*
X154136275Y-97662834D01*
X153874821Y-97802583D01*
X153645655Y-97990655D01*
X153457583Y-98219821D01*
X153317834Y-98481275D01*
X153231776Y-98764968D01*
X153202718Y-99060000D01*
X143977282Y-99060000D01*
X143948224Y-98764968D01*
X143862166Y-98481275D01*
X143722417Y-98219821D01*
X143534345Y-97990655D01*
X143305179Y-97802583D01*
X143043725Y-97662834D01*
X142760032Y-97576776D01*
X142538936Y-97555000D01*
X141941064Y-97555000D01*
X141719968Y-97576776D01*
X141436275Y-97662834D01*
X141174821Y-97802583D01*
X140945655Y-97990655D01*
X140757583Y-98219821D01*
X140617834Y-98481275D01*
X140531776Y-98764968D01*
X140502718Y-99060000D01*
X131277282Y-99060000D01*
X131248224Y-98764968D01*
X131162166Y-98481275D01*
X131022417Y-98219821D01*
X130834345Y-97990655D01*
X130605179Y-97802583D01*
X130343725Y-97662834D01*
X130060032Y-97576776D01*
X129838936Y-97555000D01*
X129241064Y-97555000D01*
X129218127Y-97557259D01*
X126857446Y-95196579D01*
X126831291Y-95164709D01*
X126704146Y-95060364D01*
X126559087Y-94982828D01*
X126401689Y-94935082D01*
X126279019Y-94923000D01*
X126279018Y-94923000D01*
X126238000Y-94918960D01*
X126196982Y-94923000D01*
X123564365Y-94923000D01*
X123537606Y-94890394D01*
X123505000Y-94863635D01*
X123505000Y-92917731D01*
X123610000Y-92928072D01*
X125310000Y-92928072D01*
X125434482Y-92915812D01*
X125554180Y-92879502D01*
X125664494Y-92820537D01*
X125761185Y-92741185D01*
X125840537Y-92644494D01*
X125899502Y-92534180D01*
X125921513Y-92461620D01*
X126053368Y-92593475D01*
X126296589Y-92755990D01*
X126566842Y-92867932D01*
X126853740Y-92925000D01*
X127146260Y-92925000D01*
X127433158Y-92867932D01*
X127703411Y-92755990D01*
X127946632Y-92593475D01*
X128153475Y-92386632D01*
X128275195Y-92204466D01*
X128344822Y-92321355D01*
X128539731Y-92537588D01*
X128773080Y-92711641D01*
X129035901Y-92836825D01*
X129183110Y-92881476D01*
X129413000Y-92760155D01*
X129413000Y-91567000D01*
X129667000Y-91567000D01*
X129667000Y-92760155D01*
X129896890Y-92881476D01*
X130044099Y-92836825D01*
X130306920Y-92711641D01*
X130489557Y-92575413D01*
X137324192Y-92575413D01*
X137419956Y-92839814D01*
X137709571Y-92980704D01*
X138021108Y-93062384D01*
X138342595Y-93081718D01*
X138661675Y-93037961D01*
X138966088Y-92932795D01*
X139140044Y-92839814D01*
X139235808Y-92575413D01*
X143824192Y-92575413D01*
X143919956Y-92839814D01*
X144209571Y-92980704D01*
X144521108Y-93062384D01*
X144842595Y-93081718D01*
X145161675Y-93037961D01*
X145466088Y-92932795D01*
X145640044Y-92839814D01*
X145735808Y-92575413D01*
X144780000Y-91619605D01*
X143824192Y-92575413D01*
X139235808Y-92575413D01*
X138280000Y-91619605D01*
X137324192Y-92575413D01*
X130489557Y-92575413D01*
X130540269Y-92537588D01*
X130735178Y-92321355D01*
X130884157Y-92071252D01*
X130981481Y-91796891D01*
X130860814Y-91567000D01*
X129667000Y-91567000D01*
X129413000Y-91567000D01*
X129393000Y-91567000D01*
X129393000Y-91502595D01*
X136638282Y-91502595D01*
X136682039Y-91821675D01*
X136787205Y-92126088D01*
X136880186Y-92300044D01*
X137144587Y-92395808D01*
X138100395Y-91440000D01*
X138459605Y-91440000D01*
X139415413Y-92395808D01*
X139679814Y-92300044D01*
X139820704Y-92010429D01*
X139902384Y-91698892D01*
X139914189Y-91502595D01*
X143138282Y-91502595D01*
X143182039Y-91821675D01*
X143287205Y-92126088D01*
X143380186Y-92300044D01*
X143644587Y-92395808D01*
X144600395Y-91440000D01*
X144959605Y-91440000D01*
X145915413Y-92395808D01*
X146179814Y-92300044D01*
X146320704Y-92010429D01*
X146402384Y-91698892D01*
X146421718Y-91377405D01*
X146377961Y-91058325D01*
X146272795Y-90753912D01*
X146179814Y-90579956D01*
X145915413Y-90484192D01*
X144959605Y-91440000D01*
X144600395Y-91440000D01*
X143644587Y-90484192D01*
X143380186Y-90579956D01*
X143239296Y-90869571D01*
X143157616Y-91181108D01*
X143138282Y-91502595D01*
X139914189Y-91502595D01*
X139921718Y-91377405D01*
X139877961Y-91058325D01*
X139772795Y-90753912D01*
X139679814Y-90579956D01*
X139415413Y-90484192D01*
X138459605Y-91440000D01*
X138100395Y-91440000D01*
X137144587Y-90484192D01*
X136880186Y-90579956D01*
X136739296Y-90869571D01*
X136657616Y-91181108D01*
X136638282Y-91502595D01*
X129393000Y-91502595D01*
X129393000Y-91313000D01*
X129413000Y-91313000D01*
X129413000Y-90119845D01*
X129667000Y-90119845D01*
X129667000Y-91313000D01*
X130860814Y-91313000D01*
X130981481Y-91083109D01*
X130884157Y-90808748D01*
X130735178Y-90558645D01*
X130540269Y-90342412D01*
X130489558Y-90304587D01*
X137324192Y-90304587D01*
X138280000Y-91260395D01*
X139235808Y-90304587D01*
X143824192Y-90304587D01*
X144780000Y-91260395D01*
X145735808Y-90304587D01*
X145640044Y-90040186D01*
X145350429Y-89899296D01*
X145038892Y-89817616D01*
X144717405Y-89798282D01*
X144398325Y-89842039D01*
X144093912Y-89947205D01*
X143919956Y-90040186D01*
X143824192Y-90304587D01*
X139235808Y-90304587D01*
X139140044Y-90040186D01*
X138850429Y-89899296D01*
X138538892Y-89817616D01*
X138217405Y-89798282D01*
X137898325Y-89842039D01*
X137593912Y-89947205D01*
X137419956Y-90040186D01*
X137324192Y-90304587D01*
X130489558Y-90304587D01*
X130306920Y-90168359D01*
X130044099Y-90043175D01*
X129896890Y-89998524D01*
X129667000Y-90119845D01*
X129413000Y-90119845D01*
X129183110Y-89998524D01*
X129035901Y-90043175D01*
X128773080Y-90168359D01*
X128539731Y-90342412D01*
X128344822Y-90558645D01*
X128275195Y-90675534D01*
X128153475Y-90493368D01*
X127946632Y-90286525D01*
X127703411Y-90124010D01*
X127433158Y-90012068D01*
X127252000Y-89976033D01*
X127252000Y-82885795D01*
X127312875Y-82911010D01*
X127602401Y-82968600D01*
X127897599Y-82968600D01*
X128187125Y-82911010D01*
X128459853Y-82798042D01*
X128705302Y-82634039D01*
X128914039Y-82425302D01*
X129024559Y-82259897D01*
X129083183Y-82358488D01*
X129279707Y-82576854D01*
X129515056Y-82752684D01*
X129780186Y-82879222D01*
X129930974Y-82924958D01*
X130163000Y-82803817D01*
X130163000Y-81597000D01*
X130143000Y-81597000D01*
X130143000Y-81343000D01*
X130163000Y-81343000D01*
X130163000Y-81323000D01*
X130417000Y-81323000D01*
X130417000Y-81343000D01*
X130437000Y-81343000D01*
X130437000Y-81597000D01*
X130417000Y-81597000D01*
X130417000Y-82803817D01*
X130649026Y-82924958D01*
X130799814Y-82879222D01*
X131064944Y-82752684D01*
X131300293Y-82576854D01*
X131496817Y-82358488D01*
X131555441Y-82259897D01*
X131665961Y-82425302D01*
X131874698Y-82634039D01*
X132120147Y-82798042D01*
X132392875Y-82911010D01*
X132682401Y-82968600D01*
X132977599Y-82968600D01*
X133119506Y-82940373D01*
X136696946Y-86517815D01*
X136645000Y-86778967D01*
X136645000Y-87101033D01*
X136707832Y-87416912D01*
X136831082Y-87714463D01*
X137010013Y-87982252D01*
X137237748Y-88209987D01*
X137505537Y-88388918D01*
X137803088Y-88512168D01*
X138118967Y-88575000D01*
X138441033Y-88575000D01*
X138756912Y-88512168D01*
X139054463Y-88388918D01*
X139322252Y-88209987D01*
X139549987Y-87982252D01*
X139688468Y-87775000D01*
X143371532Y-87775000D01*
X143510013Y-87982252D01*
X143737748Y-88209987D01*
X144005537Y-88388918D01*
X144303088Y-88512168D01*
X144618967Y-88575000D01*
X144941033Y-88575000D01*
X145256912Y-88512168D01*
X145554463Y-88388918D01*
X145822252Y-88209987D01*
X146049987Y-87982252D01*
X146228918Y-87714463D01*
X146352168Y-87416912D01*
X146415000Y-87101033D01*
X146415000Y-86778967D01*
X146352168Y-86463088D01*
X146228918Y-86165537D01*
X146049987Y-85897748D01*
X145822252Y-85670013D01*
X145554463Y-85491082D01*
X145256912Y-85367832D01*
X144941033Y-85305000D01*
X144618967Y-85305000D01*
X144303088Y-85367832D01*
X144005537Y-85491082D01*
X143737748Y-85670013D01*
X143510013Y-85897748D01*
X143371532Y-86105000D01*
X139688468Y-86105000D01*
X139549987Y-85897748D01*
X139322252Y-85670013D01*
X139054463Y-85491082D01*
X138756912Y-85367832D01*
X138441033Y-85305000D01*
X138118967Y-85305000D01*
X137891178Y-85350310D01*
X135509468Y-82968600D01*
X135517599Y-82968600D01*
X135807125Y-82911010D01*
X136079853Y-82798042D01*
X136325302Y-82634039D01*
X136534039Y-82425302D01*
X136640000Y-82266719D01*
X136745961Y-82425302D01*
X136954698Y-82634039D01*
X137200147Y-82798042D01*
X137472875Y-82911010D01*
X137762401Y-82968600D01*
X138057599Y-82968600D01*
X138347125Y-82911010D01*
X138619853Y-82798042D01*
X138865302Y-82634039D01*
X139074039Y-82425302D01*
X139180000Y-82266719D01*
X139285961Y-82425302D01*
X139494698Y-82634039D01*
X139740147Y-82798042D01*
X140012875Y-82911010D01*
X140302401Y-82968600D01*
X140597599Y-82968600D01*
X140887125Y-82911010D01*
X141159853Y-82798042D01*
X141405302Y-82634039D01*
X141614039Y-82425302D01*
X141720000Y-82266719D01*
X141825961Y-82425302D01*
X142034698Y-82634039D01*
X142280147Y-82798042D01*
X142552875Y-82911010D01*
X142842401Y-82968600D01*
X143137599Y-82968600D01*
X143427125Y-82911010D01*
X143699853Y-82798042D01*
X143945302Y-82634039D01*
X144154039Y-82425302D01*
X144260000Y-82266719D01*
X144365961Y-82425302D01*
X144574698Y-82634039D01*
X144820147Y-82798042D01*
X145092875Y-82911010D01*
X145382401Y-82968600D01*
X145677599Y-82968600D01*
X145967125Y-82911010D01*
X146239853Y-82798042D01*
X146485302Y-82634039D01*
X146694039Y-82425302D01*
X146800000Y-82266719D01*
X146905961Y-82425302D01*
X147114698Y-82634039D01*
X147360147Y-82798042D01*
X147632875Y-82911010D01*
X147922401Y-82968600D01*
X148217599Y-82968600D01*
X148507125Y-82911010D01*
X148779853Y-82798042D01*
X149025302Y-82634039D01*
X149234039Y-82425302D01*
X149344559Y-82259897D01*
X149403183Y-82358488D01*
X149599707Y-82576854D01*
X149835056Y-82752684D01*
X150100186Y-82879222D01*
X150250974Y-82924958D01*
X150483000Y-82803817D01*
X150483000Y-81597000D01*
X150463000Y-81597000D01*
X150463000Y-81343000D01*
X150483000Y-81343000D01*
X150483000Y-81323000D01*
X150737000Y-81323000D01*
X150737000Y-81343000D01*
X150757000Y-81343000D01*
X150757000Y-81597000D01*
X150737000Y-81597000D01*
X150737000Y-82803817D01*
X150969026Y-82924958D01*
X151119814Y-82879222D01*
X151384944Y-82752684D01*
X151620293Y-82576854D01*
X151816817Y-82358488D01*
X151875441Y-82259897D01*
X151985961Y-82425302D01*
X152194698Y-82634039D01*
X152440147Y-82798042D01*
X152712875Y-82911010D01*
X153002401Y-82968600D01*
X153297599Y-82968600D01*
X153587125Y-82911010D01*
X153859853Y-82798042D01*
X154105302Y-82634039D01*
X154314039Y-82425302D01*
X154420000Y-82266719D01*
X154525961Y-82425302D01*
X154734698Y-82634039D01*
X154930001Y-82764535D01*
X154930000Y-85265681D01*
X154907606Y-85238394D01*
X154780608Y-85134169D01*
X154635716Y-85056722D01*
X154478500Y-85009031D01*
X154315000Y-84992928D01*
X153915000Y-84992928D01*
X153751500Y-85009031D01*
X153594284Y-85056722D01*
X153449392Y-85134169D01*
X153322394Y-85238394D01*
X153218169Y-85365392D01*
X153140722Y-85510284D01*
X153093031Y-85667500D01*
X153076928Y-85831000D01*
X153076928Y-86381000D01*
X153093031Y-86544500D01*
X153140722Y-86701716D01*
X153218169Y-86846608D01*
X153280000Y-86921950D01*
X153280001Y-87080233D01*
X153221329Y-87151725D01*
X153142150Y-87299858D01*
X153093392Y-87460592D01*
X153076928Y-87627750D01*
X153076928Y-88140250D01*
X153093392Y-88307408D01*
X153142150Y-88468142D01*
X153221329Y-88616275D01*
X153327885Y-88746115D01*
X153457725Y-88852671D01*
X153605858Y-88931850D01*
X153766592Y-88980608D01*
X153933750Y-88997072D01*
X154371250Y-88997072D01*
X154538408Y-88980608D01*
X154699142Y-88931850D01*
X154847275Y-88852671D01*
X154868930Y-88834900D01*
X154935506Y-88889537D01*
X155045820Y-88948502D01*
X155165518Y-88984812D01*
X155290000Y-88997072D01*
X155441750Y-88994000D01*
X155600500Y-88835250D01*
X155600500Y-88011000D01*
X155854500Y-88011000D01*
X155854500Y-88835250D01*
X156013250Y-88994000D01*
X156165000Y-88997072D01*
X156289482Y-88984812D01*
X156409180Y-88948502D01*
X156519494Y-88889537D01*
X156616185Y-88810185D01*
X156695537Y-88713494D01*
X156754502Y-88603180D01*
X156790812Y-88483482D01*
X156803072Y-88359000D01*
X156800000Y-88169750D01*
X156641250Y-88011000D01*
X155854500Y-88011000D01*
X155600500Y-88011000D01*
X155580500Y-88011000D01*
X155580500Y-87757000D01*
X155600500Y-87757000D01*
X155600500Y-87737000D01*
X155854500Y-87737000D01*
X155854500Y-87757000D01*
X156641250Y-87757000D01*
X156800000Y-87598250D01*
X156803072Y-87409000D01*
X156790812Y-87284518D01*
X156754502Y-87164820D01*
X156695537Y-87054506D01*
X156616185Y-86957815D01*
X156588925Y-86935444D01*
X156661831Y-86846608D01*
X156739278Y-86701716D01*
X156786969Y-86544500D01*
X156803072Y-86381000D01*
X156803072Y-85831000D01*
X156786969Y-85667500D01*
X156739278Y-85510284D01*
X156661831Y-85365392D01*
X156600000Y-85290051D01*
X156600000Y-82664309D01*
X156645302Y-82634039D01*
X156854039Y-82425302D01*
X156960000Y-82266719D01*
X157065961Y-82425302D01*
X157274698Y-82634039D01*
X157520147Y-82798042D01*
X157792875Y-82911010D01*
X158082401Y-82968600D01*
X158377599Y-82968600D01*
X158667125Y-82911010D01*
X158939853Y-82798042D01*
X159185302Y-82634039D01*
X159394039Y-82425302D01*
X159500000Y-82266719D01*
X159605961Y-82425302D01*
X159814698Y-82634039D01*
X160060147Y-82798042D01*
X160332875Y-82911010D01*
X160622401Y-82968600D01*
X160917599Y-82968600D01*
X161207125Y-82911010D01*
X161479853Y-82798042D01*
X161725302Y-82634039D01*
X161934039Y-82425302D01*
X162040000Y-82266719D01*
X162145961Y-82425302D01*
X162354698Y-82634039D01*
X162600147Y-82798042D01*
X162872875Y-82911010D01*
X163162401Y-82968600D01*
X163457599Y-82968600D01*
X163747125Y-82911010D01*
X164019853Y-82798042D01*
X164265302Y-82634039D01*
X164474039Y-82425302D01*
X164580000Y-82266719D01*
X164685961Y-82425302D01*
X164894698Y-82634039D01*
X165140147Y-82798042D01*
X165412875Y-82911010D01*
X165702401Y-82968600D01*
X165997599Y-82968600D01*
X166287125Y-82911010D01*
X166559853Y-82798042D01*
X166805302Y-82634039D01*
X167014039Y-82425302D01*
X167124559Y-82259897D01*
X167183183Y-82358488D01*
X167379707Y-82576854D01*
X167615056Y-82752684D01*
X167880186Y-82879222D01*
X168030974Y-82924958D01*
X168263000Y-82803817D01*
X168263000Y-81597000D01*
X168517000Y-81597000D01*
X168517000Y-82803817D01*
X168749026Y-82924958D01*
X168899814Y-82879222D01*
X169164944Y-82752684D01*
X169400293Y-82576854D01*
X169596817Y-82358488D01*
X169746964Y-82105978D01*
X169844963Y-81829027D01*
X169724464Y-81597000D01*
X168517000Y-81597000D01*
X168263000Y-81597000D01*
X168243000Y-81597000D01*
X168243000Y-81343000D01*
X168263000Y-81343000D01*
X168263000Y-81323000D01*
X168517000Y-81323000D01*
X168517000Y-81343000D01*
X169724464Y-81343000D01*
X169844963Y-81110973D01*
X169746964Y-80834022D01*
X169596817Y-80581512D01*
X169400293Y-80363146D01*
X169184187Y-80201692D01*
X169345302Y-80094039D01*
X169554039Y-79885302D01*
X169718042Y-79639853D01*
X169831010Y-79367125D01*
X169888600Y-79077599D01*
X169888600Y-78782401D01*
X169831010Y-78492875D01*
X169718042Y-78220147D01*
X169554039Y-77974698D01*
X169345302Y-77765961D01*
X169099853Y-77601958D01*
X168827125Y-77488990D01*
X168537599Y-77431400D01*
X168242401Y-77431400D01*
X167952875Y-77488990D01*
X167680147Y-77601958D01*
X167434698Y-77765961D01*
X167225961Y-77974698D01*
X167120000Y-78133281D01*
X167014039Y-77974698D01*
X166805302Y-77765961D01*
X166559853Y-77601958D01*
X166287125Y-77488990D01*
X165997599Y-77431400D01*
X165702401Y-77431400D01*
X165412875Y-77488990D01*
X165140147Y-77601958D01*
X164894698Y-77765961D01*
X164685961Y-77974698D01*
X164580000Y-78133281D01*
X164474039Y-77974698D01*
X164265302Y-77765961D01*
X164019853Y-77601958D01*
X163747125Y-77488990D01*
X163457599Y-77431400D01*
X163162401Y-77431400D01*
X162872875Y-77488990D01*
X162600147Y-77601958D01*
X162354698Y-77765961D01*
X162145961Y-77974698D01*
X162035441Y-78140103D01*
X161976817Y-78041512D01*
X161780293Y-77823146D01*
X161544944Y-77647316D01*
X161279814Y-77520778D01*
X161129026Y-77475042D01*
X160897000Y-77596183D01*
X160897000Y-78803000D01*
X160917000Y-78803000D01*
X160917000Y-79057000D01*
X160897000Y-79057000D01*
X160897000Y-79077000D01*
X160643000Y-79077000D01*
X160643000Y-79057000D01*
X160623000Y-79057000D01*
X160623000Y-78803000D01*
X160643000Y-78803000D01*
X160643000Y-77596183D01*
X160410974Y-77475042D01*
X160260186Y-77520778D01*
X159995056Y-77647316D01*
X159759707Y-77823146D01*
X159563183Y-78041512D01*
X159504559Y-78140103D01*
X159394039Y-77974698D01*
X159185302Y-77765961D01*
X158939853Y-77601958D01*
X158667125Y-77488990D01*
X158377599Y-77431400D01*
X158082401Y-77431400D01*
X157792875Y-77488990D01*
X157520147Y-77601958D01*
X157274698Y-77765961D01*
X157065961Y-77974698D01*
X156955441Y-78140103D01*
X156896817Y-78041512D01*
X156700293Y-77823146D01*
X156464944Y-77647316D01*
X156199814Y-77520778D01*
X156049026Y-77475042D01*
X155817000Y-77596183D01*
X155817000Y-78803000D01*
X155837000Y-78803000D01*
X155837000Y-79057000D01*
X155817000Y-79057000D01*
X155817000Y-79077000D01*
X155563000Y-79077000D01*
X155563000Y-79057000D01*
X155543000Y-79057000D01*
X155543000Y-78803000D01*
X155563000Y-78803000D01*
X155563000Y-77596183D01*
X155330974Y-77475042D01*
X155180186Y-77520778D01*
X154915056Y-77647316D01*
X154679707Y-77823146D01*
X154483183Y-78041512D01*
X154424559Y-78140103D01*
X154314039Y-77974698D01*
X154105302Y-77765961D01*
X153859853Y-77601958D01*
X153587125Y-77488990D01*
X153297599Y-77431400D01*
X153002401Y-77431400D01*
X152712875Y-77488990D01*
X152440147Y-77601958D01*
X152194698Y-77765961D01*
X151985961Y-77974698D01*
X151880000Y-78133281D01*
X151774039Y-77974698D01*
X151565302Y-77765961D01*
X151319853Y-77601958D01*
X151047125Y-77488990D01*
X150757599Y-77431400D01*
X150462401Y-77431400D01*
X150172875Y-77488990D01*
X149900147Y-77601958D01*
X149654698Y-77765961D01*
X149445961Y-77974698D01*
X149340000Y-78133281D01*
X149234039Y-77974698D01*
X149025302Y-77765961D01*
X148779853Y-77601958D01*
X148507125Y-77488990D01*
X148217599Y-77431400D01*
X147922401Y-77431400D01*
X147632875Y-77488990D01*
X147360147Y-77601958D01*
X147114698Y-77765961D01*
X146905961Y-77974698D01*
X146800000Y-78133281D01*
X146694039Y-77974698D01*
X146485302Y-77765961D01*
X146239853Y-77601958D01*
X145967125Y-77488990D01*
X145677599Y-77431400D01*
X145382401Y-77431400D01*
X145092875Y-77488990D01*
X144820147Y-77601958D01*
X144574698Y-77765961D01*
X144365961Y-77974698D01*
X144255441Y-78140103D01*
X144196817Y-78041512D01*
X144000293Y-77823146D01*
X143764944Y-77647316D01*
X143499814Y-77520778D01*
X143349026Y-77475042D01*
X143117000Y-77596183D01*
X143117000Y-78803000D01*
X143137000Y-78803000D01*
X143137000Y-79057000D01*
X143117000Y-79057000D01*
X143117000Y-79077000D01*
X142863000Y-79077000D01*
X142863000Y-79057000D01*
X142843000Y-79057000D01*
X142843000Y-78803000D01*
X142863000Y-78803000D01*
X142863000Y-77596183D01*
X142630974Y-77475042D01*
X142480186Y-77520778D01*
X142215056Y-77647316D01*
X141979707Y-77823146D01*
X141783183Y-78041512D01*
X141724559Y-78140103D01*
X141614039Y-77974698D01*
X141405302Y-77765961D01*
X141159853Y-77601958D01*
X140887125Y-77488990D01*
X140597599Y-77431400D01*
X140302401Y-77431400D01*
X140012875Y-77488990D01*
X139740147Y-77601958D01*
X139494698Y-77765961D01*
X139285961Y-77974698D01*
X139180000Y-78133281D01*
X139074039Y-77974698D01*
X138865302Y-77765961D01*
X138619853Y-77601958D01*
X138347125Y-77488990D01*
X138057599Y-77431400D01*
X137762401Y-77431400D01*
X137472875Y-77488990D01*
X137200147Y-77601958D01*
X136954698Y-77765961D01*
X136745961Y-77974698D01*
X136635441Y-78140103D01*
X136576817Y-78041512D01*
X136380293Y-77823146D01*
X136144944Y-77647316D01*
X135879814Y-77520778D01*
X135729026Y-77475042D01*
X135497000Y-77596183D01*
X135497000Y-78803000D01*
X135517000Y-78803000D01*
X135517000Y-79057000D01*
X135497000Y-79057000D01*
X135497000Y-79077000D01*
X135243000Y-79077000D01*
X135243000Y-79057000D01*
X135223000Y-79057000D01*
X135223000Y-78803000D01*
X135243000Y-78803000D01*
X135243000Y-77596183D01*
X135010974Y-77475042D01*
X134860186Y-77520778D01*
X134595056Y-77647316D01*
X134359707Y-77823146D01*
X134163183Y-78041512D01*
X134104559Y-78140103D01*
X133994039Y-77974698D01*
X133785302Y-77765961D01*
X133539853Y-77601958D01*
X133267125Y-77488990D01*
X132977599Y-77431400D01*
X132682401Y-77431400D01*
X132392875Y-77488990D01*
X132120147Y-77601958D01*
X131874698Y-77765961D01*
X131665961Y-77974698D01*
X131560000Y-78133281D01*
X131454039Y-77974698D01*
X131245302Y-77765961D01*
X130999853Y-77601958D01*
X130727125Y-77488990D01*
X130437599Y-77431400D01*
X130142401Y-77431400D01*
X129852875Y-77488990D01*
X129580147Y-77601958D01*
X129334698Y-77765961D01*
X129125961Y-77974698D01*
X129020000Y-78133281D01*
X128914039Y-77974698D01*
X128705302Y-77765961D01*
X128459853Y-77601958D01*
X128187125Y-77488990D01*
X127897599Y-77431400D01*
X127602401Y-77431400D01*
X127312875Y-77488990D01*
X127040147Y-77601958D01*
X126794698Y-77765961D01*
X126585961Y-77974698D01*
X126475441Y-78140103D01*
X126416817Y-78041512D01*
X126220293Y-77823146D01*
X125984944Y-77647316D01*
X125719814Y-77520778D01*
X125569026Y-77475042D01*
X125337000Y-77596183D01*
X125337000Y-78803000D01*
X125357000Y-78803000D01*
X125357000Y-79057000D01*
X125337000Y-79057000D01*
X125337000Y-79077000D01*
X125083000Y-79077000D01*
X125083000Y-79057000D01*
X125063000Y-79057000D01*
X125063000Y-78803000D01*
X125083000Y-78803000D01*
X125083000Y-77596183D01*
X124850974Y-77475042D01*
X124700186Y-77520778D01*
X124435056Y-77647316D01*
X124199707Y-77823146D01*
X124003183Y-78041512D01*
X123944559Y-78140103D01*
X123834039Y-77974698D01*
X123625302Y-77765961D01*
X123379853Y-77601958D01*
X123107125Y-77488990D01*
X122817599Y-77431400D01*
X122522401Y-77431400D01*
X122232875Y-77488990D01*
X121960147Y-77601958D01*
X121714698Y-77765961D01*
X121505961Y-77974698D01*
X121400000Y-78133281D01*
X121294039Y-77974698D01*
X121085302Y-77765961D01*
X120839853Y-77601958D01*
X120567125Y-77488990D01*
X120277599Y-77431400D01*
X119982401Y-77431400D01*
X119692875Y-77488990D01*
X119420147Y-77601958D01*
X119174698Y-77765961D01*
X118965961Y-77974698D01*
X118801958Y-78220147D01*
X118688990Y-78492875D01*
X118631400Y-78782401D01*
X118631400Y-79077599D01*
X118688990Y-79367125D01*
X118801958Y-79639853D01*
X118965961Y-79885302D01*
X119080023Y-79999364D01*
X119022220Y-80016898D01*
X118911906Y-80075863D01*
X118815215Y-80155215D01*
X118735863Y-80251906D01*
X118676898Y-80362220D01*
X118640588Y-80481918D01*
X118628328Y-80606400D01*
X118469382Y-80606400D01*
X118487000Y-80517832D01*
X118487000Y-79882168D01*
X118362988Y-79258719D01*
X118119730Y-78671442D01*
X117766575Y-78142907D01*
X117317093Y-77693425D01*
X116855501Y-77385000D01*
X171664499Y-77385000D01*
X171202907Y-77693425D01*
G04 #@! TA.AperFunction,Conductor*
D20*
G36*
X171202907Y-77693425D02*
G01*
X170753425Y-78142907D01*
X170400270Y-78671442D01*
X170157012Y-79258719D01*
X170033000Y-79882168D01*
X170033000Y-80517832D01*
X170157012Y-81141281D01*
X170400270Y-81728558D01*
X170753425Y-82257093D01*
X171202907Y-82706575D01*
X171731442Y-83059730D01*
X172318719Y-83302988D01*
X172942168Y-83427000D01*
X173577832Y-83427000D01*
X174201281Y-83302988D01*
X174788558Y-83059730D01*
X175317093Y-82706575D01*
X175766575Y-82257093D01*
X176075000Y-81795501D01*
X176075001Y-127604500D01*
X175766575Y-127142907D01*
X175317093Y-126693425D01*
X174788558Y-126340270D01*
X174201281Y-126097012D01*
X173577832Y-125973000D01*
X172942168Y-125973000D01*
X172318719Y-126097012D01*
X171731442Y-126340270D01*
X171202907Y-126693425D01*
X170753425Y-127142907D01*
X170400270Y-127671442D01*
X170157012Y-128258719D01*
X170033000Y-128882168D01*
X170033000Y-129517832D01*
X170157012Y-130141281D01*
X170400270Y-130728558D01*
X170753425Y-131257093D01*
X171202907Y-131706575D01*
X171664499Y-132015000D01*
X116855501Y-132015000D01*
X117317093Y-131706575D01*
X117766575Y-131257093D01*
X118119730Y-130728558D01*
X118362988Y-130141281D01*
X118487000Y-129517832D01*
X118487000Y-128882168D01*
X118362988Y-128258719D01*
X118119730Y-127671442D01*
X117766575Y-127142907D01*
X117317093Y-126693425D01*
X116788558Y-126340270D01*
X116201281Y-126097012D01*
X115577832Y-125973000D01*
X114942168Y-125973000D01*
X114318719Y-126097012D01*
X113731442Y-126340270D01*
X113202907Y-126693425D01*
X112753425Y-127142907D01*
X112445000Y-127604499D01*
X112445000Y-114233505D01*
X112454222Y-114139453D01*
X112471805Y-114081214D01*
X112500366Y-114027499D01*
X112538816Y-113980354D01*
X112585691Y-113941576D01*
X112639204Y-113912642D01*
X112697323Y-113894651D01*
X112789145Y-113885000D01*
X115793647Y-113885000D01*
X115822955Y-113882113D01*
X115829066Y-113882156D01*
X115838585Y-113881223D01*
X116032682Y-113860822D01*
X116093496Y-113848339D01*
X116154481Y-113836705D01*
X116163637Y-113833941D01*
X116350075Y-113776229D01*
X116407279Y-113752182D01*
X116464873Y-113728913D01*
X116473317Y-113724423D01*
X116580713Y-113666354D01*
X155075000Y-113666354D01*
X155075001Y-128733647D01*
X155078366Y-128767812D01*
X155078366Y-128780806D01*
X155079366Y-128790318D01*
X155101121Y-128984268D01*
X155114025Y-129044976D01*
X155126089Y-129105901D01*
X155128917Y-129115038D01*
X155187930Y-129301068D01*
X155212377Y-129358105D01*
X155236046Y-129415531D01*
X155240595Y-129423944D01*
X155334617Y-129594969D01*
X155369692Y-129646194D01*
X155404050Y-129697906D01*
X155410146Y-129705276D01*
X155535596Y-129854782D01*
X155579974Y-129898240D01*
X155623703Y-129942275D01*
X155631109Y-129948315D01*
X155631113Y-129948319D01*
X155631115Y-129948320D01*
X155783214Y-130070611D01*
X155835139Y-130104589D01*
X155886632Y-130139322D01*
X155895077Y-130143812D01*
X156068033Y-130234232D01*
X156125590Y-130257487D01*
X156182835Y-130281550D01*
X156191991Y-130284315D01*
X156379217Y-130339418D01*
X156440218Y-130351054D01*
X156501015Y-130363534D01*
X156510533Y-130364468D01*
X156704895Y-130382157D01*
X156766986Y-130381723D01*
X156829066Y-130382156D01*
X156838585Y-130381223D01*
X157032682Y-130360822D01*
X157093496Y-130348339D01*
X157154481Y-130336705D01*
X157163637Y-130333941D01*
X157350075Y-130276229D01*
X157407279Y-130252182D01*
X157464873Y-130228913D01*
X157473317Y-130224423D01*
X157644994Y-130131598D01*
X157696468Y-130096878D01*
X157748418Y-130062883D01*
X157755829Y-130056839D01*
X157906207Y-129932435D01*
X157949973Y-129888362D01*
X157994311Y-129844943D01*
X158000408Y-129837574D01*
X158123758Y-129686332D01*
X158158126Y-129634603D01*
X158193191Y-129583392D01*
X158197739Y-129574981D01*
X158197740Y-129574980D01*
X158197742Y-129574976D01*
X158289366Y-129402657D01*
X158313022Y-129345261D01*
X158337482Y-129288193D01*
X158340310Y-129279056D01*
X158396719Y-129092220D01*
X158408780Y-129031310D01*
X158421686Y-128970591D01*
X158422686Y-128961079D01*
X158441731Y-128766845D01*
X158441731Y-128766837D01*
X158445000Y-128733647D01*
X158445000Y-113666353D01*
X158441633Y-113632169D01*
X158441633Y-113619193D01*
X158440634Y-113609681D01*
X158418879Y-113415732D01*
X158405975Y-113355024D01*
X158393911Y-113294099D01*
X158391083Y-113284962D01*
X158332070Y-113098932D01*
X158307618Y-113041882D01*
X158283954Y-112984470D01*
X158279405Y-112976056D01*
X158185383Y-112805031D01*
X158150310Y-112753809D01*
X158115951Y-112702094D01*
X158109854Y-112694724D01*
X157984404Y-112545218D01*
X157940046Y-112501779D01*
X157896297Y-112457724D01*
X157888885Y-112451679D01*
X157736785Y-112329389D01*
X157684845Y-112295401D01*
X157633367Y-112260678D01*
X157624923Y-112256187D01*
X157451967Y-112165768D01*
X157394410Y-112142513D01*
X157337165Y-112118450D01*
X157328009Y-112115685D01*
X157140783Y-112060582D01*
X157079775Y-112048945D01*
X157018985Y-112036466D01*
X157009466Y-112035532D01*
X156815105Y-112017843D01*
X156752981Y-112018277D01*
X156690933Y-112017844D01*
X156681426Y-112018776D01*
X156681419Y-112018776D01*
X156681413Y-112018777D01*
X156487318Y-112039178D01*
X156426504Y-112051661D01*
X156365519Y-112063295D01*
X156356363Y-112066059D01*
X156169925Y-112123771D01*
X156112692Y-112147830D01*
X156055127Y-112171087D01*
X156046682Y-112175577D01*
X155875006Y-112268402D01*
X155823532Y-112303122D01*
X155771582Y-112337117D01*
X155764170Y-112343162D01*
X155613793Y-112467565D01*
X155570027Y-112511638D01*
X155525689Y-112555057D01*
X155519592Y-112562426D01*
X155396242Y-112713668D01*
X155361881Y-112765386D01*
X155326809Y-112816607D01*
X155322260Y-112825020D01*
X155230635Y-112997343D01*
X155206978Y-113054739D01*
X155182519Y-113111807D01*
X155179690Y-113120943D01*
X155123281Y-113307780D01*
X155111219Y-113368698D01*
X155098314Y-113429410D01*
X155097314Y-113438922D01*
X155078269Y-113633155D01*
X155078269Y-113633164D01*
X155075000Y-113666354D01*
X116580713Y-113666354D01*
X116644994Y-113631598D01*
X116696468Y-113596878D01*
X116748418Y-113562883D01*
X116755829Y-113556839D01*
X116906207Y-113432435D01*
X116949973Y-113388362D01*
X116994311Y-113344943D01*
X117000408Y-113337574D01*
X117123758Y-113186332D01*
X117158126Y-113134603D01*
X117193191Y-113083392D01*
X117197739Y-113074981D01*
X117197740Y-113074980D01*
X117197742Y-113074976D01*
X117289366Y-112902657D01*
X117313022Y-112845261D01*
X117337482Y-112788193D01*
X117340310Y-112779056D01*
X117396719Y-112592220D01*
X117408780Y-112531310D01*
X117421686Y-112470591D01*
X117422686Y-112461079D01*
X117441731Y-112266845D01*
X117441731Y-112266837D01*
X117445000Y-112233647D01*
X117445000Y-97166353D01*
X117442113Y-97137045D01*
X117442156Y-97130933D01*
X117441223Y-97121415D01*
X117420822Y-96927318D01*
X117408339Y-96866504D01*
X117396705Y-96805519D01*
X117393941Y-96796363D01*
X117336229Y-96609925D01*
X117312170Y-96552692D01*
X117288913Y-96495127D01*
X117284423Y-96486682D01*
X117191598Y-96315006D01*
X117156878Y-96263532D01*
X117122883Y-96211582D01*
X117116838Y-96204170D01*
X116992435Y-96053793D01*
X116948362Y-96010027D01*
X116904943Y-95965689D01*
X116897574Y-95959592D01*
X116746332Y-95836242D01*
X116694614Y-95801881D01*
X116643393Y-95766809D01*
X116634980Y-95762260D01*
X116462657Y-95670635D01*
X116405261Y-95646978D01*
X116348193Y-95622519D01*
X116339057Y-95619690D01*
X116152220Y-95563281D01*
X116091302Y-95551219D01*
X116030590Y-95538314D01*
X116021078Y-95537314D01*
X115826845Y-95518269D01*
X115826837Y-95518269D01*
X115793647Y-95515000D01*
X112793505Y-95515000D01*
X112699454Y-95505778D01*
X112641213Y-95488194D01*
X112587500Y-95459635D01*
X112540354Y-95421183D01*
X112501577Y-95374310D01*
X112472642Y-95320796D01*
X112454651Y-95262677D01*
X112445000Y-95170855D01*
X112445000Y-81795501D01*
X112753425Y-82257093D01*
X113202907Y-82706575D01*
X113731442Y-83059730D01*
X114318719Y-83302988D01*
X114942168Y-83427000D01*
X115577832Y-83427000D01*
X116201281Y-83302988D01*
X116788558Y-83059730D01*
X117317093Y-82706575D01*
X117766575Y-82257093D01*
X118119730Y-81728558D01*
X118362988Y-81141281D01*
X118469382Y-80606400D01*
X118628328Y-80606400D01*
X118628328Y-82333600D01*
X118640588Y-82458082D01*
X118676898Y-82577780D01*
X118735863Y-82688094D01*
X118815215Y-82784785D01*
X118911906Y-82864137D01*
X119022220Y-82923102D01*
X119141918Y-82959412D01*
X119266400Y-82971672D01*
X119295000Y-82971672D01*
X119295001Y-94751971D01*
X119290960Y-94793000D01*
X119307082Y-94956688D01*
X119354828Y-95114086D01*
X119418735Y-95233647D01*
X119432365Y-95259146D01*
X119536710Y-95386291D01*
X119568574Y-95412441D01*
X120056928Y-95900796D01*
X120056928Y-96033000D01*
X120073031Y-96196500D01*
X120120722Y-96353716D01*
X120198169Y-96498608D01*
X120260000Y-96573949D01*
X120260000Y-96720051D01*
X120198169Y-96795392D01*
X120120722Y-96940284D01*
X120073031Y-97097500D01*
X120056928Y-97261000D01*
X120056928Y-97811000D01*
X120073031Y-97974500D01*
X120120722Y-98131716D01*
X120198169Y-98276608D01*
X120260001Y-98351950D01*
X120260001Y-100733972D01*
X120255960Y-100775000D01*
X120272082Y-100938688D01*
X120319828Y-101096086D01*
X120319829Y-101096087D01*
X120397365Y-101241146D01*
X120431928Y-101283261D01*
X120431928Y-102450000D01*
X120444188Y-102574482D01*
X120480498Y-102694180D01*
X120539463Y-102804494D01*
X120618815Y-102901185D01*
X120715506Y-102980537D01*
X120825820Y-103039502D01*
X120898380Y-103061513D01*
X120766525Y-103193368D01*
X120604010Y-103436589D01*
X120492068Y-103706842D01*
X120435000Y-103993740D01*
X120435000Y-104286260D01*
X120492068Y-104573158D01*
X120604010Y-104843411D01*
X120766525Y-105086632D01*
X120973368Y-105293475D01*
X121147760Y-105410000D01*
X120973368Y-105526525D01*
X120766525Y-105733368D01*
X120604010Y-105976589D01*
X120492068Y-106246842D01*
X120435000Y-106533740D01*
X120435000Y-106826260D01*
X120492068Y-107113158D01*
X120604010Y-107383411D01*
X120766525Y-107626632D01*
X120973368Y-107833475D01*
X121216589Y-107995990D01*
X121486842Y-108107932D01*
X121773740Y-108165000D01*
X122066260Y-108165000D01*
X122353158Y-108107932D01*
X122623411Y-107995990D01*
X122866632Y-107833475D01*
X123073475Y-107626632D01*
X123124678Y-107550000D01*
X127806928Y-107550000D01*
X127819188Y-107674482D01*
X127855498Y-107794180D01*
X127914463Y-107904494D01*
X127993815Y-108001185D01*
X128090506Y-108080537D01*
X128200820Y-108139502D01*
X128320518Y-108175812D01*
X128445000Y-108188072D01*
X129254250Y-108185000D01*
X129413000Y-108026250D01*
X129413000Y-106807000D01*
X129667000Y-106807000D01*
X129667000Y-108026250D01*
X129825750Y-108185000D01*
X130635000Y-108188072D01*
X130759482Y-108175812D01*
X130879180Y-108139502D01*
X130989494Y-108080537D01*
X131086185Y-108001185D01*
X131165537Y-107904494D01*
X131224502Y-107794180D01*
X131260812Y-107674482D01*
X131273072Y-107550000D01*
X140506928Y-107550000D01*
X140519188Y-107674482D01*
X140555498Y-107794180D01*
X140614463Y-107904494D01*
X140693815Y-108001185D01*
X140790506Y-108080537D01*
X140900820Y-108139502D01*
X141020518Y-108175812D01*
X141145000Y-108188072D01*
X141954250Y-108185000D01*
X142113000Y-108026250D01*
X142113000Y-106807000D01*
X142367000Y-106807000D01*
X142367000Y-108026250D01*
X142525750Y-108185000D01*
X143335000Y-108188072D01*
X143459482Y-108175812D01*
X143579180Y-108139502D01*
X143689494Y-108080537D01*
X143786185Y-108001185D01*
X143865537Y-107904494D01*
X143924502Y-107794180D01*
X143960812Y-107674482D01*
X143973072Y-107550000D01*
X153206928Y-107550000D01*
X153219188Y-107674482D01*
X153255498Y-107794180D01*
X153314463Y-107904494D01*
X153393815Y-108001185D01*
X153490506Y-108080537D01*
X153600820Y-108139502D01*
X153720518Y-108175812D01*
X153845000Y-108188072D01*
X154654250Y-108185000D01*
X154813000Y-108026250D01*
X154813000Y-106807000D01*
X155067000Y-106807000D01*
X155067000Y-108026250D01*
X155225750Y-108185000D01*
X156035000Y-108188072D01*
X156159482Y-108175812D01*
X156279180Y-108139502D01*
X156389494Y-108080537D01*
X156486185Y-108001185D01*
X156565537Y-107904494D01*
X156624502Y-107794180D01*
X156660812Y-107674482D01*
X156673072Y-107550000D01*
X165906928Y-107550000D01*
X165919188Y-107674482D01*
X165955498Y-107794180D01*
X166014463Y-107904494D01*
X166093815Y-108001185D01*
X166190506Y-108080537D01*
X166300820Y-108139502D01*
X166420518Y-108175812D01*
X166545000Y-108188072D01*
X167354250Y-108185000D01*
X167513000Y-108026250D01*
X167513000Y-106807000D01*
X167767000Y-106807000D01*
X167767000Y-108026250D01*
X167925750Y-108185000D01*
X168735000Y-108188072D01*
X168859482Y-108175812D01*
X168979180Y-108139502D01*
X169089494Y-108080537D01*
X169186185Y-108001185D01*
X169265537Y-107904494D01*
X169324502Y-107794180D01*
X169360812Y-107674482D01*
X169373072Y-107550000D01*
X169370000Y-106965750D01*
X169211250Y-106807000D01*
X167767000Y-106807000D01*
X167513000Y-106807000D01*
X166068750Y-106807000D01*
X165910000Y-106965750D01*
X165906928Y-107550000D01*
X156673072Y-107550000D01*
X156670000Y-106965750D01*
X156511250Y-106807000D01*
X155067000Y-106807000D01*
X154813000Y-106807000D01*
X153368750Y-106807000D01*
X153210000Y-106965750D01*
X153206928Y-107550000D01*
X143973072Y-107550000D01*
X143970000Y-106965750D01*
X143811250Y-106807000D01*
X142367000Y-106807000D01*
X142113000Y-106807000D01*
X140668750Y-106807000D01*
X140510000Y-106965750D01*
X140506928Y-107550000D01*
X131273072Y-107550000D01*
X131270000Y-106965750D01*
X131111250Y-106807000D01*
X129667000Y-106807000D01*
X129413000Y-106807000D01*
X127968750Y-106807000D01*
X127810000Y-106965750D01*
X127806928Y-107550000D01*
X123124678Y-107550000D01*
X123235990Y-107383411D01*
X123347932Y-107113158D01*
X123405000Y-106826260D01*
X123405000Y-106533740D01*
X123347932Y-106246842D01*
X123235990Y-105976589D01*
X123073475Y-105733368D01*
X122866632Y-105526525D01*
X122692240Y-105410000D01*
X122866632Y-105293475D01*
X123073475Y-105086632D01*
X123235990Y-104843411D01*
X123347932Y-104573158D01*
X123405000Y-104286260D01*
X123405000Y-103993740D01*
X123347932Y-103706842D01*
X123235990Y-103436589D01*
X123073475Y-103193368D01*
X122941620Y-103061513D01*
X123014180Y-103039502D01*
X123124494Y-102980537D01*
X123221185Y-102901185D01*
X123300537Y-102804494D01*
X123359502Y-102694180D01*
X123395812Y-102574482D01*
X123408072Y-102450000D01*
X123408072Y-100750000D01*
X123395812Y-100625518D01*
X123359502Y-100505820D01*
X123300537Y-100395506D01*
X123221185Y-100298815D01*
X123124494Y-100219463D01*
X123014180Y-100160498D01*
X122894482Y-100124188D01*
X122770000Y-100111928D01*
X121930000Y-100111928D01*
X121930000Y-98376319D01*
X121952394Y-98403606D01*
X122079392Y-98507831D01*
X122224284Y-98585278D01*
X122381500Y-98632969D01*
X122545000Y-98649072D01*
X122945000Y-98649072D01*
X123108500Y-98632969D01*
X123265716Y-98585278D01*
X123410608Y-98507831D01*
X123537606Y-98403606D01*
X123564365Y-98371000D01*
X125130133Y-98371000D01*
X127885848Y-101126717D01*
X127831776Y-101304968D01*
X127802718Y-101600000D01*
X127831776Y-101895032D01*
X127917834Y-102178725D01*
X128057583Y-102440179D01*
X128245655Y-102669345D01*
X128474821Y-102857417D01*
X128498362Y-102870000D01*
X128474821Y-102882583D01*
X128245655Y-103070655D01*
X128057583Y-103299821D01*
X127917834Y-103561275D01*
X127831776Y-103844968D01*
X127802718Y-104140000D01*
X127831776Y-104435032D01*
X127917834Y-104718725D01*
X128057583Y-104980179D01*
X128244047Y-105207385D01*
X128200820Y-105220498D01*
X128090506Y-105279463D01*
X127993815Y-105358815D01*
X127914463Y-105455506D01*
X127855498Y-105565820D01*
X127819188Y-105685518D01*
X127806928Y-105810000D01*
X127810000Y-106394250D01*
X127968750Y-106553000D01*
X129413000Y-106553000D01*
X129413000Y-106533000D01*
X129667000Y-106533000D01*
X129667000Y-106553000D01*
X131111250Y-106553000D01*
X131270000Y-106394250D01*
X131273072Y-105810000D01*
X131260812Y-105685518D01*
X131224502Y-105565820D01*
X131165537Y-105455506D01*
X131086185Y-105358815D01*
X130989494Y-105279463D01*
X130879180Y-105220498D01*
X130835953Y-105207385D01*
X131022417Y-104980179D01*
X131162166Y-104718725D01*
X131248224Y-104435032D01*
X131277282Y-104140000D01*
X131248224Y-103844968D01*
X131162166Y-103561275D01*
X131022417Y-103299821D01*
X130834345Y-103070655D01*
X130605179Y-102882583D01*
X130581638Y-102870000D01*
X130605179Y-102857417D01*
X130834345Y-102669345D01*
X131022417Y-102440179D01*
X131162166Y-102178725D01*
X131248224Y-101895032D01*
X131277282Y-101600000D01*
X131248224Y-101304968D01*
X131162166Y-101021275D01*
X131022417Y-100759821D01*
X130834345Y-100530655D01*
X130605179Y-100342583D01*
X130581638Y-100330000D01*
X130605179Y-100317417D01*
X130834345Y-100129345D01*
X131022417Y-99900179D01*
X131162166Y-99638725D01*
X131248224Y-99355032D01*
X131277282Y-99060000D01*
X140502718Y-99060000D01*
X140531776Y-99355032D01*
X140617834Y-99638725D01*
X140757583Y-99900179D01*
X140945655Y-100129345D01*
X141174821Y-100317417D01*
X141198362Y-100330000D01*
X141174821Y-100342583D01*
X140945655Y-100530655D01*
X140757583Y-100759821D01*
X140617834Y-101021275D01*
X140531776Y-101304968D01*
X140502718Y-101600000D01*
X140531776Y-101895032D01*
X140617834Y-102178725D01*
X140757583Y-102440179D01*
X140945655Y-102669345D01*
X141174821Y-102857417D01*
X141198362Y-102870000D01*
X141174821Y-102882583D01*
X140945655Y-103070655D01*
X140757583Y-103299821D01*
X140617834Y-103561275D01*
X140531776Y-103844968D01*
X140502718Y-104140000D01*
X140531776Y-104435032D01*
X140617834Y-104718725D01*
X140757583Y-104980179D01*
X140944047Y-105207385D01*
X140900820Y-105220498D01*
X140790506Y-105279463D01*
X140693815Y-105358815D01*
X140614463Y-105455506D01*
X140555498Y-105565820D01*
X140519188Y-105685518D01*
X140506928Y-105810000D01*
X140510000Y-106394250D01*
X140668750Y-106553000D01*
X142113000Y-106553000D01*
X142113000Y-106533000D01*
X142367000Y-106533000D01*
X142367000Y-106553000D01*
X143811250Y-106553000D01*
X143970000Y-106394250D01*
X143973072Y-105810000D01*
X143960812Y-105685518D01*
X143924502Y-105565820D01*
X143865537Y-105455506D01*
X143786185Y-105358815D01*
X143689494Y-105279463D01*
X143579180Y-105220498D01*
X143535953Y-105207385D01*
X143722417Y-104980179D01*
X143862166Y-104718725D01*
X143948224Y-104435032D01*
X143977282Y-104140000D01*
X143948224Y-103844968D01*
X143862166Y-103561275D01*
X143722417Y-103299821D01*
X143534345Y-103070655D01*
X143305179Y-102882583D01*
X143281638Y-102870000D01*
X143305179Y-102857417D01*
X143534345Y-102669345D01*
X143722417Y-102440179D01*
X143862166Y-102178725D01*
X143948224Y-101895032D01*
X143977282Y-101600000D01*
X143948224Y-101304968D01*
X143862166Y-101021275D01*
X143722417Y-100759821D01*
X143534345Y-100530655D01*
X143305179Y-100342583D01*
X143281638Y-100330000D01*
X143305179Y-100317417D01*
X143534345Y-100129345D01*
X143722417Y-99900179D01*
X143862166Y-99638725D01*
X143948224Y-99355032D01*
X143977282Y-99060000D01*
X153202718Y-99060000D01*
X153231776Y-99355032D01*
X153317834Y-99638725D01*
X153457583Y-99900179D01*
X153645655Y-100129345D01*
X153874821Y-100317417D01*
X153898362Y-100330000D01*
X153874821Y-100342583D01*
X153645655Y-100530655D01*
X153457583Y-100759821D01*
X153317834Y-101021275D01*
X153231776Y-101304968D01*
X153202718Y-101600000D01*
X153231776Y-101895032D01*
X153317834Y-102178725D01*
X153457583Y-102440179D01*
X153645655Y-102669345D01*
X153874821Y-102857417D01*
X153898362Y-102870000D01*
X153874821Y-102882583D01*
X153645655Y-103070655D01*
X153457583Y-103299821D01*
X153317834Y-103561275D01*
X153231776Y-103844968D01*
X153202718Y-104140000D01*
X153231776Y-104435032D01*
X153317834Y-104718725D01*
X153457583Y-104980179D01*
X153644047Y-105207385D01*
X153600820Y-105220498D01*
X153490506Y-105279463D01*
X153393815Y-105358815D01*
X153314463Y-105455506D01*
X153255498Y-105565820D01*
X153219188Y-105685518D01*
X153206928Y-105810000D01*
X153210000Y-106394250D01*
X153368750Y-106553000D01*
X154813000Y-106553000D01*
X154813000Y-106533000D01*
X155067000Y-106533000D01*
X155067000Y-106553000D01*
X156511250Y-106553000D01*
X156670000Y-106394250D01*
X156673072Y-105810000D01*
X156660812Y-105685518D01*
X156624502Y-105565820D01*
X156565537Y-105455506D01*
X156486185Y-105358815D01*
X156389494Y-105279463D01*
X156279180Y-105220498D01*
X156235953Y-105207385D01*
X156422417Y-104980179D01*
X156562166Y-104718725D01*
X156648224Y-104435032D01*
X156677282Y-104140000D01*
X156648224Y-103844968D01*
X156562166Y-103561275D01*
X156422417Y-103299821D01*
X156234345Y-103070655D01*
X156005179Y-102882583D01*
X155981638Y-102870000D01*
X156005179Y-102857417D01*
X156234345Y-102669345D01*
X156422417Y-102440179D01*
X156562166Y-102178725D01*
X156648224Y-101895032D01*
X156677282Y-101600000D01*
X156648224Y-101304968D01*
X156562166Y-101021275D01*
X156422417Y-100759821D01*
X156234345Y-100530655D01*
X156005179Y-100342583D01*
X155981638Y-100330000D01*
X156005179Y-100317417D01*
X156234345Y-100129345D01*
X156422417Y-99900179D01*
X156562166Y-99638725D01*
X156648224Y-99355032D01*
X156677282Y-99060000D01*
X165902718Y-99060000D01*
X165931776Y-99355032D01*
X166017834Y-99638725D01*
X166157583Y-99900179D01*
X166345655Y-100129345D01*
X166574821Y-100317417D01*
X166598362Y-100330000D01*
X166574821Y-100342583D01*
X166345655Y-100530655D01*
X166157583Y-100759821D01*
X166017834Y-101021275D01*
X165931776Y-101304968D01*
X165902718Y-101600000D01*
X165931776Y-101895032D01*
X166017834Y-102178725D01*
X166157583Y-102440179D01*
X166345655Y-102669345D01*
X166574821Y-102857417D01*
X166598362Y-102870000D01*
X166574821Y-102882583D01*
X166345655Y-103070655D01*
X166157583Y-103299821D01*
X166017834Y-103561275D01*
X165931776Y-103844968D01*
X165902718Y-104140000D01*
X165931776Y-104435032D01*
X166017834Y-104718725D01*
X166157583Y-104980179D01*
X166344047Y-105207385D01*
X166300820Y-105220498D01*
X166190506Y-105279463D01*
X166093815Y-105358815D01*
X166014463Y-105455506D01*
X165955498Y-105565820D01*
X165919188Y-105685518D01*
X165906928Y-105810000D01*
X165910000Y-106394250D01*
X166068750Y-106553000D01*
X167513000Y-106553000D01*
X167513000Y-106533000D01*
X167767000Y-106533000D01*
X167767000Y-106553000D01*
X169211250Y-106553000D01*
X169370000Y-106394250D01*
X169373072Y-105810000D01*
X169360812Y-105685518D01*
X169324502Y-105565820D01*
X169265537Y-105455506D01*
X169186185Y-105358815D01*
X169089494Y-105279463D01*
X168979180Y-105220498D01*
X168935953Y-105207385D01*
X169122417Y-104980179D01*
X169262166Y-104718725D01*
X169348224Y-104435032D01*
X169377282Y-104140000D01*
X169348224Y-103844968D01*
X169262166Y-103561275D01*
X169122417Y-103299821D01*
X168934345Y-103070655D01*
X168705179Y-102882583D01*
X168681638Y-102870000D01*
X168705179Y-102857417D01*
X168934345Y-102669345D01*
X169122417Y-102440179D01*
X169262166Y-102178725D01*
X169348224Y-101895032D01*
X169377282Y-101600000D01*
X169348224Y-101304968D01*
X169262166Y-101021275D01*
X169122417Y-100759821D01*
X168934345Y-100530655D01*
X168705179Y-100342583D01*
X168681638Y-100330000D01*
X168705179Y-100317417D01*
X168934345Y-100129345D01*
X169122417Y-99900179D01*
X169262166Y-99638725D01*
X169348224Y-99355032D01*
X169377282Y-99060000D01*
X169348224Y-98764968D01*
X169262166Y-98481275D01*
X169122417Y-98219821D01*
X168934345Y-97990655D01*
X168705179Y-97802583D01*
X168443725Y-97662834D01*
X168160032Y-97576776D01*
X167938936Y-97555000D01*
X167341064Y-97555000D01*
X167119968Y-97576776D01*
X166836275Y-97662834D01*
X166574821Y-97802583D01*
X166345655Y-97990655D01*
X166157583Y-98219821D01*
X166017834Y-98481275D01*
X165931776Y-98764968D01*
X165902718Y-99060000D01*
X156677282Y-99060000D01*
X156648224Y-98764968D01*
X156562166Y-98481275D01*
X156422417Y-98219821D01*
X156234345Y-97990655D01*
X156005179Y-97802583D01*
X155743725Y-97662834D01*
X155460032Y-97576776D01*
X155238936Y-97555000D01*
X154641064Y-97555000D01*
X154419968Y-97576776D01*
X154136275Y-97662834D01*
X153874821Y-97802583D01*
X153645655Y-97990655D01*
X153457583Y-98219821D01*
X153317834Y-98481275D01*
X153231776Y-98764968D01*
X153202718Y-99060000D01*
X143977282Y-99060000D01*
X143948224Y-98764968D01*
X143862166Y-98481275D01*
X143722417Y-98219821D01*
X143534345Y-97990655D01*
X143305179Y-97802583D01*
X143043725Y-97662834D01*
X142760032Y-97576776D01*
X142538936Y-97555000D01*
X141941064Y-97555000D01*
X141719968Y-97576776D01*
X141436275Y-97662834D01*
X141174821Y-97802583D01*
X140945655Y-97990655D01*
X140757583Y-98219821D01*
X140617834Y-98481275D01*
X140531776Y-98764968D01*
X140502718Y-99060000D01*
X131277282Y-99060000D01*
X131248224Y-98764968D01*
X131162166Y-98481275D01*
X131022417Y-98219821D01*
X130834345Y-97990655D01*
X130605179Y-97802583D01*
X130343725Y-97662834D01*
X130060032Y-97576776D01*
X129838936Y-97555000D01*
X129241064Y-97555000D01*
X129218127Y-97557259D01*
X126857446Y-95196579D01*
X126831291Y-95164709D01*
X126704146Y-95060364D01*
X126559087Y-94982828D01*
X126401689Y-94935082D01*
X126279019Y-94923000D01*
X126279018Y-94923000D01*
X126238000Y-94918960D01*
X126196982Y-94923000D01*
X123564365Y-94923000D01*
X123537606Y-94890394D01*
X123505000Y-94863635D01*
X123505000Y-92917731D01*
X123610000Y-92928072D01*
X125310000Y-92928072D01*
X125434482Y-92915812D01*
X125554180Y-92879502D01*
X125664494Y-92820537D01*
X125761185Y-92741185D01*
X125840537Y-92644494D01*
X125899502Y-92534180D01*
X125921513Y-92461620D01*
X126053368Y-92593475D01*
X126296589Y-92755990D01*
X126566842Y-92867932D01*
X126853740Y-92925000D01*
X127146260Y-92925000D01*
X127433158Y-92867932D01*
X127703411Y-92755990D01*
X127946632Y-92593475D01*
X128153475Y-92386632D01*
X128275195Y-92204466D01*
X128344822Y-92321355D01*
X128539731Y-92537588D01*
X128773080Y-92711641D01*
X129035901Y-92836825D01*
X129183110Y-92881476D01*
X129413000Y-92760155D01*
X129413000Y-91567000D01*
X129667000Y-91567000D01*
X129667000Y-92760155D01*
X129896890Y-92881476D01*
X130044099Y-92836825D01*
X130306920Y-92711641D01*
X130489557Y-92575413D01*
X137324192Y-92575413D01*
X137419956Y-92839814D01*
X137709571Y-92980704D01*
X138021108Y-93062384D01*
X138342595Y-93081718D01*
X138661675Y-93037961D01*
X138966088Y-92932795D01*
X139140044Y-92839814D01*
X139235808Y-92575413D01*
X143824192Y-92575413D01*
X143919956Y-92839814D01*
X144209571Y-92980704D01*
X144521108Y-93062384D01*
X144842595Y-93081718D01*
X145161675Y-93037961D01*
X145466088Y-92932795D01*
X145640044Y-92839814D01*
X145735808Y-92575413D01*
X144780000Y-91619605D01*
X143824192Y-92575413D01*
X139235808Y-92575413D01*
X138280000Y-91619605D01*
X137324192Y-92575413D01*
X130489557Y-92575413D01*
X130540269Y-92537588D01*
X130735178Y-92321355D01*
X130884157Y-92071252D01*
X130981481Y-91796891D01*
X130860814Y-91567000D01*
X129667000Y-91567000D01*
X129413000Y-91567000D01*
X129393000Y-91567000D01*
X129393000Y-91502595D01*
X136638282Y-91502595D01*
X136682039Y-91821675D01*
X136787205Y-92126088D01*
X136880186Y-92300044D01*
X137144587Y-92395808D01*
X138100395Y-91440000D01*
X138459605Y-91440000D01*
X139415413Y-92395808D01*
X139679814Y-92300044D01*
X139820704Y-92010429D01*
X139902384Y-91698892D01*
X139914189Y-91502595D01*
X143138282Y-91502595D01*
X143182039Y-91821675D01*
X143287205Y-92126088D01*
X143380186Y-92300044D01*
X143644587Y-92395808D01*
X144600395Y-91440000D01*
X144959605Y-91440000D01*
X145915413Y-92395808D01*
X146179814Y-92300044D01*
X146320704Y-92010429D01*
X146402384Y-91698892D01*
X146421718Y-91377405D01*
X146377961Y-91058325D01*
X146272795Y-90753912D01*
X146179814Y-90579956D01*
X145915413Y-90484192D01*
X144959605Y-91440000D01*
X144600395Y-91440000D01*
X143644587Y-90484192D01*
X143380186Y-90579956D01*
X143239296Y-90869571D01*
X143157616Y-91181108D01*
X143138282Y-91502595D01*
X139914189Y-91502595D01*
X139921718Y-91377405D01*
X139877961Y-91058325D01*
X139772795Y-90753912D01*
X139679814Y-90579956D01*
X139415413Y-90484192D01*
X138459605Y-91440000D01*
X138100395Y-91440000D01*
X137144587Y-90484192D01*
X136880186Y-90579956D01*
X136739296Y-90869571D01*
X136657616Y-91181108D01*
X136638282Y-91502595D01*
X129393000Y-91502595D01*
X129393000Y-91313000D01*
X129413000Y-91313000D01*
X129413000Y-90119845D01*
X129667000Y-90119845D01*
X129667000Y-91313000D01*
X130860814Y-91313000D01*
X130981481Y-91083109D01*
X130884157Y-90808748D01*
X130735178Y-90558645D01*
X130540269Y-90342412D01*
X130489558Y-90304587D01*
X137324192Y-90304587D01*
X138280000Y-91260395D01*
X139235808Y-90304587D01*
X143824192Y-90304587D01*
X144780000Y-91260395D01*
X145735808Y-90304587D01*
X145640044Y-90040186D01*
X145350429Y-89899296D01*
X145038892Y-89817616D01*
X144717405Y-89798282D01*
X144398325Y-89842039D01*
X144093912Y-89947205D01*
X143919956Y-90040186D01*
X143824192Y-90304587D01*
X139235808Y-90304587D01*
X139140044Y-90040186D01*
X138850429Y-89899296D01*
X138538892Y-89817616D01*
X138217405Y-89798282D01*
X137898325Y-89842039D01*
X137593912Y-89947205D01*
X137419956Y-90040186D01*
X137324192Y-90304587D01*
X130489558Y-90304587D01*
X130306920Y-90168359D01*
X130044099Y-90043175D01*
X129896890Y-89998524D01*
X129667000Y-90119845D01*
X129413000Y-90119845D01*
X129183110Y-89998524D01*
X129035901Y-90043175D01*
X128773080Y-90168359D01*
X128539731Y-90342412D01*
X128344822Y-90558645D01*
X128275195Y-90675534D01*
X128153475Y-90493368D01*
X127946632Y-90286525D01*
X127703411Y-90124010D01*
X127433158Y-90012068D01*
X127252000Y-89976033D01*
X127252000Y-82885795D01*
X127312875Y-82911010D01*
X127602401Y-82968600D01*
X127897599Y-82968600D01*
X128187125Y-82911010D01*
X128459853Y-82798042D01*
X128705302Y-82634039D01*
X128914039Y-82425302D01*
X129024559Y-82259897D01*
X129083183Y-82358488D01*
X129279707Y-82576854D01*
X129515056Y-82752684D01*
X129780186Y-82879222D01*
X129930974Y-82924958D01*
X130163000Y-82803817D01*
X130163000Y-81597000D01*
X130143000Y-81597000D01*
X130143000Y-81343000D01*
X130163000Y-81343000D01*
X130163000Y-81323000D01*
X130417000Y-81323000D01*
X130417000Y-81343000D01*
X130437000Y-81343000D01*
X130437000Y-81597000D01*
X130417000Y-81597000D01*
X130417000Y-82803817D01*
X130649026Y-82924958D01*
X130799814Y-82879222D01*
X131064944Y-82752684D01*
X131300293Y-82576854D01*
X131496817Y-82358488D01*
X131555441Y-82259897D01*
X131665961Y-82425302D01*
X131874698Y-82634039D01*
X132120147Y-82798042D01*
X132392875Y-82911010D01*
X132682401Y-82968600D01*
X132977599Y-82968600D01*
X133119506Y-82940373D01*
X136696946Y-86517815D01*
X136645000Y-86778967D01*
X136645000Y-87101033D01*
X136707832Y-87416912D01*
X136831082Y-87714463D01*
X137010013Y-87982252D01*
X137237748Y-88209987D01*
X137505537Y-88388918D01*
X137803088Y-88512168D01*
X138118967Y-88575000D01*
X138441033Y-88575000D01*
X138756912Y-88512168D01*
X139054463Y-88388918D01*
X139322252Y-88209987D01*
X139549987Y-87982252D01*
X139688468Y-87775000D01*
X143371532Y-87775000D01*
X143510013Y-87982252D01*
X143737748Y-88209987D01*
X144005537Y-88388918D01*
X144303088Y-88512168D01*
X144618967Y-88575000D01*
X144941033Y-88575000D01*
X145256912Y-88512168D01*
X145554463Y-88388918D01*
X145822252Y-88209987D01*
X146049987Y-87982252D01*
X146228918Y-87714463D01*
X146352168Y-87416912D01*
X146415000Y-87101033D01*
X146415000Y-86778967D01*
X146352168Y-86463088D01*
X146228918Y-86165537D01*
X146049987Y-85897748D01*
X145822252Y-85670013D01*
X145554463Y-85491082D01*
X145256912Y-85367832D01*
X144941033Y-85305000D01*
X144618967Y-85305000D01*
X144303088Y-85367832D01*
X144005537Y-85491082D01*
X143737748Y-85670013D01*
X143510013Y-85897748D01*
X143371532Y-86105000D01*
X139688468Y-86105000D01*
X139549987Y-85897748D01*
X139322252Y-85670013D01*
X139054463Y-85491082D01*
X138756912Y-85367832D01*
X138441033Y-85305000D01*
X138118967Y-85305000D01*
X137891178Y-85350310D01*
X135509468Y-82968600D01*
X135517599Y-82968600D01*
X135807125Y-82911010D01*
X136079853Y-82798042D01*
X136325302Y-82634039D01*
X136534039Y-82425302D01*
X136640000Y-82266719D01*
X136745961Y-82425302D01*
X136954698Y-82634039D01*
X137200147Y-82798042D01*
X137472875Y-82911010D01*
X137762401Y-82968600D01*
X138057599Y-82968600D01*
X138347125Y-82911010D01*
X138619853Y-82798042D01*
X138865302Y-82634039D01*
X139074039Y-82425302D01*
X139180000Y-82266719D01*
X139285961Y-82425302D01*
X139494698Y-82634039D01*
X139740147Y-82798042D01*
X140012875Y-82911010D01*
X140302401Y-82968600D01*
X140597599Y-82968600D01*
X140887125Y-82911010D01*
X141159853Y-82798042D01*
X141405302Y-82634039D01*
X141614039Y-82425302D01*
X141720000Y-82266719D01*
X141825961Y-82425302D01*
X142034698Y-82634039D01*
X142280147Y-82798042D01*
X142552875Y-82911010D01*
X142842401Y-82968600D01*
X143137599Y-82968600D01*
X143427125Y-82911010D01*
X143699853Y-82798042D01*
X143945302Y-82634039D01*
X144154039Y-82425302D01*
X144260000Y-82266719D01*
X144365961Y-82425302D01*
X144574698Y-82634039D01*
X144820147Y-82798042D01*
X145092875Y-82911010D01*
X145382401Y-82968600D01*
X145677599Y-82968600D01*
X145967125Y-82911010D01*
X146239853Y-82798042D01*
X146485302Y-82634039D01*
X146694039Y-82425302D01*
X146800000Y-82266719D01*
X146905961Y-82425302D01*
X147114698Y-82634039D01*
X147360147Y-82798042D01*
X147632875Y-82911010D01*
X147922401Y-82968600D01*
X148217599Y-82968600D01*
X148507125Y-82911010D01*
X148779853Y-82798042D01*
X149025302Y-82634039D01*
X149234039Y-82425302D01*
X149344559Y-82259897D01*
X149403183Y-82358488D01*
X149599707Y-82576854D01*
X149835056Y-82752684D01*
X150100186Y-82879222D01*
X150250974Y-82924958D01*
X150483000Y-82803817D01*
X150483000Y-81597000D01*
X150463000Y-81597000D01*
X150463000Y-81343000D01*
X150483000Y-81343000D01*
X150483000Y-81323000D01*
X150737000Y-81323000D01*
X150737000Y-81343000D01*
X150757000Y-81343000D01*
X150757000Y-81597000D01*
X150737000Y-81597000D01*
X150737000Y-82803817D01*
X150969026Y-82924958D01*
X151119814Y-82879222D01*
X151384944Y-82752684D01*
X151620293Y-82576854D01*
X151816817Y-82358488D01*
X151875441Y-82259897D01*
X151985961Y-82425302D01*
X152194698Y-82634039D01*
X152440147Y-82798042D01*
X152712875Y-82911010D01*
X153002401Y-82968600D01*
X153297599Y-82968600D01*
X153587125Y-82911010D01*
X153859853Y-82798042D01*
X154105302Y-82634039D01*
X154314039Y-82425302D01*
X154420000Y-82266719D01*
X154525961Y-82425302D01*
X154734698Y-82634039D01*
X154930001Y-82764535D01*
X154930000Y-85265681D01*
X154907606Y-85238394D01*
X154780608Y-85134169D01*
X154635716Y-85056722D01*
X154478500Y-85009031D01*
X154315000Y-84992928D01*
X153915000Y-84992928D01*
X153751500Y-85009031D01*
X153594284Y-85056722D01*
X153449392Y-85134169D01*
X153322394Y-85238394D01*
X153218169Y-85365392D01*
X153140722Y-85510284D01*
X153093031Y-85667500D01*
X153076928Y-85831000D01*
X153076928Y-86381000D01*
X153093031Y-86544500D01*
X153140722Y-86701716D01*
X153218169Y-86846608D01*
X153280000Y-86921950D01*
X153280001Y-87080233D01*
X153221329Y-87151725D01*
X153142150Y-87299858D01*
X153093392Y-87460592D01*
X153076928Y-87627750D01*
X153076928Y-88140250D01*
X153093392Y-88307408D01*
X153142150Y-88468142D01*
X153221329Y-88616275D01*
X153327885Y-88746115D01*
X153457725Y-88852671D01*
X153605858Y-88931850D01*
X153766592Y-88980608D01*
X153933750Y-88997072D01*
X154371250Y-88997072D01*
X154538408Y-88980608D01*
X154699142Y-88931850D01*
X154847275Y-88852671D01*
X154868930Y-88834900D01*
X154935506Y-88889537D01*
X155045820Y-88948502D01*
X155165518Y-88984812D01*
X155290000Y-88997072D01*
X155441750Y-88994000D01*
X155600500Y-88835250D01*
X155600500Y-88011000D01*
X155854500Y-88011000D01*
X155854500Y-88835250D01*
X156013250Y-88994000D01*
X156165000Y-88997072D01*
X156289482Y-88984812D01*
X156409180Y-88948502D01*
X156519494Y-88889537D01*
X156616185Y-88810185D01*
X156695537Y-88713494D01*
X156754502Y-88603180D01*
X156790812Y-88483482D01*
X156803072Y-88359000D01*
X156800000Y-88169750D01*
X156641250Y-88011000D01*
X155854500Y-88011000D01*
X155600500Y-88011000D01*
X155580500Y-88011000D01*
X155580500Y-87757000D01*
X155600500Y-87757000D01*
X155600500Y-87737000D01*
X155854500Y-87737000D01*
X155854500Y-87757000D01*
X156641250Y-87757000D01*
X156800000Y-87598250D01*
X156803072Y-87409000D01*
X156790812Y-87284518D01*
X156754502Y-87164820D01*
X156695537Y-87054506D01*
X156616185Y-86957815D01*
X156588925Y-86935444D01*
X156661831Y-86846608D01*
X156739278Y-86701716D01*
X156786969Y-86544500D01*
X156803072Y-86381000D01*
X156803072Y-85831000D01*
X156786969Y-85667500D01*
X156739278Y-85510284D01*
X156661831Y-85365392D01*
X156600000Y-85290051D01*
X156600000Y-82664309D01*
X156645302Y-82634039D01*
X156854039Y-82425302D01*
X156960000Y-82266719D01*
X157065961Y-82425302D01*
X157274698Y-82634039D01*
X157520147Y-82798042D01*
X157792875Y-82911010D01*
X158082401Y-82968600D01*
X158377599Y-82968600D01*
X158667125Y-82911010D01*
X158939853Y-82798042D01*
X159185302Y-82634039D01*
X159394039Y-82425302D01*
X159500000Y-82266719D01*
X159605961Y-82425302D01*
X159814698Y-82634039D01*
X160060147Y-82798042D01*
X160332875Y-82911010D01*
X160622401Y-82968600D01*
X160917599Y-82968600D01*
X161207125Y-82911010D01*
X161479853Y-82798042D01*
X161725302Y-82634039D01*
X161934039Y-82425302D01*
X162040000Y-82266719D01*
X162145961Y-82425302D01*
X162354698Y-82634039D01*
X162600147Y-82798042D01*
X162872875Y-82911010D01*
X163162401Y-82968600D01*
X163457599Y-82968600D01*
X163747125Y-82911010D01*
X164019853Y-82798042D01*
X164265302Y-82634039D01*
X164474039Y-82425302D01*
X164580000Y-82266719D01*
X164685961Y-82425302D01*
X164894698Y-82634039D01*
X165140147Y-82798042D01*
X165412875Y-82911010D01*
X165702401Y-82968600D01*
X165997599Y-82968600D01*
X166287125Y-82911010D01*
X166559853Y-82798042D01*
X166805302Y-82634039D01*
X167014039Y-82425302D01*
X167124559Y-82259897D01*
X167183183Y-82358488D01*
X167379707Y-82576854D01*
X167615056Y-82752684D01*
X167880186Y-82879222D01*
X168030974Y-82924958D01*
X168263000Y-82803817D01*
X168263000Y-81597000D01*
X168517000Y-81597000D01*
X168517000Y-82803817D01*
X168749026Y-82924958D01*
X168899814Y-82879222D01*
X169164944Y-82752684D01*
X169400293Y-82576854D01*
X169596817Y-82358488D01*
X169746964Y-82105978D01*
X169844963Y-81829027D01*
X169724464Y-81597000D01*
X168517000Y-81597000D01*
X168263000Y-81597000D01*
X168243000Y-81597000D01*
X168243000Y-81343000D01*
X168263000Y-81343000D01*
X168263000Y-81323000D01*
X168517000Y-81323000D01*
X168517000Y-81343000D01*
X169724464Y-81343000D01*
X169844963Y-81110973D01*
X169746964Y-80834022D01*
X169596817Y-80581512D01*
X169400293Y-80363146D01*
X169184187Y-80201692D01*
X169345302Y-80094039D01*
X169554039Y-79885302D01*
X169718042Y-79639853D01*
X169831010Y-79367125D01*
X169888600Y-79077599D01*
X169888600Y-78782401D01*
X169831010Y-78492875D01*
X169718042Y-78220147D01*
X169554039Y-77974698D01*
X169345302Y-77765961D01*
X169099853Y-77601958D01*
X168827125Y-77488990D01*
X168537599Y-77431400D01*
X168242401Y-77431400D01*
X167952875Y-77488990D01*
X167680147Y-77601958D01*
X167434698Y-77765961D01*
X167225961Y-77974698D01*
X167120000Y-78133281D01*
X167014039Y-77974698D01*
X166805302Y-77765961D01*
X166559853Y-77601958D01*
X166287125Y-77488990D01*
X165997599Y-77431400D01*
X165702401Y-77431400D01*
X165412875Y-77488990D01*
X165140147Y-77601958D01*
X164894698Y-77765961D01*
X164685961Y-77974698D01*
X164580000Y-78133281D01*
X164474039Y-77974698D01*
X164265302Y-77765961D01*
X164019853Y-77601958D01*
X163747125Y-77488990D01*
X163457599Y-77431400D01*
X163162401Y-77431400D01*
X162872875Y-77488990D01*
X162600147Y-77601958D01*
X162354698Y-77765961D01*
X162145961Y-77974698D01*
X162035441Y-78140103D01*
X161976817Y-78041512D01*
X161780293Y-77823146D01*
X161544944Y-77647316D01*
X161279814Y-77520778D01*
X161129026Y-77475042D01*
X160897000Y-77596183D01*
X160897000Y-78803000D01*
X160917000Y-78803000D01*
X160917000Y-79057000D01*
X160897000Y-79057000D01*
X160897000Y-79077000D01*
X160643000Y-79077000D01*
X160643000Y-79057000D01*
X160623000Y-79057000D01*
X160623000Y-78803000D01*
X160643000Y-78803000D01*
X160643000Y-77596183D01*
X160410974Y-77475042D01*
X160260186Y-77520778D01*
X159995056Y-77647316D01*
X159759707Y-77823146D01*
X159563183Y-78041512D01*
X159504559Y-78140103D01*
X159394039Y-77974698D01*
X159185302Y-77765961D01*
X158939853Y-77601958D01*
X158667125Y-77488990D01*
X158377599Y-77431400D01*
X158082401Y-77431400D01*
X157792875Y-77488990D01*
X157520147Y-77601958D01*
X157274698Y-77765961D01*
X157065961Y-77974698D01*
X156955441Y-78140103D01*
X156896817Y-78041512D01*
X156700293Y-77823146D01*
X156464944Y-77647316D01*
X156199814Y-77520778D01*
X156049026Y-77475042D01*
X155817000Y-77596183D01*
X155817000Y-78803000D01*
X155837000Y-78803000D01*
X155837000Y-79057000D01*
X155817000Y-79057000D01*
X155817000Y-79077000D01*
X155563000Y-79077000D01*
X155563000Y-79057000D01*
X155543000Y-79057000D01*
X155543000Y-78803000D01*
X155563000Y-78803000D01*
X155563000Y-77596183D01*
X155330974Y-77475042D01*
X155180186Y-77520778D01*
X154915056Y-77647316D01*
X154679707Y-77823146D01*
X154483183Y-78041512D01*
X154424559Y-78140103D01*
X154314039Y-77974698D01*
X154105302Y-77765961D01*
X153859853Y-77601958D01*
X153587125Y-77488990D01*
X153297599Y-77431400D01*
X153002401Y-77431400D01*
X152712875Y-77488990D01*
X152440147Y-77601958D01*
X152194698Y-77765961D01*
X151985961Y-77974698D01*
X151880000Y-78133281D01*
X151774039Y-77974698D01*
X151565302Y-77765961D01*
X151319853Y-77601958D01*
X151047125Y-77488990D01*
X150757599Y-77431400D01*
X150462401Y-77431400D01*
X150172875Y-77488990D01*
X149900147Y-77601958D01*
X149654698Y-77765961D01*
X149445961Y-77974698D01*
X149340000Y-78133281D01*
X149234039Y-77974698D01*
X149025302Y-77765961D01*
X148779853Y-77601958D01*
X148507125Y-77488990D01*
X148217599Y-77431400D01*
X147922401Y-77431400D01*
X147632875Y-77488990D01*
X147360147Y-77601958D01*
X147114698Y-77765961D01*
X146905961Y-77974698D01*
X146800000Y-78133281D01*
X146694039Y-77974698D01*
X146485302Y-77765961D01*
X146239853Y-77601958D01*
X145967125Y-77488990D01*
X145677599Y-77431400D01*
X145382401Y-77431400D01*
X145092875Y-77488990D01*
X144820147Y-77601958D01*
X144574698Y-77765961D01*
X144365961Y-77974698D01*
X144255441Y-78140103D01*
X144196817Y-78041512D01*
X144000293Y-77823146D01*
X143764944Y-77647316D01*
X143499814Y-77520778D01*
X143349026Y-77475042D01*
X143117000Y-77596183D01*
X143117000Y-78803000D01*
X143137000Y-78803000D01*
X143137000Y-79057000D01*
X143117000Y-79057000D01*
X143117000Y-79077000D01*
X142863000Y-79077000D01*
X142863000Y-79057000D01*
X142843000Y-79057000D01*
X142843000Y-78803000D01*
X142863000Y-78803000D01*
X142863000Y-77596183D01*
X142630974Y-77475042D01*
X142480186Y-77520778D01*
X142215056Y-77647316D01*
X141979707Y-77823146D01*
X141783183Y-78041512D01*
X141724559Y-78140103D01*
X141614039Y-77974698D01*
X141405302Y-77765961D01*
X141159853Y-77601958D01*
X140887125Y-77488990D01*
X140597599Y-77431400D01*
X140302401Y-77431400D01*
X140012875Y-77488990D01*
X139740147Y-77601958D01*
X139494698Y-77765961D01*
X139285961Y-77974698D01*
X139180000Y-78133281D01*
X139074039Y-77974698D01*
X138865302Y-77765961D01*
X138619853Y-77601958D01*
X138347125Y-77488990D01*
X138057599Y-77431400D01*
X137762401Y-77431400D01*
X137472875Y-77488990D01*
X137200147Y-77601958D01*
X136954698Y-77765961D01*
X136745961Y-77974698D01*
X136635441Y-78140103D01*
X136576817Y-78041512D01*
X136380293Y-77823146D01*
X136144944Y-77647316D01*
X135879814Y-77520778D01*
X135729026Y-77475042D01*
X135497000Y-77596183D01*
X135497000Y-78803000D01*
X135517000Y-78803000D01*
X135517000Y-79057000D01*
X135497000Y-79057000D01*
X135497000Y-79077000D01*
X135243000Y-79077000D01*
X135243000Y-79057000D01*
X135223000Y-79057000D01*
X135223000Y-78803000D01*
X135243000Y-78803000D01*
X135243000Y-77596183D01*
X135010974Y-77475042D01*
X134860186Y-77520778D01*
X134595056Y-77647316D01*
X134359707Y-77823146D01*
X134163183Y-78041512D01*
X134104559Y-78140103D01*
X133994039Y-77974698D01*
X133785302Y-77765961D01*
X133539853Y-77601958D01*
X133267125Y-77488990D01*
X132977599Y-77431400D01*
X132682401Y-77431400D01*
X132392875Y-77488990D01*
X132120147Y-77601958D01*
X131874698Y-77765961D01*
X131665961Y-77974698D01*
X131560000Y-78133281D01*
X131454039Y-77974698D01*
X131245302Y-77765961D01*
X130999853Y-77601958D01*
X130727125Y-77488990D01*
X130437599Y-77431400D01*
X130142401Y-77431400D01*
X129852875Y-77488990D01*
X129580147Y-77601958D01*
X129334698Y-77765961D01*
X129125961Y-77974698D01*
X129020000Y-78133281D01*
X128914039Y-77974698D01*
X128705302Y-77765961D01*
X128459853Y-77601958D01*
X128187125Y-77488990D01*
X127897599Y-77431400D01*
X127602401Y-77431400D01*
X127312875Y-77488990D01*
X127040147Y-77601958D01*
X126794698Y-77765961D01*
X126585961Y-77974698D01*
X126475441Y-78140103D01*
X126416817Y-78041512D01*
X126220293Y-77823146D01*
X125984944Y-77647316D01*
X125719814Y-77520778D01*
X125569026Y-77475042D01*
X125337000Y-77596183D01*
X125337000Y-78803000D01*
X125357000Y-78803000D01*
X125357000Y-79057000D01*
X125337000Y-79057000D01*
X125337000Y-79077000D01*
X125083000Y-79077000D01*
X125083000Y-79057000D01*
X125063000Y-79057000D01*
X125063000Y-78803000D01*
X125083000Y-78803000D01*
X125083000Y-77596183D01*
X124850974Y-77475042D01*
X124700186Y-77520778D01*
X124435056Y-77647316D01*
X124199707Y-77823146D01*
X124003183Y-78041512D01*
X123944559Y-78140103D01*
X123834039Y-77974698D01*
X123625302Y-77765961D01*
X123379853Y-77601958D01*
X123107125Y-77488990D01*
X122817599Y-77431400D01*
X122522401Y-77431400D01*
X122232875Y-77488990D01*
X121960147Y-77601958D01*
X121714698Y-77765961D01*
X121505961Y-77974698D01*
X121400000Y-78133281D01*
X121294039Y-77974698D01*
X121085302Y-77765961D01*
X120839853Y-77601958D01*
X120567125Y-77488990D01*
X120277599Y-77431400D01*
X119982401Y-77431400D01*
X119692875Y-77488990D01*
X119420147Y-77601958D01*
X119174698Y-77765961D01*
X118965961Y-77974698D01*
X118801958Y-78220147D01*
X118688990Y-78492875D01*
X118631400Y-78782401D01*
X118631400Y-79077599D01*
X118688990Y-79367125D01*
X118801958Y-79639853D01*
X118965961Y-79885302D01*
X119080023Y-79999364D01*
X119022220Y-80016898D01*
X118911906Y-80075863D01*
X118815215Y-80155215D01*
X118735863Y-80251906D01*
X118676898Y-80362220D01*
X118640588Y-80481918D01*
X118628328Y-80606400D01*
X118469382Y-80606400D01*
X118487000Y-80517832D01*
X118487000Y-79882168D01*
X118362988Y-79258719D01*
X118119730Y-78671442D01*
X117766575Y-78142907D01*
X117317093Y-77693425D01*
X116855501Y-77385000D01*
X171664499Y-77385000D01*
X171202907Y-77693425D01*
G37*
G04 #@! TD.AperFunction*
M02*
