G04 #@! TF.GenerationSoftware,KiCad,Pcbnew,(5.1.7)-1*
G04 #@! TF.CreationDate,2021-05-12T14:55:54+08:00*
G04 #@! TF.ProjectId,pi4-breakout,7069342d-6272-4656-916b-6f75742e6b69,rev?*
G04 #@! TF.SameCoordinates,Original*
G04 #@! TF.FileFunction,Profile,NP*
%FSLAX46Y46*%
G04 Gerber Fmt 4.6, Leading zero omitted, Abs format (unit mm)*
G04 Created by KiCad (PCBNEW (5.1.7)-1) date 2021-05-12 14:55:54*
%MOMM*%
%LPD*%
G01*
G04 APERTURE LIST*
G04 #@! TA.AperFunction,Profile*
%ADD10C,0.100000*%
G04 #@! TD*
G04 APERTURE END LIST*
D10*
X176760000Y-79700000D02*
G75*
G03*
X173760000Y-76700000I-3000000J0D01*
G01*
X114760000Y-76700000D02*
X173760000Y-76700000D01*
X114760000Y-76700000D02*
G75*
G03*
X111760000Y-79700000I0J-3000000D01*
G01*
X157760000Y-128700000D02*
G75*
G02*
X155760000Y-128700000I-1000000J0D01*
G01*
X157760000Y-113700000D02*
G75*
G03*
X155760000Y-113700000I-1000000J0D01*
G01*
X157760000Y-113700000D02*
X157760000Y-128700000D01*
X155760000Y-113700000D02*
X155760000Y-128700000D01*
X112760000Y-113200000D02*
G75*
G03*
X111760000Y-114200000I0J-1000000D01*
G01*
X115760000Y-113200000D02*
G75*
G03*
X116760000Y-112200000I0J1000000D01*
G01*
X116760000Y-97200000D02*
G75*
G03*
X115760000Y-96200000I-1000000J0D01*
G01*
X111760000Y-95200000D02*
G75*
G03*
X112760000Y-96200000I1000000J0D01*
G01*
X173760000Y-132700000D02*
G75*
G03*
X176760000Y-129700000I0J3000000D01*
G01*
X111760000Y-129700000D02*
G75*
G03*
X114760000Y-132700000I3000000J0D01*
G01*
X111760000Y-114200000D02*
X111760000Y-129700000D01*
X111760000Y-79700000D02*
X111760000Y-95200000D01*
X112760000Y-113200000D02*
X115760000Y-113200000D01*
X112760000Y-96200000D02*
X115760000Y-96200000D01*
X116760000Y-97200000D02*
X116760000Y-112200000D01*
X114760000Y-132700000D02*
X173760000Y-132700000D01*
X176760000Y-79700000D02*
X176760000Y-129700000D01*
M02*
