G04 #@! TF.GenerationSoftware,KiCad,Pcbnew,(5.1.7)-1*
G04 #@! TF.CreationDate,2021-05-12T14:55:54+08:00*
G04 #@! TF.ProjectId,pi4-breakout,7069342d-6272-4656-916b-6f75742e6b69,rev?*
G04 #@! TF.SameCoordinates,Original*
G04 #@! TF.FileFunction,Legend,Top*
G04 #@! TF.FilePolarity,Positive*
%FSLAX46Y46*%
G04 Gerber Fmt 4.6, Leading zero omitted, Abs format (unit mm)*
G04 Created by KiCad (PCBNEW (5.1.7)-1) date 2021-05-12 14:55:54*
%MOMM*%
%LPD*%
G01*
G04 APERTURE LIST*
%ADD10C,0.150000*%
%ADD11C,0.153000*%
%ADD12C,0.120000*%
%ADD13C,2.000000*%
%ADD14O,1.700000X1.700000*%
%ADD15R,1.700000X1.700000*%
%ADD16O,2.190000X1.740000*%
%ADD17R,1.727200X1.727200*%
%ADD18O,1.727200X1.727200*%
%ADD19C,6.200000*%
G04 APERTURE END LIST*
D10*
X123952000Y-104140000D02*
X125730000Y-104140000D01*
X134366095Y-106180000D02*
X134270857Y-106132380D01*
X134128000Y-106132380D01*
X133985142Y-106180000D01*
X133889904Y-106275238D01*
X133842285Y-106370476D01*
X133794666Y-106560952D01*
X133794666Y-106703809D01*
X133842285Y-106894285D01*
X133889904Y-106989523D01*
X133985142Y-107084761D01*
X134128000Y-107132380D01*
X134223238Y-107132380D01*
X134366095Y-107084761D01*
X134413714Y-107037142D01*
X134413714Y-106703809D01*
X134223238Y-106703809D01*
X134842285Y-107132380D02*
X134842285Y-106132380D01*
X135413714Y-107132380D01*
X135413714Y-106132380D01*
X135889904Y-107132380D02*
X135889904Y-106132380D01*
X136128000Y-106132380D01*
X136270857Y-106180000D01*
X136366095Y-106275238D01*
X136413714Y-106370476D01*
X136461333Y-106560952D01*
X136461333Y-106703809D01*
X136413714Y-106894285D01*
X136366095Y-106989523D01*
X136270857Y-107084761D01*
X136128000Y-107132380D01*
X135889904Y-107132380D01*
X133913714Y-102004761D02*
X134056571Y-102052380D01*
X134294666Y-102052380D01*
X134389904Y-102004761D01*
X134437523Y-101957142D01*
X134485142Y-101861904D01*
X134485142Y-101766666D01*
X134437523Y-101671428D01*
X134389904Y-101623809D01*
X134294666Y-101576190D01*
X134104190Y-101528571D01*
X134008952Y-101480952D01*
X133961333Y-101433333D01*
X133913714Y-101338095D01*
X133913714Y-101242857D01*
X133961333Y-101147619D01*
X134008952Y-101100000D01*
X134104190Y-101052380D01*
X134342285Y-101052380D01*
X134485142Y-101100000D01*
X134913714Y-102052380D02*
X134913714Y-101052380D01*
X135151809Y-101052380D01*
X135294666Y-101100000D01*
X135389904Y-101195238D01*
X135437523Y-101290476D01*
X135485142Y-101480952D01*
X135485142Y-101623809D01*
X135437523Y-101814285D01*
X135389904Y-101909523D01*
X135294666Y-102004761D01*
X135151809Y-102052380D01*
X134913714Y-102052380D01*
X135866095Y-101766666D02*
X136342285Y-101766666D01*
X135770857Y-102052380D02*
X136104190Y-101052380D01*
X136437523Y-102052380D01*
X133937523Y-99464761D02*
X134080380Y-99512380D01*
X134318476Y-99512380D01*
X134413714Y-99464761D01*
X134461333Y-99417142D01*
X134508952Y-99321904D01*
X134508952Y-99226666D01*
X134461333Y-99131428D01*
X134413714Y-99083809D01*
X134318476Y-99036190D01*
X134128000Y-98988571D01*
X134032761Y-98940952D01*
X133985142Y-98893333D01*
X133937523Y-98798095D01*
X133937523Y-98702857D01*
X133985142Y-98607619D01*
X134032761Y-98560000D01*
X134128000Y-98512380D01*
X134366095Y-98512380D01*
X134508952Y-98560000D01*
X135508952Y-99417142D02*
X135461333Y-99464761D01*
X135318476Y-99512380D01*
X135223238Y-99512380D01*
X135080380Y-99464761D01*
X134985142Y-99369523D01*
X134937523Y-99274285D01*
X134889904Y-99083809D01*
X134889904Y-98940952D01*
X134937523Y-98750476D01*
X134985142Y-98655238D01*
X135080380Y-98560000D01*
X135223238Y-98512380D01*
X135318476Y-98512380D01*
X135461333Y-98560000D01*
X135508952Y-98607619D01*
X136413714Y-99512380D02*
X135937523Y-99512380D01*
X135937523Y-98512380D01*
X133794666Y-103592380D02*
X134128000Y-104592380D01*
X134461333Y-103592380D01*
X135366095Y-104497142D02*
X135318476Y-104544761D01*
X135175619Y-104592380D01*
X135080380Y-104592380D01*
X134937523Y-104544761D01*
X134842285Y-104449523D01*
X134794666Y-104354285D01*
X134747047Y-104163809D01*
X134747047Y-104020952D01*
X134794666Y-103830476D01*
X134842285Y-103735238D01*
X134937523Y-103640000D01*
X135080380Y-103592380D01*
X135175619Y-103592380D01*
X135318476Y-103640000D01*
X135366095Y-103687619D01*
X136366095Y-104497142D02*
X136318476Y-104544761D01*
X136175619Y-104592380D01*
X136080380Y-104592380D01*
X135937523Y-104544761D01*
X135842285Y-104449523D01*
X135794666Y-104354285D01*
X135747047Y-104163809D01*
X135747047Y-104020952D01*
X135794666Y-103830476D01*
X135842285Y-103735238D01*
X135937523Y-103640000D01*
X136080380Y-103592380D01*
X136175619Y-103592380D01*
X136318476Y-103640000D01*
X136366095Y-103687619D01*
X147066095Y-106180000D02*
X146970857Y-106132380D01*
X146828000Y-106132380D01*
X146685142Y-106180000D01*
X146589904Y-106275238D01*
X146542285Y-106370476D01*
X146494666Y-106560952D01*
X146494666Y-106703809D01*
X146542285Y-106894285D01*
X146589904Y-106989523D01*
X146685142Y-107084761D01*
X146828000Y-107132380D01*
X146923238Y-107132380D01*
X147066095Y-107084761D01*
X147113714Y-107037142D01*
X147113714Y-106703809D01*
X146923238Y-106703809D01*
X147542285Y-107132380D02*
X147542285Y-106132380D01*
X148113714Y-107132380D01*
X148113714Y-106132380D01*
X148589904Y-107132380D02*
X148589904Y-106132380D01*
X148828000Y-106132380D01*
X148970857Y-106180000D01*
X149066095Y-106275238D01*
X149113714Y-106370476D01*
X149161333Y-106560952D01*
X149161333Y-106703809D01*
X149113714Y-106894285D01*
X149066095Y-106989523D01*
X148970857Y-107084761D01*
X148828000Y-107132380D01*
X148589904Y-107132380D01*
X146613714Y-102004761D02*
X146756571Y-102052380D01*
X146994666Y-102052380D01*
X147089904Y-102004761D01*
X147137523Y-101957142D01*
X147185142Y-101861904D01*
X147185142Y-101766666D01*
X147137523Y-101671428D01*
X147089904Y-101623809D01*
X146994666Y-101576190D01*
X146804190Y-101528571D01*
X146708952Y-101480952D01*
X146661333Y-101433333D01*
X146613714Y-101338095D01*
X146613714Y-101242857D01*
X146661333Y-101147619D01*
X146708952Y-101100000D01*
X146804190Y-101052380D01*
X147042285Y-101052380D01*
X147185142Y-101100000D01*
X147613714Y-102052380D02*
X147613714Y-101052380D01*
X147851809Y-101052380D01*
X147994666Y-101100000D01*
X148089904Y-101195238D01*
X148137523Y-101290476D01*
X148185142Y-101480952D01*
X148185142Y-101623809D01*
X148137523Y-101814285D01*
X148089904Y-101909523D01*
X147994666Y-102004761D01*
X147851809Y-102052380D01*
X147613714Y-102052380D01*
X148566095Y-101766666D02*
X149042285Y-101766666D01*
X148470857Y-102052380D02*
X148804190Y-101052380D01*
X149137523Y-102052380D01*
X146637523Y-99464761D02*
X146780380Y-99512380D01*
X147018476Y-99512380D01*
X147113714Y-99464761D01*
X147161333Y-99417142D01*
X147208952Y-99321904D01*
X147208952Y-99226666D01*
X147161333Y-99131428D01*
X147113714Y-99083809D01*
X147018476Y-99036190D01*
X146828000Y-98988571D01*
X146732761Y-98940952D01*
X146685142Y-98893333D01*
X146637523Y-98798095D01*
X146637523Y-98702857D01*
X146685142Y-98607619D01*
X146732761Y-98560000D01*
X146828000Y-98512380D01*
X147066095Y-98512380D01*
X147208952Y-98560000D01*
X148208952Y-99417142D02*
X148161333Y-99464761D01*
X148018476Y-99512380D01*
X147923238Y-99512380D01*
X147780380Y-99464761D01*
X147685142Y-99369523D01*
X147637523Y-99274285D01*
X147589904Y-99083809D01*
X147589904Y-98940952D01*
X147637523Y-98750476D01*
X147685142Y-98655238D01*
X147780380Y-98560000D01*
X147923238Y-98512380D01*
X148018476Y-98512380D01*
X148161333Y-98560000D01*
X148208952Y-98607619D01*
X149113714Y-99512380D02*
X148637523Y-99512380D01*
X148637523Y-98512380D01*
X146494666Y-103592380D02*
X146828000Y-104592380D01*
X147161333Y-103592380D01*
X148066095Y-104497142D02*
X148018476Y-104544761D01*
X147875619Y-104592380D01*
X147780380Y-104592380D01*
X147637523Y-104544761D01*
X147542285Y-104449523D01*
X147494666Y-104354285D01*
X147447047Y-104163809D01*
X147447047Y-104020952D01*
X147494666Y-103830476D01*
X147542285Y-103735238D01*
X147637523Y-103640000D01*
X147780380Y-103592380D01*
X147875619Y-103592380D01*
X148018476Y-103640000D01*
X148066095Y-103687619D01*
X149066095Y-104497142D02*
X149018476Y-104544761D01*
X148875619Y-104592380D01*
X148780380Y-104592380D01*
X148637523Y-104544761D01*
X148542285Y-104449523D01*
X148494666Y-104354285D01*
X148447047Y-104163809D01*
X148447047Y-104020952D01*
X148494666Y-103830476D01*
X148542285Y-103735238D01*
X148637523Y-103640000D01*
X148780380Y-103592380D01*
X148875619Y-103592380D01*
X149018476Y-103640000D01*
X149066095Y-103687619D01*
X159766095Y-106180000D02*
X159670857Y-106132380D01*
X159528000Y-106132380D01*
X159385142Y-106180000D01*
X159289904Y-106275238D01*
X159242285Y-106370476D01*
X159194666Y-106560952D01*
X159194666Y-106703809D01*
X159242285Y-106894285D01*
X159289904Y-106989523D01*
X159385142Y-107084761D01*
X159528000Y-107132380D01*
X159623238Y-107132380D01*
X159766095Y-107084761D01*
X159813714Y-107037142D01*
X159813714Y-106703809D01*
X159623238Y-106703809D01*
X160242285Y-107132380D02*
X160242285Y-106132380D01*
X160813714Y-107132380D01*
X160813714Y-106132380D01*
X161289904Y-107132380D02*
X161289904Y-106132380D01*
X161528000Y-106132380D01*
X161670857Y-106180000D01*
X161766095Y-106275238D01*
X161813714Y-106370476D01*
X161861333Y-106560952D01*
X161861333Y-106703809D01*
X161813714Y-106894285D01*
X161766095Y-106989523D01*
X161670857Y-107084761D01*
X161528000Y-107132380D01*
X161289904Y-107132380D01*
X159313714Y-102004761D02*
X159456571Y-102052380D01*
X159694666Y-102052380D01*
X159789904Y-102004761D01*
X159837523Y-101957142D01*
X159885142Y-101861904D01*
X159885142Y-101766666D01*
X159837523Y-101671428D01*
X159789904Y-101623809D01*
X159694666Y-101576190D01*
X159504190Y-101528571D01*
X159408952Y-101480952D01*
X159361333Y-101433333D01*
X159313714Y-101338095D01*
X159313714Y-101242857D01*
X159361333Y-101147619D01*
X159408952Y-101100000D01*
X159504190Y-101052380D01*
X159742285Y-101052380D01*
X159885142Y-101100000D01*
X160313714Y-102052380D02*
X160313714Y-101052380D01*
X160551809Y-101052380D01*
X160694666Y-101100000D01*
X160789904Y-101195238D01*
X160837523Y-101290476D01*
X160885142Y-101480952D01*
X160885142Y-101623809D01*
X160837523Y-101814285D01*
X160789904Y-101909523D01*
X160694666Y-102004761D01*
X160551809Y-102052380D01*
X160313714Y-102052380D01*
X161266095Y-101766666D02*
X161742285Y-101766666D01*
X161170857Y-102052380D02*
X161504190Y-101052380D01*
X161837523Y-102052380D01*
X159337523Y-99464761D02*
X159480380Y-99512380D01*
X159718476Y-99512380D01*
X159813714Y-99464761D01*
X159861333Y-99417142D01*
X159908952Y-99321904D01*
X159908952Y-99226666D01*
X159861333Y-99131428D01*
X159813714Y-99083809D01*
X159718476Y-99036190D01*
X159528000Y-98988571D01*
X159432761Y-98940952D01*
X159385142Y-98893333D01*
X159337523Y-98798095D01*
X159337523Y-98702857D01*
X159385142Y-98607619D01*
X159432761Y-98560000D01*
X159528000Y-98512380D01*
X159766095Y-98512380D01*
X159908952Y-98560000D01*
X160908952Y-99417142D02*
X160861333Y-99464761D01*
X160718476Y-99512380D01*
X160623238Y-99512380D01*
X160480380Y-99464761D01*
X160385142Y-99369523D01*
X160337523Y-99274285D01*
X160289904Y-99083809D01*
X160289904Y-98940952D01*
X160337523Y-98750476D01*
X160385142Y-98655238D01*
X160480380Y-98560000D01*
X160623238Y-98512380D01*
X160718476Y-98512380D01*
X160861333Y-98560000D01*
X160908952Y-98607619D01*
X161813714Y-99512380D02*
X161337523Y-99512380D01*
X161337523Y-98512380D01*
X159194666Y-103592380D02*
X159528000Y-104592380D01*
X159861333Y-103592380D01*
X160766095Y-104497142D02*
X160718476Y-104544761D01*
X160575619Y-104592380D01*
X160480380Y-104592380D01*
X160337523Y-104544761D01*
X160242285Y-104449523D01*
X160194666Y-104354285D01*
X160147047Y-104163809D01*
X160147047Y-104020952D01*
X160194666Y-103830476D01*
X160242285Y-103735238D01*
X160337523Y-103640000D01*
X160480380Y-103592380D01*
X160575619Y-103592380D01*
X160718476Y-103640000D01*
X160766095Y-103687619D01*
X161766095Y-104497142D02*
X161718476Y-104544761D01*
X161575619Y-104592380D01*
X161480380Y-104592380D01*
X161337523Y-104544761D01*
X161242285Y-104449523D01*
X161194666Y-104354285D01*
X161147047Y-104163809D01*
X161147047Y-104020952D01*
X161194666Y-103830476D01*
X161242285Y-103735238D01*
X161337523Y-103640000D01*
X161480380Y-103592380D01*
X161575619Y-103592380D01*
X161718476Y-103640000D01*
X161766095Y-103687619D01*
X129040000Y-88391904D02*
X128992380Y-88487142D01*
X128992380Y-88630000D01*
X129040000Y-88772857D01*
X129135238Y-88868095D01*
X129230476Y-88915714D01*
X129420952Y-88963333D01*
X129563809Y-88963333D01*
X129754285Y-88915714D01*
X129849523Y-88868095D01*
X129944761Y-88772857D01*
X129992380Y-88630000D01*
X129992380Y-88534761D01*
X129944761Y-88391904D01*
X129897142Y-88344285D01*
X129563809Y-88344285D01*
X129563809Y-88534761D01*
X129992380Y-87915714D02*
X128992380Y-87915714D01*
X129992380Y-87344285D01*
X128992380Y-87344285D01*
X129992380Y-86868095D02*
X128992380Y-86868095D01*
X128992380Y-86630000D01*
X129040000Y-86487142D01*
X129135238Y-86391904D01*
X129230476Y-86344285D01*
X129420952Y-86296666D01*
X129563809Y-86296666D01*
X129754285Y-86344285D01*
X129849523Y-86391904D01*
X129944761Y-86487142D01*
X129992380Y-86630000D01*
X129992380Y-86868095D01*
X126452380Y-89145904D02*
X126452380Y-88574476D01*
X127452380Y-88860190D02*
X126452380Y-88860190D01*
X126452380Y-88336380D02*
X127452380Y-87669714D01*
X126452380Y-87669714D02*
X127452380Y-88336380D01*
X127452380Y-87288761D02*
X126452380Y-87288761D01*
X126452380Y-87050666D01*
X126500000Y-86907809D01*
X126595238Y-86812571D01*
X126690476Y-86764952D01*
X126880952Y-86717333D01*
X127023809Y-86717333D01*
X127214285Y-86764952D01*
X127309523Y-86812571D01*
X127404761Y-86907809D01*
X127452380Y-87050666D01*
X127452380Y-87288761D01*
X124912380Y-88550666D02*
X124436190Y-88884000D01*
X124912380Y-89122095D02*
X123912380Y-89122095D01*
X123912380Y-88741142D01*
X123960000Y-88645904D01*
X124007619Y-88598285D01*
X124102857Y-88550666D01*
X124245714Y-88550666D01*
X124340952Y-88598285D01*
X124388571Y-88645904D01*
X124436190Y-88741142D01*
X124436190Y-89122095D01*
X123912380Y-88217333D02*
X124912380Y-87550666D01*
X123912380Y-87550666D02*
X124912380Y-88217333D01*
X124912380Y-87169714D02*
X123912380Y-87169714D01*
X123912380Y-86931619D01*
X123960000Y-86788761D01*
X124055238Y-86693523D01*
X124150476Y-86645904D01*
X124340952Y-86598285D01*
X124483809Y-86598285D01*
X124674285Y-86645904D01*
X124769523Y-86693523D01*
X124864761Y-86788761D01*
X124912380Y-86931619D01*
X124912380Y-87169714D01*
D11*
X157673404Y-93661904D02*
X157673404Y-94042857D01*
X156873404Y-94042857D01*
X157254357Y-93395238D02*
X157254357Y-93128571D01*
X157673404Y-93014285D02*
X157673404Y-93395238D01*
X156873404Y-93395238D01*
X156873404Y-93014285D01*
X157673404Y-92671428D02*
X156873404Y-92671428D01*
X156873404Y-92480952D01*
X156911500Y-92366666D01*
X156987690Y-92290476D01*
X157063880Y-92252380D01*
X157216261Y-92214285D01*
X157330547Y-92214285D01*
X157482928Y-92252380D01*
X157559119Y-92290476D01*
X157635309Y-92366666D01*
X157673404Y-92480952D01*
X157673404Y-92671428D01*
X157635309Y-90919047D02*
X157673404Y-90995238D01*
X157673404Y-91147619D01*
X157635309Y-91223809D01*
X157597214Y-91261904D01*
X157521023Y-91300000D01*
X157292452Y-91300000D01*
X157216261Y-91261904D01*
X157178166Y-91223809D01*
X157140071Y-91147619D01*
X157140071Y-90995238D01*
X157178166Y-90919047D01*
X157673404Y-90461904D02*
X157635309Y-90538095D01*
X157597214Y-90576190D01*
X157521023Y-90614285D01*
X157292452Y-90614285D01*
X157216261Y-90576190D01*
X157178166Y-90538095D01*
X157140071Y-90461904D01*
X157140071Y-90347619D01*
X157178166Y-90271428D01*
X157216261Y-90233333D01*
X157292452Y-90195238D01*
X157521023Y-90195238D01*
X157597214Y-90233333D01*
X157635309Y-90271428D01*
X157673404Y-90347619D01*
X157673404Y-90461904D01*
X157140071Y-89852380D02*
X157673404Y-89852380D01*
X157216261Y-89852380D02*
X157178166Y-89814285D01*
X157140071Y-89738095D01*
X157140071Y-89623809D01*
X157178166Y-89547619D01*
X157254357Y-89509523D01*
X157673404Y-89509523D01*
X157140071Y-89128571D02*
X157673404Y-89128571D01*
X157216261Y-89128571D02*
X157178166Y-89090476D01*
X157140071Y-89014285D01*
X157140071Y-88900000D01*
X157178166Y-88823809D01*
X157254357Y-88785714D01*
X157673404Y-88785714D01*
X157635309Y-88100000D02*
X157673404Y-88176190D01*
X157673404Y-88328571D01*
X157635309Y-88404761D01*
X157559119Y-88442857D01*
X157254357Y-88442857D01*
X157178166Y-88404761D01*
X157140071Y-88328571D01*
X157140071Y-88176190D01*
X157178166Y-88100000D01*
X157254357Y-88061904D01*
X157330547Y-88061904D01*
X157406738Y-88442857D01*
X157635309Y-87376190D02*
X157673404Y-87452380D01*
X157673404Y-87604761D01*
X157635309Y-87680952D01*
X157597214Y-87719047D01*
X157521023Y-87757142D01*
X157292452Y-87757142D01*
X157216261Y-87719047D01*
X157178166Y-87680952D01*
X157140071Y-87604761D01*
X157140071Y-87452380D01*
X157178166Y-87376190D01*
X157140071Y-87147619D02*
X157140071Y-86842857D01*
X156873404Y-87033333D02*
X157559119Y-87033333D01*
X157635309Y-86995238D01*
X157673404Y-86919047D01*
X157673404Y-86842857D01*
X157635309Y-86271428D02*
X157673404Y-86347619D01*
X157673404Y-86500000D01*
X157635309Y-86576190D01*
X157559119Y-86614285D01*
X157254357Y-86614285D01*
X157178166Y-86576190D01*
X157140071Y-86500000D01*
X157140071Y-86347619D01*
X157178166Y-86271428D01*
X157254357Y-86233333D01*
X157330547Y-86233333D01*
X157406738Y-86614285D01*
X157673404Y-85547619D02*
X156873404Y-85547619D01*
X157635309Y-85547619D02*
X157673404Y-85623809D01*
X157673404Y-85776190D01*
X157635309Y-85852380D01*
X157597214Y-85890476D01*
X157521023Y-85928571D01*
X157292452Y-85928571D01*
X157216261Y-85890476D01*
X157178166Y-85852380D01*
X157140071Y-85776190D01*
X157140071Y-85623809D01*
X157178166Y-85547619D01*
X157140071Y-84671428D02*
X157140071Y-84366666D01*
X156873404Y-84557142D02*
X157559119Y-84557142D01*
X157635309Y-84519047D01*
X157673404Y-84442857D01*
X157673404Y-84366666D01*
X157673404Y-83985714D02*
X157635309Y-84061904D01*
X157597214Y-84100000D01*
X157521023Y-84138095D01*
X157292452Y-84138095D01*
X157216261Y-84100000D01*
X157178166Y-84061904D01*
X157140071Y-83985714D01*
X157140071Y-83871428D01*
X157178166Y-83795238D01*
X157216261Y-83757142D01*
X157292452Y-83719047D01*
X157521023Y-83719047D01*
X157597214Y-83757142D01*
X157635309Y-83795238D01*
X157673404Y-83871428D01*
X157673404Y-83985714D01*
X158264500Y-90461904D02*
X158226404Y-90538095D01*
X158226404Y-90652380D01*
X158264500Y-90766666D01*
X158340690Y-90842857D01*
X158416880Y-90880952D01*
X158569261Y-90919047D01*
X158683547Y-90919047D01*
X158835928Y-90880952D01*
X158912119Y-90842857D01*
X158988309Y-90766666D01*
X159026404Y-90652380D01*
X159026404Y-90576190D01*
X158988309Y-90461904D01*
X158950214Y-90423809D01*
X158683547Y-90423809D01*
X158683547Y-90576190D01*
X159026404Y-90080952D02*
X158226404Y-90080952D01*
X158226404Y-89776190D01*
X158264500Y-89700000D01*
X158302595Y-89661904D01*
X158378785Y-89623809D01*
X158493071Y-89623809D01*
X158569261Y-89661904D01*
X158607357Y-89700000D01*
X158645452Y-89776190D01*
X158645452Y-90080952D01*
X159026404Y-89280952D02*
X158226404Y-89280952D01*
X158226404Y-88747619D02*
X158226404Y-88595238D01*
X158264500Y-88519047D01*
X158340690Y-88442857D01*
X158493071Y-88404761D01*
X158759738Y-88404761D01*
X158912119Y-88442857D01*
X158988309Y-88519047D01*
X159026404Y-88595238D01*
X159026404Y-88747619D01*
X158988309Y-88823809D01*
X158912119Y-88900000D01*
X158759738Y-88938095D01*
X158493071Y-88938095D01*
X158340690Y-88900000D01*
X158264500Y-88823809D01*
X158226404Y-88747619D01*
X159026404Y-87642857D02*
X159026404Y-88100000D01*
X159026404Y-87871428D02*
X158226404Y-87871428D01*
X158340690Y-87947619D01*
X158416880Y-88023809D01*
X158454976Y-88100000D01*
X158226404Y-86919047D02*
X158226404Y-87300000D01*
X158607357Y-87338095D01*
X158569261Y-87300000D01*
X158531166Y-87223809D01*
X158531166Y-87033333D01*
X158569261Y-86957142D01*
X158607357Y-86919047D01*
X158683547Y-86880952D01*
X158874023Y-86880952D01*
X158950214Y-86919047D01*
X158988309Y-86957142D01*
X159026404Y-87033333D01*
X159026404Y-87223809D01*
X158988309Y-87300000D01*
X158950214Y-87338095D01*
X135029309Y-94468285D02*
X135067404Y-94354000D01*
X135067404Y-94163523D01*
X135029309Y-94087333D01*
X134991214Y-94049238D01*
X134915023Y-94011142D01*
X134838833Y-94011142D01*
X134762642Y-94049238D01*
X134724547Y-94087333D01*
X134686452Y-94163523D01*
X134648357Y-94315904D01*
X134610261Y-94392095D01*
X134572166Y-94430190D01*
X134495976Y-94468285D01*
X134419785Y-94468285D01*
X134343595Y-94430190D01*
X134305500Y-94392095D01*
X134267404Y-94315904D01*
X134267404Y-94125428D01*
X134305500Y-94011142D01*
X134267404Y-93744476D02*
X135067404Y-93554000D01*
X134495976Y-93401619D01*
X135067404Y-93249238D01*
X134267404Y-93058761D01*
X135067404Y-92334952D02*
X135067404Y-92792095D01*
X135067404Y-92563523D02*
X134267404Y-92563523D01*
X134381690Y-92639714D01*
X134457880Y-92715904D01*
X134495976Y-92792095D01*
X135029309Y-91039714D02*
X135067404Y-91115904D01*
X135067404Y-91268285D01*
X135029309Y-91344476D01*
X134991214Y-91382571D01*
X134915023Y-91420666D01*
X134686452Y-91420666D01*
X134610261Y-91382571D01*
X134572166Y-91344476D01*
X134534071Y-91268285D01*
X134534071Y-91115904D01*
X134572166Y-91039714D01*
X135067404Y-90582571D02*
X135029309Y-90658761D01*
X134991214Y-90696857D01*
X134915023Y-90734952D01*
X134686452Y-90734952D01*
X134610261Y-90696857D01*
X134572166Y-90658761D01*
X134534071Y-90582571D01*
X134534071Y-90468285D01*
X134572166Y-90392095D01*
X134610261Y-90354000D01*
X134686452Y-90315904D01*
X134915023Y-90315904D01*
X134991214Y-90354000D01*
X135029309Y-90392095D01*
X135067404Y-90468285D01*
X135067404Y-90582571D01*
X134534071Y-89973047D02*
X135067404Y-89973047D01*
X134610261Y-89973047D02*
X134572166Y-89934952D01*
X134534071Y-89858761D01*
X134534071Y-89744476D01*
X134572166Y-89668285D01*
X134648357Y-89630190D01*
X135067404Y-89630190D01*
X134534071Y-89249238D02*
X135067404Y-89249238D01*
X134610261Y-89249238D02*
X134572166Y-89211142D01*
X134534071Y-89134952D01*
X134534071Y-89020666D01*
X134572166Y-88944476D01*
X134648357Y-88906380D01*
X135067404Y-88906380D01*
X135029309Y-88220666D02*
X135067404Y-88296857D01*
X135067404Y-88449238D01*
X135029309Y-88525428D01*
X134953119Y-88563523D01*
X134648357Y-88563523D01*
X134572166Y-88525428D01*
X134534071Y-88449238D01*
X134534071Y-88296857D01*
X134572166Y-88220666D01*
X134648357Y-88182571D01*
X134724547Y-88182571D01*
X134800738Y-88563523D01*
X135029309Y-87496857D02*
X135067404Y-87573047D01*
X135067404Y-87725428D01*
X135029309Y-87801619D01*
X134991214Y-87839714D01*
X134915023Y-87877809D01*
X134686452Y-87877809D01*
X134610261Y-87839714D01*
X134572166Y-87801619D01*
X134534071Y-87725428D01*
X134534071Y-87573047D01*
X134572166Y-87496857D01*
X134534071Y-87268285D02*
X134534071Y-86963523D01*
X134267404Y-87154000D02*
X134953119Y-87154000D01*
X135029309Y-87115904D01*
X135067404Y-87039714D01*
X135067404Y-86963523D01*
X135029309Y-86392095D02*
X135067404Y-86468285D01*
X135067404Y-86620666D01*
X135029309Y-86696857D01*
X134953119Y-86734952D01*
X134648357Y-86734952D01*
X134572166Y-86696857D01*
X134534071Y-86620666D01*
X134534071Y-86468285D01*
X134572166Y-86392095D01*
X134648357Y-86354000D01*
X134724547Y-86354000D01*
X134800738Y-86734952D01*
X135067404Y-85668285D02*
X134267404Y-85668285D01*
X135029309Y-85668285D02*
X135067404Y-85744476D01*
X135067404Y-85896857D01*
X135029309Y-85973047D01*
X134991214Y-86011142D01*
X134915023Y-86049238D01*
X134686452Y-86049238D01*
X134610261Y-86011142D01*
X134572166Y-85973047D01*
X134534071Y-85896857D01*
X134534071Y-85744476D01*
X134572166Y-85668285D01*
X134534071Y-84792095D02*
X134534071Y-84487333D01*
X134267404Y-84677809D02*
X134953119Y-84677809D01*
X135029309Y-84639714D01*
X135067404Y-84563523D01*
X135067404Y-84487333D01*
X135067404Y-84106380D02*
X135029309Y-84182571D01*
X134991214Y-84220666D01*
X134915023Y-84258761D01*
X134686452Y-84258761D01*
X134610261Y-84220666D01*
X134572166Y-84182571D01*
X134534071Y-84106380D01*
X134534071Y-83992095D01*
X134572166Y-83915904D01*
X134610261Y-83877809D01*
X134686452Y-83839714D01*
X134915023Y-83839714D01*
X134991214Y-83877809D01*
X135029309Y-83915904D01*
X135067404Y-83992095D01*
X135067404Y-84106380D01*
X135658500Y-94277809D02*
X135620404Y-94354000D01*
X135620404Y-94468285D01*
X135658500Y-94582571D01*
X135734690Y-94658761D01*
X135810880Y-94696857D01*
X135963261Y-94734952D01*
X136077547Y-94734952D01*
X136229928Y-94696857D01*
X136306119Y-94658761D01*
X136382309Y-94582571D01*
X136420404Y-94468285D01*
X136420404Y-94392095D01*
X136382309Y-94277809D01*
X136344214Y-94239714D01*
X136077547Y-94239714D01*
X136077547Y-94392095D01*
X136420404Y-93896857D02*
X135620404Y-93896857D01*
X135620404Y-93592095D01*
X135658500Y-93515904D01*
X135696595Y-93477809D01*
X135772785Y-93439714D01*
X135887071Y-93439714D01*
X135963261Y-93477809D01*
X136001357Y-93515904D01*
X136039452Y-93592095D01*
X136039452Y-93896857D01*
X136420404Y-93096857D02*
X135620404Y-93096857D01*
X135620404Y-92563523D02*
X135620404Y-92411142D01*
X135658500Y-92334952D01*
X135734690Y-92258761D01*
X135887071Y-92220666D01*
X136153738Y-92220666D01*
X136306119Y-92258761D01*
X136382309Y-92334952D01*
X136420404Y-92411142D01*
X136420404Y-92563523D01*
X136382309Y-92639714D01*
X136306119Y-92715904D01*
X136153738Y-92754000D01*
X135887071Y-92754000D01*
X135734690Y-92715904D01*
X135658500Y-92639714D01*
X135620404Y-92563523D01*
X135620404Y-91954000D02*
X135620404Y-91458761D01*
X135925166Y-91725428D01*
X135925166Y-91611142D01*
X135963261Y-91534952D01*
X136001357Y-91496857D01*
X136077547Y-91458761D01*
X136268023Y-91458761D01*
X136344214Y-91496857D01*
X136382309Y-91534952D01*
X136420404Y-91611142D01*
X136420404Y-91839714D01*
X136382309Y-91915904D01*
X136344214Y-91954000D01*
X136191833Y-90544476D02*
X136191833Y-90163523D01*
X136420404Y-90620666D02*
X135620404Y-90354000D01*
X136420404Y-90087333D01*
X136420404Y-89820666D02*
X135620404Y-89820666D01*
X136420404Y-89363523D01*
X135620404Y-89363523D01*
X136420404Y-88982571D02*
X135620404Y-88982571D01*
X135620404Y-88792095D01*
X135658500Y-88677809D01*
X135734690Y-88601619D01*
X135810880Y-88563523D01*
X135963261Y-88525428D01*
X136077547Y-88525428D01*
X136229928Y-88563523D01*
X136306119Y-88601619D01*
X136382309Y-88677809D01*
X136420404Y-88792095D01*
X136420404Y-88982571D01*
X135658500Y-87154000D02*
X135620404Y-87230190D01*
X135620404Y-87344476D01*
X135658500Y-87458761D01*
X135734690Y-87534952D01*
X135810880Y-87573047D01*
X135963261Y-87611142D01*
X136077547Y-87611142D01*
X136229928Y-87573047D01*
X136306119Y-87534952D01*
X136382309Y-87458761D01*
X136420404Y-87344476D01*
X136420404Y-87268285D01*
X136382309Y-87154000D01*
X136344214Y-87115904D01*
X136077547Y-87115904D01*
X136077547Y-87268285D01*
X136420404Y-86773047D02*
X135620404Y-86773047D01*
X135620404Y-86468285D01*
X135658500Y-86392095D01*
X135696595Y-86354000D01*
X135772785Y-86315904D01*
X135887071Y-86315904D01*
X135963261Y-86354000D01*
X136001357Y-86392095D01*
X136039452Y-86468285D01*
X136039452Y-86773047D01*
X136420404Y-85973047D02*
X135620404Y-85973047D01*
X135620404Y-85439714D02*
X135620404Y-85287333D01*
X135658500Y-85211142D01*
X135734690Y-85134952D01*
X135887071Y-85096857D01*
X136153738Y-85096857D01*
X136306119Y-85134952D01*
X136382309Y-85211142D01*
X136420404Y-85287333D01*
X136420404Y-85439714D01*
X136382309Y-85515904D01*
X136306119Y-85592095D01*
X136153738Y-85630190D01*
X135887071Y-85630190D01*
X135734690Y-85592095D01*
X135658500Y-85515904D01*
X135620404Y-85439714D01*
X136420404Y-84334952D02*
X136420404Y-84792095D01*
X136420404Y-84563523D02*
X135620404Y-84563523D01*
X135734690Y-84639714D01*
X135810880Y-84715904D01*
X135848976Y-84792095D01*
X135620404Y-84068285D02*
X135620404Y-83534952D01*
X136420404Y-83877809D01*
D10*
X121920000Y-109220000D02*
X121920000Y-108458000D01*
X121499761Y-125142928D02*
X121547380Y-125000071D01*
X121547380Y-124761976D01*
X121499761Y-124666738D01*
X121452142Y-124619119D01*
X121356904Y-124571500D01*
X121261666Y-124571500D01*
X121166428Y-124619119D01*
X121118809Y-124666738D01*
X121071190Y-124761976D01*
X121023571Y-124952452D01*
X120975952Y-125047690D01*
X120928333Y-125095309D01*
X120833095Y-125142928D01*
X120737857Y-125142928D01*
X120642619Y-125095309D01*
X120595000Y-125047690D01*
X120547380Y-124952452D01*
X120547380Y-124714357D01*
X120595000Y-124571500D01*
X121499761Y-123761976D02*
X121547380Y-123857214D01*
X121547380Y-124047690D01*
X121499761Y-124142928D01*
X121404523Y-124190547D01*
X121023571Y-124190547D01*
X120928333Y-124142928D01*
X120880714Y-124047690D01*
X120880714Y-123857214D01*
X120928333Y-123761976D01*
X121023571Y-123714357D01*
X121118809Y-123714357D01*
X121214047Y-124190547D01*
X121547380Y-123142928D02*
X121499761Y-123238166D01*
X121404523Y-123285785D01*
X120547380Y-123285785D01*
X121499761Y-122381023D02*
X121547380Y-122476261D01*
X121547380Y-122666738D01*
X121499761Y-122761976D01*
X121404523Y-122809595D01*
X121023571Y-122809595D01*
X120928333Y-122761976D01*
X120880714Y-122666738D01*
X120880714Y-122476261D01*
X120928333Y-122381023D01*
X121023571Y-122333404D01*
X121118809Y-122333404D01*
X121214047Y-122809595D01*
X121499761Y-121476261D02*
X121547380Y-121571500D01*
X121547380Y-121761976D01*
X121499761Y-121857214D01*
X121452142Y-121904833D01*
X121356904Y-121952452D01*
X121071190Y-121952452D01*
X120975952Y-121904833D01*
X120928333Y-121857214D01*
X120880714Y-121761976D01*
X120880714Y-121571500D01*
X120928333Y-121476261D01*
X120880714Y-121190547D02*
X120880714Y-120809595D01*
X120547380Y-121047690D02*
X121404523Y-121047690D01*
X121499761Y-121000071D01*
X121547380Y-120904833D01*
X121547380Y-120809595D01*
X120547380Y-119238166D02*
X120547380Y-119714357D01*
X121023571Y-119761976D01*
X120975952Y-119714357D01*
X120928333Y-119619119D01*
X120928333Y-119381023D01*
X120975952Y-119285785D01*
X121023571Y-119238166D01*
X121118809Y-119190547D01*
X121356904Y-119190547D01*
X121452142Y-119238166D01*
X121499761Y-119285785D01*
X121547380Y-119381023D01*
X121547380Y-119619119D01*
X121499761Y-119714357D01*
X121452142Y-119761976D01*
X120547380Y-118904833D02*
X121547380Y-118571500D01*
X120547380Y-118238166D01*
X120547380Y-116952452D02*
X120547380Y-116761976D01*
X120595000Y-116666738D01*
X120690238Y-116571500D01*
X120880714Y-116523880D01*
X121214047Y-116523880D01*
X121404523Y-116571500D01*
X121499761Y-116666738D01*
X121547380Y-116761976D01*
X121547380Y-116952452D01*
X121499761Y-117047690D01*
X121404523Y-117142928D01*
X121214047Y-117190547D01*
X120880714Y-117190547D01*
X120690238Y-117142928D01*
X120595000Y-117047690D01*
X120547380Y-116952452D01*
X121547380Y-115523880D02*
X121071190Y-115857214D01*
X121547380Y-116095309D02*
X120547380Y-116095309D01*
X120547380Y-115714357D01*
X120595000Y-115619119D01*
X120642619Y-115571500D01*
X120737857Y-115523880D01*
X120880714Y-115523880D01*
X120975952Y-115571500D01*
X121023571Y-115619119D01*
X121071190Y-115714357D01*
X121071190Y-116095309D01*
X120547380Y-114428642D02*
X120547380Y-113809595D01*
X120928333Y-114142928D01*
X120928333Y-114000071D01*
X120975952Y-113904833D01*
X121023571Y-113857214D01*
X121118809Y-113809595D01*
X121356904Y-113809595D01*
X121452142Y-113857214D01*
X121499761Y-113904833D01*
X121547380Y-114000071D01*
X121547380Y-114285785D01*
X121499761Y-114381023D01*
X121452142Y-114428642D01*
X120547380Y-113523880D02*
X121547380Y-113190547D01*
X120547380Y-112857214D01*
X120547380Y-112619119D02*
X120547380Y-112000071D01*
X120928333Y-112333404D01*
X120928333Y-112190547D01*
X120975952Y-112095309D01*
X121023571Y-112047690D01*
X121118809Y-112000071D01*
X121356904Y-112000071D01*
X121452142Y-112047690D01*
X121499761Y-112095309D01*
X121547380Y-112190547D01*
X121547380Y-112476261D01*
X121499761Y-112571500D01*
X121452142Y-112619119D01*
X120880714Y-110952452D02*
X120880714Y-110571500D01*
X120547380Y-110809595D02*
X121404523Y-110809595D01*
X121499761Y-110761976D01*
X121547380Y-110666738D01*
X121547380Y-110571500D01*
X121547380Y-110095309D02*
X121499761Y-110190547D01*
X121452142Y-110238166D01*
X121356904Y-110285785D01*
X121071190Y-110285785D01*
X120975952Y-110238166D01*
X120928333Y-110190547D01*
X120880714Y-110095309D01*
X120880714Y-109952452D01*
X120928333Y-109857214D01*
X120975952Y-109809595D01*
X121071190Y-109761976D01*
X121356904Y-109761976D01*
X121452142Y-109809595D01*
X121499761Y-109857214D01*
X121547380Y-109952452D01*
X121547380Y-110095309D01*
X122530714Y-123904833D02*
X123530714Y-123904833D01*
X122578333Y-123904833D02*
X122530714Y-123809595D01*
X122530714Y-123619119D01*
X122578333Y-123523880D01*
X122625952Y-123476261D01*
X122721190Y-123428642D01*
X123006904Y-123428642D01*
X123102142Y-123476261D01*
X123149761Y-123523880D01*
X123197380Y-123619119D01*
X123197380Y-123809595D01*
X123149761Y-123904833D01*
X123197380Y-122857214D02*
X123149761Y-122952452D01*
X123102142Y-123000071D01*
X123006904Y-123047690D01*
X122721190Y-123047690D01*
X122625952Y-123000071D01*
X122578333Y-122952452D01*
X122530714Y-122857214D01*
X122530714Y-122714357D01*
X122578333Y-122619119D01*
X122625952Y-122571500D01*
X122721190Y-122523880D01*
X123006904Y-122523880D01*
X123102142Y-122571500D01*
X123149761Y-122619119D01*
X123197380Y-122714357D01*
X123197380Y-122857214D01*
X122530714Y-122190547D02*
X123197380Y-122000071D01*
X122721190Y-121809595D01*
X123197380Y-121619119D01*
X122530714Y-121428642D01*
X123149761Y-120666738D02*
X123197380Y-120761976D01*
X123197380Y-120952452D01*
X123149761Y-121047690D01*
X123054523Y-121095309D01*
X122673571Y-121095309D01*
X122578333Y-121047690D01*
X122530714Y-120952452D01*
X122530714Y-120761976D01*
X122578333Y-120666738D01*
X122673571Y-120619119D01*
X122768809Y-120619119D01*
X122864047Y-121095309D01*
X123197380Y-120190547D02*
X122530714Y-120190547D01*
X122721190Y-120190547D02*
X122625952Y-120142928D01*
X122578333Y-120095309D01*
X122530714Y-120000071D01*
X122530714Y-119904833D01*
X123197380Y-118809595D02*
X122197380Y-118809595D01*
X122292619Y-118381023D02*
X122245000Y-118333404D01*
X122197380Y-118238166D01*
X122197380Y-118000071D01*
X122245000Y-117904833D01*
X122292619Y-117857214D01*
X122387857Y-117809595D01*
X122483095Y-117809595D01*
X122625952Y-117857214D01*
X123197380Y-118428642D01*
X123197380Y-117809595D01*
X123102142Y-116809595D02*
X123149761Y-116857214D01*
X123197380Y-117000071D01*
X123197380Y-117095309D01*
X123149761Y-117238166D01*
X123054523Y-117333404D01*
X122959285Y-117381023D01*
X122768809Y-117428642D01*
X122625952Y-117428642D01*
X122435476Y-117381023D01*
X122340238Y-117333404D01*
X122245000Y-117238166D01*
X122197380Y-117095309D01*
X122197380Y-117000071D01*
X122245000Y-116857214D01*
X122292619Y-116809595D01*
X123197380Y-114428642D02*
X122197380Y-114428642D01*
X123149761Y-114428642D02*
X123197380Y-114523880D01*
X123197380Y-114714357D01*
X123149761Y-114809595D01*
X123102142Y-114857214D01*
X123006904Y-114904833D01*
X122721190Y-114904833D01*
X122625952Y-114857214D01*
X122578333Y-114809595D01*
X122530714Y-114714357D01*
X122530714Y-114523880D01*
X122578333Y-114428642D01*
X123149761Y-113571500D02*
X123197380Y-113666738D01*
X123197380Y-113857214D01*
X123149761Y-113952452D01*
X123054523Y-114000071D01*
X122673571Y-114000071D01*
X122578333Y-113952452D01*
X122530714Y-113857214D01*
X122530714Y-113666738D01*
X122578333Y-113571500D01*
X122673571Y-113523880D01*
X122768809Y-113523880D01*
X122864047Y-114000071D01*
X122530714Y-113190547D02*
X123197380Y-112952452D01*
X122530714Y-112714357D01*
X123197380Y-112333404D02*
X122530714Y-112333404D01*
X122197380Y-112333404D02*
X122245000Y-112381023D01*
X122292619Y-112333404D01*
X122245000Y-112285785D01*
X122197380Y-112333404D01*
X122292619Y-112333404D01*
X123149761Y-111428642D02*
X123197380Y-111523880D01*
X123197380Y-111714357D01*
X123149761Y-111809595D01*
X123102142Y-111857214D01*
X123006904Y-111904833D01*
X122721190Y-111904833D01*
X122625952Y-111857214D01*
X122578333Y-111809595D01*
X122530714Y-111714357D01*
X122530714Y-111523880D01*
X122578333Y-111428642D01*
X123149761Y-110619119D02*
X123197380Y-110714357D01*
X123197380Y-110904833D01*
X123149761Y-111000071D01*
X123054523Y-111047690D01*
X122673571Y-111047690D01*
X122578333Y-111000071D01*
X122530714Y-110904833D01*
X122530714Y-110714357D01*
X122578333Y-110619119D01*
X122673571Y-110571500D01*
X122768809Y-110571500D01*
X122864047Y-111047690D01*
X123149761Y-110190547D02*
X123197380Y-110095309D01*
X123197380Y-109904833D01*
X123149761Y-109809595D01*
X123054523Y-109761976D01*
X123006904Y-109761976D01*
X122911666Y-109809595D01*
X122864047Y-109904833D01*
X122864047Y-110047690D01*
X122816428Y-110142928D01*
X122721190Y-110190547D01*
X122673571Y-110190547D01*
X122578333Y-110142928D01*
X122530714Y-110047690D01*
X122530714Y-109904833D01*
X122578333Y-109809595D01*
X123912380Y-102838095D02*
X123912380Y-102219047D01*
X124293333Y-102552380D01*
X124293333Y-102409523D01*
X124340952Y-102314285D01*
X124388571Y-102266666D01*
X124483809Y-102219047D01*
X124721904Y-102219047D01*
X124817142Y-102266666D01*
X124864761Y-102314285D01*
X124912380Y-102409523D01*
X124912380Y-102695238D01*
X124864761Y-102790476D01*
X124817142Y-102838095D01*
X123912380Y-101933333D02*
X124912380Y-101600000D01*
X123912380Y-101266666D01*
X123912380Y-101028571D02*
X123912380Y-100409523D01*
X124293333Y-100742857D01*
X124293333Y-100600000D01*
X124340952Y-100504761D01*
X124388571Y-100457142D01*
X124483809Y-100409523D01*
X124721904Y-100409523D01*
X124817142Y-100457142D01*
X124864761Y-100504761D01*
X124912380Y-100600000D01*
X124912380Y-100885714D01*
X124864761Y-100980952D01*
X124817142Y-101028571D01*
X123912380Y-106870476D02*
X123912380Y-107346666D01*
X124388571Y-107394285D01*
X124340952Y-107346666D01*
X124293333Y-107251428D01*
X124293333Y-107013333D01*
X124340952Y-106918095D01*
X124388571Y-106870476D01*
X124483809Y-106822857D01*
X124721904Y-106822857D01*
X124817142Y-106870476D01*
X124864761Y-106918095D01*
X124912380Y-107013333D01*
X124912380Y-107251428D01*
X124864761Y-107346666D01*
X124817142Y-107394285D01*
X123912380Y-106537142D02*
X124912380Y-106203809D01*
X123912380Y-105870476D01*
X172466095Y-106180000D02*
X172370857Y-106132380D01*
X172228000Y-106132380D01*
X172085142Y-106180000D01*
X171989904Y-106275238D01*
X171942285Y-106370476D01*
X171894666Y-106560952D01*
X171894666Y-106703809D01*
X171942285Y-106894285D01*
X171989904Y-106989523D01*
X172085142Y-107084761D01*
X172228000Y-107132380D01*
X172323238Y-107132380D01*
X172466095Y-107084761D01*
X172513714Y-107037142D01*
X172513714Y-106703809D01*
X172323238Y-106703809D01*
X172942285Y-107132380D02*
X172942285Y-106132380D01*
X173513714Y-107132380D01*
X173513714Y-106132380D01*
X173989904Y-107132380D02*
X173989904Y-106132380D01*
X174228000Y-106132380D01*
X174370857Y-106180000D01*
X174466095Y-106275238D01*
X174513714Y-106370476D01*
X174561333Y-106560952D01*
X174561333Y-106703809D01*
X174513714Y-106894285D01*
X174466095Y-106989523D01*
X174370857Y-107084761D01*
X174228000Y-107132380D01*
X173989904Y-107132380D01*
X171894666Y-103592380D02*
X172228000Y-104592380D01*
X172561333Y-103592380D01*
X173466095Y-104497142D02*
X173418476Y-104544761D01*
X173275619Y-104592380D01*
X173180380Y-104592380D01*
X173037523Y-104544761D01*
X172942285Y-104449523D01*
X172894666Y-104354285D01*
X172847047Y-104163809D01*
X172847047Y-104020952D01*
X172894666Y-103830476D01*
X172942285Y-103735238D01*
X173037523Y-103640000D01*
X173180380Y-103592380D01*
X173275619Y-103592380D01*
X173418476Y-103640000D01*
X173466095Y-103687619D01*
X174466095Y-104497142D02*
X174418476Y-104544761D01*
X174275619Y-104592380D01*
X174180380Y-104592380D01*
X174037523Y-104544761D01*
X173942285Y-104449523D01*
X173894666Y-104354285D01*
X173847047Y-104163809D01*
X173847047Y-104020952D01*
X173894666Y-103830476D01*
X173942285Y-103735238D01*
X174037523Y-103640000D01*
X174180380Y-103592380D01*
X174275619Y-103592380D01*
X174418476Y-103640000D01*
X174466095Y-103687619D01*
X172013714Y-102004761D02*
X172156571Y-102052380D01*
X172394666Y-102052380D01*
X172489904Y-102004761D01*
X172537523Y-101957142D01*
X172585142Y-101861904D01*
X172585142Y-101766666D01*
X172537523Y-101671428D01*
X172489904Y-101623809D01*
X172394666Y-101576190D01*
X172204190Y-101528571D01*
X172108952Y-101480952D01*
X172061333Y-101433333D01*
X172013714Y-101338095D01*
X172013714Y-101242857D01*
X172061333Y-101147619D01*
X172108952Y-101100000D01*
X172204190Y-101052380D01*
X172442285Y-101052380D01*
X172585142Y-101100000D01*
X173013714Y-102052380D02*
X173013714Y-101052380D01*
X173251809Y-101052380D01*
X173394666Y-101100000D01*
X173489904Y-101195238D01*
X173537523Y-101290476D01*
X173585142Y-101480952D01*
X173585142Y-101623809D01*
X173537523Y-101814285D01*
X173489904Y-101909523D01*
X173394666Y-102004761D01*
X173251809Y-102052380D01*
X173013714Y-102052380D01*
X173966095Y-101766666D02*
X174442285Y-101766666D01*
X173870857Y-102052380D02*
X174204190Y-101052380D01*
X174537523Y-102052380D01*
X172037523Y-99464761D02*
X172180380Y-99512380D01*
X172418476Y-99512380D01*
X172513714Y-99464761D01*
X172561333Y-99417142D01*
X172608952Y-99321904D01*
X172608952Y-99226666D01*
X172561333Y-99131428D01*
X172513714Y-99083809D01*
X172418476Y-99036190D01*
X172228000Y-98988571D01*
X172132761Y-98940952D01*
X172085142Y-98893333D01*
X172037523Y-98798095D01*
X172037523Y-98702857D01*
X172085142Y-98607619D01*
X172132761Y-98560000D01*
X172228000Y-98512380D01*
X172466095Y-98512380D01*
X172608952Y-98560000D01*
X173608952Y-99417142D02*
X173561333Y-99464761D01*
X173418476Y-99512380D01*
X173323238Y-99512380D01*
X173180380Y-99464761D01*
X173085142Y-99369523D01*
X173037523Y-99274285D01*
X172989904Y-99083809D01*
X172989904Y-98940952D01*
X173037523Y-98750476D01*
X173085142Y-98655238D01*
X173180380Y-98560000D01*
X173323238Y-98512380D01*
X173418476Y-98512380D01*
X173561333Y-98560000D01*
X173608952Y-98607619D01*
X174513714Y-99512380D02*
X174037523Y-99512380D01*
X174037523Y-98512380D01*
D12*
X138030000Y-88440000D02*
X138030000Y-89940000D01*
X139280000Y-92440000D02*
X143780000Y-92440000D01*
X145030000Y-89940000D02*
X145030000Y-88440000D01*
X143780000Y-85940000D02*
X139280000Y-85940000D01*
X155177258Y-85583500D02*
X154702742Y-85583500D01*
X155177258Y-86628500D02*
X154702742Y-86628500D01*
X121682742Y-96280500D02*
X122157258Y-96280500D01*
X121682742Y-95235500D02*
X122157258Y-95235500D01*
X121682742Y-98058500D02*
X122157258Y-98058500D01*
X121682742Y-97013500D02*
X122157258Y-97013500D01*
X120590000Y-100270000D02*
X121920000Y-100270000D01*
X120590000Y-101600000D02*
X120590000Y-100270000D01*
X120590000Y-102870000D02*
X123250000Y-102870000D01*
X123250000Y-102870000D02*
X123250000Y-108010000D01*
X120590000Y-102870000D02*
X120590000Y-108010000D01*
X120590000Y-108010000D02*
X123250000Y-108010000D01*
X123130000Y-92770000D02*
X123130000Y-91440000D01*
X124460000Y-92770000D02*
X123130000Y-92770000D01*
X125730000Y-92770000D02*
X125730000Y-90110000D01*
X125730000Y-90110000D02*
X130870000Y-90110000D01*
X125730000Y-92770000D02*
X130870000Y-92770000D01*
X130870000Y-92770000D02*
X130870000Y-90110000D01*
X165210000Y-98260000D02*
X164610000Y-98260000D01*
X165210000Y-99860000D02*
X165210000Y-98260000D01*
X164610000Y-99860000D02*
X165210000Y-99860000D01*
X165210000Y-100800000D02*
X164610000Y-100800000D01*
X165210000Y-102400000D02*
X165210000Y-100800000D01*
X164610000Y-102400000D02*
X165210000Y-102400000D01*
X165210000Y-103340000D02*
X164610000Y-103340000D01*
X165210000Y-104940000D02*
X165210000Y-103340000D01*
X164610000Y-104940000D02*
X165210000Y-104940000D01*
X165210000Y-105880000D02*
X164610000Y-105880000D01*
X165210000Y-107480000D02*
X165210000Y-105880000D01*
X164610000Y-107480000D02*
X165210000Y-107480000D01*
X170630000Y-99310000D02*
X169630000Y-99310000D01*
X170630000Y-106430000D02*
X169630000Y-106430000D01*
X169100000Y-99310000D02*
X169630000Y-99060000D01*
X169100000Y-106430000D02*
X169100000Y-99310000D01*
X169630000Y-106680000D02*
X169100000Y-106430000D01*
X169630000Y-99060000D02*
X170630000Y-99060000D01*
X169630000Y-106680000D02*
X169630000Y-99060000D01*
X170630000Y-106680000D02*
X169630000Y-106680000D01*
X165640000Y-108350000D02*
X169640000Y-108350000D01*
X164610000Y-97680000D02*
X164610000Y-108060000D01*
X170630000Y-97680000D02*
X164610000Y-97680000D01*
X170630000Y-108060000D02*
X170630000Y-97680000D01*
X164610000Y-108060000D02*
X170630000Y-108060000D01*
X152510000Y-98260000D02*
X151910000Y-98260000D01*
X152510000Y-99860000D02*
X152510000Y-98260000D01*
X151910000Y-99860000D02*
X152510000Y-99860000D01*
X152510000Y-100800000D02*
X151910000Y-100800000D01*
X152510000Y-102400000D02*
X152510000Y-100800000D01*
X151910000Y-102400000D02*
X152510000Y-102400000D01*
X152510000Y-103340000D02*
X151910000Y-103340000D01*
X152510000Y-104940000D02*
X152510000Y-103340000D01*
X151910000Y-104940000D02*
X152510000Y-104940000D01*
X152510000Y-105880000D02*
X151910000Y-105880000D01*
X152510000Y-107480000D02*
X152510000Y-105880000D01*
X151910000Y-107480000D02*
X152510000Y-107480000D01*
X157930000Y-99310000D02*
X156930000Y-99310000D01*
X157930000Y-106430000D02*
X156930000Y-106430000D01*
X156400000Y-99310000D02*
X156930000Y-99060000D01*
X156400000Y-106430000D02*
X156400000Y-99310000D01*
X156930000Y-106680000D02*
X156400000Y-106430000D01*
X156930000Y-99060000D02*
X157930000Y-99060000D01*
X156930000Y-106680000D02*
X156930000Y-99060000D01*
X157930000Y-106680000D02*
X156930000Y-106680000D01*
X152940000Y-108350000D02*
X156940000Y-108350000D01*
X151910000Y-97680000D02*
X151910000Y-108060000D01*
X157930000Y-97680000D02*
X151910000Y-97680000D01*
X157930000Y-108060000D02*
X157930000Y-97680000D01*
X151910000Y-108060000D02*
X157930000Y-108060000D01*
X139810000Y-98260000D02*
X139210000Y-98260000D01*
X139810000Y-99860000D02*
X139810000Y-98260000D01*
X139210000Y-99860000D02*
X139810000Y-99860000D01*
X139810000Y-100800000D02*
X139210000Y-100800000D01*
X139810000Y-102400000D02*
X139810000Y-100800000D01*
X139210000Y-102400000D02*
X139810000Y-102400000D01*
X139810000Y-103340000D02*
X139210000Y-103340000D01*
X139810000Y-104940000D02*
X139810000Y-103340000D01*
X139210000Y-104940000D02*
X139810000Y-104940000D01*
X139810000Y-105880000D02*
X139210000Y-105880000D01*
X139810000Y-107480000D02*
X139810000Y-105880000D01*
X139210000Y-107480000D02*
X139810000Y-107480000D01*
X145230000Y-99310000D02*
X144230000Y-99310000D01*
X145230000Y-106430000D02*
X144230000Y-106430000D01*
X143700000Y-99310000D02*
X144230000Y-99060000D01*
X143700000Y-106430000D02*
X143700000Y-99310000D01*
X144230000Y-106680000D02*
X143700000Y-106430000D01*
X144230000Y-99060000D02*
X145230000Y-99060000D01*
X144230000Y-106680000D02*
X144230000Y-99060000D01*
X145230000Y-106680000D02*
X144230000Y-106680000D01*
X140240000Y-108350000D02*
X144240000Y-108350000D01*
X139210000Y-97680000D02*
X139210000Y-108060000D01*
X145230000Y-97680000D02*
X139210000Y-97680000D01*
X145230000Y-108060000D02*
X145230000Y-97680000D01*
X139210000Y-108060000D02*
X145230000Y-108060000D01*
X127110000Y-98260000D02*
X126510000Y-98260000D01*
X127110000Y-99860000D02*
X127110000Y-98260000D01*
X126510000Y-99860000D02*
X127110000Y-99860000D01*
X127110000Y-100800000D02*
X126510000Y-100800000D01*
X127110000Y-102400000D02*
X127110000Y-100800000D01*
X126510000Y-102400000D02*
X127110000Y-102400000D01*
X127110000Y-103340000D02*
X126510000Y-103340000D01*
X127110000Y-104940000D02*
X127110000Y-103340000D01*
X126510000Y-104940000D02*
X127110000Y-104940000D01*
X127110000Y-105880000D02*
X126510000Y-105880000D01*
X127110000Y-107480000D02*
X127110000Y-105880000D01*
X126510000Y-107480000D02*
X127110000Y-107480000D01*
X132530000Y-99310000D02*
X131530000Y-99310000D01*
X132530000Y-106430000D02*
X131530000Y-106430000D01*
X131000000Y-99310000D02*
X131530000Y-99060000D01*
X131000000Y-106430000D02*
X131000000Y-99310000D01*
X131530000Y-106680000D02*
X131000000Y-106430000D01*
X131530000Y-99060000D02*
X132530000Y-99060000D01*
X131530000Y-106680000D02*
X131530000Y-99060000D01*
X132530000Y-106680000D02*
X131530000Y-106680000D01*
X127540000Y-108350000D02*
X131540000Y-108350000D01*
X126510000Y-97680000D02*
X126510000Y-108060000D01*
X132530000Y-97680000D02*
X126510000Y-97680000D01*
X132530000Y-108060000D02*
X132530000Y-97680000D01*
X126510000Y-108060000D02*
X132530000Y-108060000D01*
X156425000Y-87149000D02*
X154140000Y-87149000D01*
X156425000Y-88619000D02*
X156425000Y-87149000D01*
X154140000Y-88619000D02*
X156425000Y-88619000D01*
D10*
X169660000Y-77660000D02*
X118860000Y-77660000D01*
X121400000Y-82740000D02*
X169660000Y-82740000D01*
X169660000Y-77660000D02*
X169660000Y-82740000D01*
X118860000Y-77660000D02*
X118860000Y-80200000D01*
X118580000Y-81470000D02*
X118580000Y-83020000D01*
X118860000Y-80200000D02*
X121400000Y-80200000D01*
X121400000Y-80200000D02*
X121400000Y-82740000D01*
X118580000Y-83020000D02*
X120130000Y-83020000D01*
X147724761Y-90487333D02*
X147772380Y-90344476D01*
X147772380Y-90106380D01*
X147724761Y-90011142D01*
X147677142Y-89963523D01*
X147581904Y-89915904D01*
X147486666Y-89915904D01*
X147391428Y-89963523D01*
X147343809Y-90011142D01*
X147296190Y-90106380D01*
X147248571Y-90296857D01*
X147200952Y-90392095D01*
X147153333Y-90439714D01*
X147058095Y-90487333D01*
X146962857Y-90487333D01*
X146867619Y-90439714D01*
X146820000Y-90392095D01*
X146772380Y-90296857D01*
X146772380Y-90058761D01*
X146820000Y-89915904D01*
X146772380Y-89582571D02*
X147772380Y-89344476D01*
X147058095Y-89154000D01*
X147772380Y-88963523D01*
X146772380Y-88725428D01*
X147772380Y-87820666D02*
X147772380Y-88392095D01*
X147772380Y-88106380D02*
X146772380Y-88106380D01*
X146915238Y-88201619D01*
X147010476Y-88296857D01*
X147058095Y-88392095D01*
X154630380Y-84494666D02*
X154154190Y-84828000D01*
X154630380Y-85066095D02*
X153630380Y-85066095D01*
X153630380Y-84685142D01*
X153678000Y-84589904D01*
X153725619Y-84542285D01*
X153820857Y-84494666D01*
X153963714Y-84494666D01*
X154058952Y-84542285D01*
X154106571Y-84589904D01*
X154154190Y-84685142D01*
X154154190Y-85066095D01*
X153630380Y-84161333D02*
X153630380Y-83542285D01*
X154011333Y-83875619D01*
X154011333Y-83732761D01*
X154058952Y-83637523D01*
X154106571Y-83589904D01*
X154201809Y-83542285D01*
X154439904Y-83542285D01*
X154535142Y-83589904D01*
X154582761Y-83637523D01*
X154630380Y-83732761D01*
X154630380Y-84018476D01*
X154582761Y-84113714D01*
X154535142Y-84161333D01*
X120149380Y-95924666D02*
X119673190Y-96258000D01*
X120149380Y-96496095D02*
X119149380Y-96496095D01*
X119149380Y-96115142D01*
X119197000Y-96019904D01*
X119244619Y-95972285D01*
X119339857Y-95924666D01*
X119482714Y-95924666D01*
X119577952Y-95972285D01*
X119625571Y-96019904D01*
X119673190Y-96115142D01*
X119673190Y-96496095D01*
X119244619Y-95543714D02*
X119197000Y-95496095D01*
X119149380Y-95400857D01*
X119149380Y-95162761D01*
X119197000Y-95067523D01*
X119244619Y-95019904D01*
X119339857Y-94972285D01*
X119435095Y-94972285D01*
X119577952Y-95019904D01*
X120149380Y-95591333D01*
X120149380Y-94972285D01*
X120086380Y-97702666D02*
X119610190Y-98036000D01*
X120086380Y-98274095D02*
X119086380Y-98274095D01*
X119086380Y-97893142D01*
X119134000Y-97797904D01*
X119181619Y-97750285D01*
X119276857Y-97702666D01*
X119419714Y-97702666D01*
X119514952Y-97750285D01*
X119562571Y-97797904D01*
X119610190Y-97893142D01*
X119610190Y-98274095D01*
X120086380Y-96750285D02*
X120086380Y-97321714D01*
X120086380Y-97036000D02*
X119086380Y-97036000D01*
X119229238Y-97131238D01*
X119324476Y-97226476D01*
X119372095Y-97321714D01*
X118832380Y-108021333D02*
X119546666Y-108021333D01*
X119689523Y-108068952D01*
X119784761Y-108164190D01*
X119832380Y-108307047D01*
X119832380Y-108402285D01*
X119832380Y-107545142D02*
X118832380Y-107545142D01*
X118832380Y-107164190D01*
X118880000Y-107068952D01*
X118927619Y-107021333D01*
X119022857Y-106973714D01*
X119165714Y-106973714D01*
X119260952Y-107021333D01*
X119308571Y-107068952D01*
X119356190Y-107164190D01*
X119356190Y-107545142D01*
X119832380Y-106021333D02*
X119832380Y-106592761D01*
X119832380Y-106307047D02*
X118832380Y-106307047D01*
X118975238Y-106402285D01*
X119070476Y-106497523D01*
X119118095Y-106592761D01*
X121582380Y-91773333D02*
X122296666Y-91773333D01*
X122439523Y-91820952D01*
X122534761Y-91916190D01*
X122582380Y-92059047D01*
X122582380Y-92154285D01*
X121582380Y-90868571D02*
X121582380Y-91059047D01*
X121630000Y-91154285D01*
X121677619Y-91201904D01*
X121820476Y-91297142D01*
X122010952Y-91344761D01*
X122391904Y-91344761D01*
X122487142Y-91297142D01*
X122534761Y-91249523D01*
X122582380Y-91154285D01*
X122582380Y-90963809D01*
X122534761Y-90868571D01*
X122487142Y-90820952D01*
X122391904Y-90773333D01*
X122153809Y-90773333D01*
X122058571Y-90820952D01*
X122010952Y-90868571D01*
X121963333Y-90963809D01*
X121963333Y-91154285D01*
X122010952Y-91249523D01*
X122058571Y-91297142D01*
X122153809Y-91344761D01*
X164298380Y-96599333D02*
X165012666Y-96599333D01*
X165155523Y-96646952D01*
X165250761Y-96742190D01*
X165298380Y-96885047D01*
X165298380Y-96980285D01*
X164298380Y-95646952D02*
X164298380Y-96123142D01*
X164774571Y-96170761D01*
X164726952Y-96123142D01*
X164679333Y-96027904D01*
X164679333Y-95789809D01*
X164726952Y-95694571D01*
X164774571Y-95646952D01*
X164869809Y-95599333D01*
X165107904Y-95599333D01*
X165203142Y-95646952D01*
X165250761Y-95694571D01*
X165298380Y-95789809D01*
X165298380Y-96027904D01*
X165250761Y-96123142D01*
X165203142Y-96170761D01*
X151598380Y-96599333D02*
X152312666Y-96599333D01*
X152455523Y-96646952D01*
X152550761Y-96742190D01*
X152598380Y-96885047D01*
X152598380Y-96980285D01*
X151931714Y-95694571D02*
X152598380Y-95694571D01*
X151550761Y-95932666D02*
X152265047Y-96170761D01*
X152265047Y-95551714D01*
X138898380Y-96599333D02*
X139612666Y-96599333D01*
X139755523Y-96646952D01*
X139850761Y-96742190D01*
X139898380Y-96885047D01*
X139898380Y-96980285D01*
X138898380Y-96218380D02*
X138898380Y-95599333D01*
X139279333Y-95932666D01*
X139279333Y-95789809D01*
X139326952Y-95694571D01*
X139374571Y-95646952D01*
X139469809Y-95599333D01*
X139707904Y-95599333D01*
X139803142Y-95646952D01*
X139850761Y-95694571D01*
X139898380Y-95789809D01*
X139898380Y-96075523D01*
X139850761Y-96170761D01*
X139803142Y-96218380D01*
X126198380Y-96599333D02*
X126912666Y-96599333D01*
X127055523Y-96646952D01*
X127150761Y-96742190D01*
X127198380Y-96885047D01*
X127198380Y-96980285D01*
X126293619Y-96170761D02*
X126246000Y-96123142D01*
X126198380Y-96027904D01*
X126198380Y-95789809D01*
X126246000Y-95694571D01*
X126293619Y-95646952D01*
X126388857Y-95599333D01*
X126484095Y-95599333D01*
X126626952Y-95646952D01*
X127198380Y-96218380D01*
X127198380Y-95599333D01*
X154630380Y-90400095D02*
X153630380Y-90400095D01*
X153630380Y-90162000D01*
X153678000Y-90019142D01*
X153773238Y-89923904D01*
X153868476Y-89876285D01*
X154058952Y-89828666D01*
X154201809Y-89828666D01*
X154392285Y-89876285D01*
X154487523Y-89923904D01*
X154582761Y-90019142D01*
X154630380Y-90162000D01*
X154630380Y-90400095D01*
X154630380Y-88876285D02*
X154630380Y-89447714D01*
X154630380Y-89162000D02*
X153630380Y-89162000D01*
X153773238Y-89257238D01*
X153868476Y-89352476D01*
X153916095Y-89447714D01*
X119582380Y-84724333D02*
X120296666Y-84724333D01*
X120439523Y-84771952D01*
X120534761Y-84867190D01*
X120582380Y-85010047D01*
X120582380Y-85105285D01*
X120582380Y-83724333D02*
X120582380Y-84295761D01*
X120582380Y-84010047D02*
X119582380Y-84010047D01*
X119725238Y-84105285D01*
X119820476Y-84200523D01*
X119868095Y-84295761D01*
%LPC*%
D13*
X138280000Y-91440000D03*
X138280000Y-86940000D03*
X144780000Y-91440000D03*
X144780000Y-86940000D03*
G36*
G01*
X154515000Y-85831000D02*
X154515000Y-86381000D01*
G75*
G02*
X154315000Y-86581000I-200000J0D01*
G01*
X153915000Y-86581000D01*
G75*
G02*
X153715000Y-86381000I0J200000D01*
G01*
X153715000Y-85831000D01*
G75*
G02*
X153915000Y-85631000I200000J0D01*
G01*
X154315000Y-85631000D01*
G75*
G02*
X154515000Y-85831000I0J-200000D01*
G01*
G37*
G36*
G01*
X156165000Y-85831000D02*
X156165000Y-86381000D01*
G75*
G02*
X155965000Y-86581000I-200000J0D01*
G01*
X155565000Y-86581000D01*
G75*
G02*
X155365000Y-86381000I0J200000D01*
G01*
X155365000Y-85831000D01*
G75*
G02*
X155565000Y-85631000I200000J0D01*
G01*
X155965000Y-85631000D01*
G75*
G02*
X156165000Y-85831000I0J-200000D01*
G01*
G37*
G36*
G01*
X122345000Y-96033000D02*
X122345000Y-95483000D01*
G75*
G02*
X122545000Y-95283000I200000J0D01*
G01*
X122945000Y-95283000D01*
G75*
G02*
X123145000Y-95483000I0J-200000D01*
G01*
X123145000Y-96033000D01*
G75*
G02*
X122945000Y-96233000I-200000J0D01*
G01*
X122545000Y-96233000D01*
G75*
G02*
X122345000Y-96033000I0J200000D01*
G01*
G37*
G36*
G01*
X120695000Y-96033000D02*
X120695000Y-95483000D01*
G75*
G02*
X120895000Y-95283000I200000J0D01*
G01*
X121295000Y-95283000D01*
G75*
G02*
X121495000Y-95483000I0J-200000D01*
G01*
X121495000Y-96033000D01*
G75*
G02*
X121295000Y-96233000I-200000J0D01*
G01*
X120895000Y-96233000D01*
G75*
G02*
X120695000Y-96033000I0J200000D01*
G01*
G37*
G36*
G01*
X122345000Y-97811000D02*
X122345000Y-97261000D01*
G75*
G02*
X122545000Y-97061000I200000J0D01*
G01*
X122945000Y-97061000D01*
G75*
G02*
X123145000Y-97261000I0J-200000D01*
G01*
X123145000Y-97811000D01*
G75*
G02*
X122945000Y-98011000I-200000J0D01*
G01*
X122545000Y-98011000D01*
G75*
G02*
X122345000Y-97811000I0J200000D01*
G01*
G37*
G36*
G01*
X120695000Y-97811000D02*
X120695000Y-97261000D01*
G75*
G02*
X120895000Y-97061000I200000J0D01*
G01*
X121295000Y-97061000D01*
G75*
G02*
X121495000Y-97261000I0J-200000D01*
G01*
X121495000Y-97811000D01*
G75*
G02*
X121295000Y-98011000I-200000J0D01*
G01*
X120895000Y-98011000D01*
G75*
G02*
X120695000Y-97811000I0J200000D01*
G01*
G37*
D14*
X121920000Y-106680000D03*
X121920000Y-104140000D03*
D15*
X121920000Y-101600000D03*
D14*
X129540000Y-91440000D03*
X127000000Y-91440000D03*
D15*
X124460000Y-91440000D03*
D16*
X167640000Y-99060000D03*
X167640000Y-101600000D03*
X167640000Y-104140000D03*
G36*
G01*
X168485001Y-107550000D02*
X166794999Y-107550000D01*
G75*
G02*
X166545000Y-107300001I0J249999D01*
G01*
X166545000Y-106059999D01*
G75*
G02*
X166794999Y-105810000I249999J0D01*
G01*
X168485001Y-105810000D01*
G75*
G02*
X168735000Y-106059999I0J-249999D01*
G01*
X168735000Y-107300001D01*
G75*
G02*
X168485001Y-107550000I-249999J0D01*
G01*
G37*
X154940000Y-99060000D03*
X154940000Y-101600000D03*
X154940000Y-104140000D03*
G36*
G01*
X155785001Y-107550000D02*
X154094999Y-107550000D01*
G75*
G02*
X153845000Y-107300001I0J249999D01*
G01*
X153845000Y-106059999D01*
G75*
G02*
X154094999Y-105810000I249999J0D01*
G01*
X155785001Y-105810000D01*
G75*
G02*
X156035000Y-106059999I0J-249999D01*
G01*
X156035000Y-107300001D01*
G75*
G02*
X155785001Y-107550000I-249999J0D01*
G01*
G37*
X142240000Y-99060000D03*
X142240000Y-101600000D03*
X142240000Y-104140000D03*
G36*
G01*
X143085001Y-107550000D02*
X141394999Y-107550000D01*
G75*
G02*
X141145000Y-107300001I0J249999D01*
G01*
X141145000Y-106059999D01*
G75*
G02*
X141394999Y-105810000I249999J0D01*
G01*
X143085001Y-105810000D01*
G75*
G02*
X143335000Y-106059999I0J-249999D01*
G01*
X143335000Y-107300001D01*
G75*
G02*
X143085001Y-107550000I-249999J0D01*
G01*
G37*
X129540000Y-99060000D03*
X129540000Y-101600000D03*
X129540000Y-104140000D03*
G36*
G01*
X130385001Y-107550000D02*
X128694999Y-107550000D01*
G75*
G02*
X128445000Y-107300001I0J249999D01*
G01*
X128445000Y-106059999D01*
G75*
G02*
X128694999Y-105810000I249999J0D01*
G01*
X130385001Y-105810000D01*
G75*
G02*
X130635000Y-106059999I0J-249999D01*
G01*
X130635000Y-107300001D01*
G75*
G02*
X130385001Y-107550000I-249999J0D01*
G01*
G37*
G36*
G01*
X154590000Y-87627750D02*
X154590000Y-88140250D01*
G75*
G02*
X154371250Y-88359000I-218750J0D01*
G01*
X153933750Y-88359000D01*
G75*
G02*
X153715000Y-88140250I0J218750D01*
G01*
X153715000Y-87627750D01*
G75*
G02*
X153933750Y-87409000I218750J0D01*
G01*
X154371250Y-87409000D01*
G75*
G02*
X154590000Y-87627750I0J-218750D01*
G01*
G37*
G36*
G01*
X156165000Y-87627750D02*
X156165000Y-88140250D01*
G75*
G02*
X155946250Y-88359000I-218750J0D01*
G01*
X155508750Y-88359000D01*
G75*
G02*
X155290000Y-88140250I0J218750D01*
G01*
X155290000Y-87627750D01*
G75*
G02*
X155508750Y-87409000I218750J0D01*
G01*
X155946250Y-87409000D01*
G75*
G02*
X156165000Y-87627750I0J-218750D01*
G01*
G37*
D17*
X120130000Y-81470000D03*
D18*
X120130000Y-78930000D03*
X122670000Y-81470000D03*
X122670000Y-78930000D03*
X125210000Y-81470000D03*
X125210000Y-78930000D03*
X127750000Y-81470000D03*
X127750000Y-78930000D03*
X130290000Y-81470000D03*
X130290000Y-78930000D03*
X132830000Y-81470000D03*
X132830000Y-78930000D03*
X135370000Y-81470000D03*
X135370000Y-78930000D03*
X137910000Y-81470000D03*
X137910000Y-78930000D03*
X140450000Y-81470000D03*
X140450000Y-78930000D03*
X142990000Y-81470000D03*
X142990000Y-78930000D03*
X145530000Y-81470000D03*
X145530000Y-78930000D03*
X148070000Y-81470000D03*
X148070000Y-78930000D03*
X150610000Y-81470000D03*
X150610000Y-78930000D03*
X153150000Y-81470000D03*
X153150000Y-78930000D03*
X155690000Y-81470000D03*
X155690000Y-78930000D03*
X158230000Y-81470000D03*
X158230000Y-78930000D03*
X160770000Y-81470000D03*
X160770000Y-78930000D03*
X163310000Y-81470000D03*
X163310000Y-78930000D03*
X165850000Y-81470000D03*
X165850000Y-78930000D03*
X168390000Y-81470000D03*
X168390000Y-78930000D03*
D19*
X173260000Y-80200000D03*
X173260000Y-129200000D03*
X115260000Y-129200000D03*
X115260000Y-80200000D03*
M02*
