M48
; DRILL file {KiCad (5.1.7)-1} date 05/12/21 14:52:24
; FORMAT={-:-/ absolute / metric / decimal}
; #@! TF.CreationDate,2021-05-12T14:52:24+08:00
; #@! TF.GenerationSoftware,Kicad,Pcbnew,(5.1.7)-1
; #@! TF.FileFunction,Plated,1,2,PTH
FMAT,2
METRIC
T1C0.300
T2C1.000
T3C1.016
T4C1.100
T5C1.190
%
G90
G05
T1
X125.21Y-87.11
T2
X124.46Y-91.44
X127.0Y-91.44
X129.54Y-91.44
X121.92Y-101.6
X121.92Y-104.14
X121.92Y-106.68
T3
X120.13Y-78.93
X120.13Y-81.47
X122.67Y-78.93
X122.67Y-81.47
X125.21Y-78.93
X125.21Y-81.47
X127.75Y-78.93
X127.75Y-81.47
X130.29Y-78.93
X130.29Y-81.47
X132.83Y-78.93
X132.83Y-81.47
X135.37Y-78.93
X135.37Y-81.47
X137.91Y-78.93
X137.91Y-81.47
X140.45Y-78.93
X140.45Y-81.47
X142.99Y-78.93
X142.99Y-81.47
X145.53Y-78.93
X145.53Y-81.47
X148.07Y-78.93
X148.07Y-81.47
X150.61Y-78.93
X150.61Y-81.47
X153.15Y-78.93
X153.15Y-81.47
X155.69Y-78.93
X155.69Y-81.47
X158.23Y-78.93
X158.23Y-81.47
X160.77Y-78.93
X160.77Y-81.47
X163.31Y-78.93
X163.31Y-81.47
X165.85Y-78.93
X165.85Y-81.47
X168.39Y-78.93
X168.39Y-81.47
T4
X138.28Y-86.94
X138.28Y-91.44
X144.78Y-86.94
X144.78Y-91.44
T5
X154.94Y-99.06
X154.94Y-101.6
X154.94Y-104.14
X154.94Y-106.68
X167.64Y-99.06
X167.64Y-101.6
X167.64Y-104.14
X167.64Y-106.68
X142.24Y-99.06
X142.24Y-101.6
X142.24Y-104.14
X142.24Y-106.68
X129.54Y-99.06
X129.54Y-101.6
X129.54Y-104.14
X129.54Y-106.68
T0
M30
